<svg width="390" height="92" viewBox="0 0 390 92" fill="none" xmlns="http://www.w3.org/2000/svg">
    <mask id="path-1-outside-1_228_966" maskUnits="userSpaceOnUse" x="0" y="0" width="390" height="92" fill="black">
    <rect fill="white" width="390" height="92"/>
    <path fill-rule="evenodd" clip-rule="evenodd" d="M247.061 7.35883L246.992 7.42819L246.924 7.4989C243.472 11.0891 241.796 15.6124 241.796 20.4111C241.796 22.2539 242.043 24.056 242.543 25.7803V52.653C240.482 51.9855 238.328 51.6832 236.179 51.6832C233.998 51.6832 231.812 51.9948 229.722 52.6837C229.171 51.3119 228.476 49.9798 227.612 48.7112C227.444 48.4599 227.273 48.2116 227.097 47.9663C229.065 44.267 229.887 40.2443 229.887 36.1942C229.887 32.2403 229.034 28.3594 227.13 24.7758C225.345 21.4171 222.87 18.5941 219.821 16.3582C216.847 14.1772 213.489 12.648 209.929 11.6308C206.302 10.5945 202.499 10.1251 198.588 10.1251C194.607 10.1251 190.732 10.6432 187.038 11.7866C183.397 12.9135 179.998 14.6057 177.021 16.9873C174.244 19.2091 171.959 21.8999 170.258 25.0305C169.916 23.5456 169.376 22.0473 168.569 20.5948C167.154 18.0476 165.139 15.888 162.564 14.3277C160.417 12.9715 158.096 12.1082 155.723 11.6454C153.69 11.1825 151.625 10.9654 149.55 10.9654C147.657 10.9654 145.715 11.1528 143.766 11.4646L143.734 11.4698L143.702 11.4751C141.842 11.7852 140.034 12.1955 138.318 12.7373L135.391 13.6618L118.684 34.7693C118.615 34.5542 118.544 34.3399 118.472 34.1264C116.881 29.3636 114.54 25.03 111.283 21.3802C108.106 17.6891 104.219 14.8666 99.7278 12.9745C95.3353 11.0977 90.6606 10.2186 85.827 10.2186C80.941 10.2186 76.2169 11.094 71.7729 12.9604L71.7393 12.9745L71.7059 12.9888C67.2514 14.8979 63.3921 17.7277 60.1904 21.374L60.1791 21.387C59.7675 21.8573 59.3708 22.3389 58.9884 22.8311C57.5815 20.8205 55.8914 19.0346 53.9623 17.4789C50.9525 15.0516 47.5055 13.3091 43.8068 12.1212C39.8514 10.7871 35.6158 10.2186 31.2444 10.2186C25.2163 10.2186 19.317 11.1335 14.2963 13.7773C11.5344 15.1995 8.92766 17.2845 7.0431 20.2459C5.12176 23.2652 4.33475 26.5944 4.33475 29.8438C4.33475 32.92 5.05843 36.0847 6.83011 38.9838C8.21623 41.252 10.0241 43.1976 12.2127 44.7425L16.2262 47.5755L9.76363 53.1015C7.65198 54.8604 6.00801 56.9851 4.71311 59.1901C2.70718 62.5287 2 66.1832 2 69.6279C2 76.4755 5.0538 82.7841 10.7586 86.6738L13.3088 88.4126H48.8016C52.4609 88.4126 56.3806 87.2932 59.5676 84.3055L59.6853 84.1951L59.7994 84.081C60.7976 83.0828 61.5785 82.0055 62.1871 80.898C64.9684 83.5217 68.154 85.6143 71.7059 87.1366L71.7393 87.1509L71.7729 87.165C76.2169 89.0315 80.941 89.9068 85.827 89.9068C90.6608 89.9068 95.3356 89.0277 99.7282 87.1507C104.199 85.2673 108.091 82.4845 111.284 78.8364C112.48 77.474 113.553 76.0218 114.513 74.4912C115.347 75.1095 116.237 75.67 117.184 76.164L119.359 77.2989H135.742C135.947 78.196 136.23 79.1093 136.617 80.013C137.613 82.3379 139.205 84.5372 141.516 86.2183L141.924 86.5149L142.36 86.7691C144.537 88.039 146.825 88.6551 148.941 88.9041C150.478 89.0849 152.096 89.1594 153.752 89.1594C155.585 89.1594 157.415 88.9838 159.231 88.666C160.547 88.4851 161.68 88.3149 162.546 88.1575L170.762 86.6636V77.8807C172.255 79.8973 174.022 81.6849 176.026 83.2366L176.087 83.2835L176.148 83.3294C179.26 85.6634 182.795 87.3037 186.565 88.3929C190.426 89.5081 194.526 90.0001 198.775 90.0001C203.023 90.0001 207.124 89.5081 210.984 88.3929C214.755 87.3037 218.29 85.6634 221.402 83.3294L221.441 83.3C221.688 83.601 221.947 83.8968 222.216 84.1874C226.066 88.3334 231.134 89.9997 236.179 89.9997C240.607 89.9997 245.051 88.7166 248.675 85.6009C248.743 85.6535 248.811 85.7056 248.88 85.7573C251.061 87.3932 253.482 88.3085 255.853 88.727L255.9 88.7352L255.947 88.7431C257.708 89.0366 259.515 89.1594 261.328 89.1594C263.212 89.1594 265.084 88.996 266.934 88.6613C268.236 88.4822 269.357 88.3136 270.215 88.1575L276.751 86.9691C278.4 87.8675 280.131 88.4255 281.837 88.7265L281.884 88.7348L281.931 88.7426C283.692 89.0362 285.498 89.1589 287.311 89.1589C289.166 89.1589 291 89.0387 292.803 88.7828C294.24 88.5862 295.877 88.3185 297.284 87.8964L303.856 85.9248C305.977 87.4558 308.312 88.3226 310.601 88.7265L310.648 88.7348L310.695 88.7426C312.456 89.0362 314.263 89.1589 316.075 89.1589C317.93 89.1589 319.764 89.0387 321.567 88.7828C323.004 88.5862 324.641 88.3185 326.048 87.8964L330.621 86.5247C332.494 87.6877 334.499 88.3788 336.47 88.7266L336.517 88.7349L336.564 88.7427C338.326 89.0363 340.132 89.1591 341.945 89.1591C343.829 89.1591 345.701 88.9957 347.552 88.661C348.853 88.4818 349.974 88.3132 350.832 88.1572L358.702 86.7263C361.823 88.4717 365.222 89.2525 368.654 89.2525C373.283 89.2525 378.38 87.8463 382.161 83.6066C385.464 79.9726 386.841 75.4594 387.289 71.2461L387.795 66.4925L377.084 55.7815L377.479 55.4369C377.641 55.2959 377.798 55.1583 377.952 55.0242L377.967 55.0105L377.983 54.9968C379.296 53.8382 380.572 52.5622 381.67 51.1667C382.773 49.8366 383.842 48.2476 384.615 46.3927L384.668 46.2651L384.717 46.1362C385.502 44.095 385.851 41.9962 385.851 39.9293C385.851 34.1157 382.952 29.4711 378.758 26.4318C374.606 23.3769 369.731 22.3587 365.105 22.3587H360.893L359.048 24.2464V24.1464C359.048 21.9108 358.771 19.195 357.623 16.5505C356.659 14.1468 355.077 11.8451 352.711 10.0712C350.449 8.3744 347.95 7.49188 345.601 7.09386C343.851 6.7884 342.051 6.66918 340.264 6.66918C338.35 6.66918 336.447 6.83759 334.561 7.16905C333.184 7.36942 331.77 7.61835 330.533 7.95566L323.16 9.96656V28.0252C317.039 23.3235 309.303 21.6114 301.226 21.6114C296.516 21.6114 291.986 22.1718 287.713 23.4042L287.688 23.4115L287.663 23.4188C284.062 24.4781 280.66 25.9256 277.645 27.8968C278.666 25.5685 279.178 23.0402 279.178 20.4111C279.178 15.5221 277.407 10.9814 273.888 7.42718C270.142 3.57362 265.307 2 260.487 2C255.629 2 250.828 3.59216 247.061 7.35883ZM42.4511 56.2731C42.5346 56.2065 42.6177 56.1398 42.7002 56.073C42.6177 56.1398 42.5346 56.2065 42.4511 56.2731ZM371.363 47.4939C370.366 48.3655 369.183 49.3928 367.814 50.5757C368.602 49.8954 369.328 49.2665 369.992 48.6891C370.482 48.2626 370.939 47.8642 371.363 47.4939ZM201.271 59.8018C201.235 59.7467 201.197 59.6926 201.159 59.6396C201.155 59.634 201.196 59.6938 201.23 59.7425C201.253 59.777 201.273 59.8058 201.271 59.8018Z"/>
    </mask>
    <path fill-rule="evenodd" clip-rule="evenodd" d="M247.061 7.35883L246.992 7.42819L246.924 7.4989C243.472 11.0891 241.796 15.6124 241.796 20.4111C241.796 22.2539 242.043 24.056 242.543 25.7803V52.653C240.482 51.9855 238.328 51.6832 236.179 51.6832C233.998 51.6832 231.812 51.9948 229.722 52.6837C229.171 51.3119 228.476 49.9798 227.612 48.7112C227.444 48.4599 227.273 48.2116 227.097 47.9663C229.065 44.267 229.887 40.2443 229.887 36.1942C229.887 32.2403 229.034 28.3594 227.13 24.7758C225.345 21.4171 222.87 18.5941 219.821 16.3582C216.847 14.1772 213.489 12.648 209.929 11.6308C206.302 10.5945 202.499 10.1251 198.588 10.1251C194.607 10.1251 190.732 10.6432 187.038 11.7866C183.397 12.9135 179.998 14.6057 177.021 16.9873C174.244 19.2091 171.959 21.8999 170.258 25.0305C169.916 23.5456 169.376 22.0473 168.569 20.5948C167.154 18.0476 165.139 15.888 162.564 14.3277C160.417 12.9715 158.096 12.1082 155.723 11.6454C153.69 11.1825 151.625 10.9654 149.55 10.9654C147.657 10.9654 145.715 11.1528 143.766 11.4646L143.734 11.4698L143.702 11.4751C141.842 11.7852 140.034 12.1955 138.318 12.7373L135.391 13.6618L118.684 34.7693C118.615 34.5542 118.544 34.3399 118.472 34.1264C116.881 29.3636 114.54 25.03 111.283 21.3802C108.106 17.6891 104.219 14.8666 99.7278 12.9745C95.3353 11.0977 90.6606 10.2186 85.827 10.2186C80.941 10.2186 76.2169 11.094 71.7729 12.9604L71.7393 12.9745L71.7059 12.9888C67.2514 14.8979 63.3921 17.7277 60.1904 21.374L60.1791 21.387C59.7675 21.8573 59.3708 22.3389 58.9884 22.8311C57.5815 20.8205 55.8914 19.0346 53.9623 17.4789C50.9525 15.0516 47.5055 13.3091 43.8068 12.1212C39.8514 10.7871 35.6158 10.2186 31.2444 10.2186C25.2163 10.2186 19.317 11.1335 14.2963 13.7773C11.5344 15.1995 8.92766 17.2845 7.0431 20.2459C5.12176 23.2652 4.33475 26.5944 4.33475 29.8438C4.33475 32.92 5.05843 36.0847 6.83011 38.9838C8.21623 41.252 10.0241 43.1976 12.2127 44.7425L16.2262 47.5755L9.76363 53.1015C7.65198 54.8604 6.00801 56.9851 4.71311 59.1901C2.70718 62.5287 2 66.1832 2 69.6279C2 76.4755 5.0538 82.7841 10.7586 86.6738L13.3088 88.4126H48.8016C52.4609 88.4126 56.3806 87.2932 59.5676 84.3055L59.6853 84.1951L59.7994 84.081C60.7976 83.0828 61.5785 82.0055 62.1871 80.898C64.9684 83.5217 68.154 85.6143 71.7059 87.1366L71.7393 87.1509L71.7729 87.165C76.2169 89.0315 80.941 89.9068 85.827 89.9068C90.6608 89.9068 95.3356 89.0277 99.7282 87.1507C104.199 85.2673 108.091 82.4845 111.284 78.8364C112.48 77.474 113.553 76.0218 114.513 74.4912C115.347 75.1095 116.237 75.67 117.184 76.164L119.359 77.2989H135.742C135.947 78.196 136.23 79.1093 136.617 80.013C137.613 82.3379 139.205 84.5372 141.516 86.2183L141.924 86.5149L142.36 86.7691C144.537 88.039 146.825 88.6551 148.941 88.9041C150.478 89.0849 152.096 89.1594 153.752 89.1594C155.585 89.1594 157.415 88.9838 159.231 88.666C160.547 88.4851 161.68 88.3149 162.546 88.1575L170.762 86.6636V77.8807C172.255 79.8973 174.022 81.6849 176.026 83.2366L176.087 83.2835L176.148 83.3294C179.26 85.6634 182.795 87.3037 186.565 88.3929C190.426 89.5081 194.526 90.0001 198.775 90.0001C203.023 90.0001 207.124 89.5081 210.984 88.3929C214.755 87.3037 218.29 85.6634 221.402 83.3294L221.441 83.3C221.688 83.601 221.947 83.8968 222.216 84.1874C226.066 88.3334 231.134 89.9997 236.179 89.9997C240.607 89.9997 245.051 88.7166 248.675 85.6009C248.743 85.6535 248.811 85.7056 248.88 85.7573C251.061 87.3932 253.482 88.3085 255.853 88.727L255.9 88.7352L255.947 88.7431C257.708 89.0366 259.515 89.1594 261.328 89.1594C263.212 89.1594 265.084 88.996 266.934 88.6613C268.236 88.4822 269.357 88.3136 270.215 88.1575L276.751 86.9691C278.4 87.8675 280.131 88.4255 281.837 88.7265L281.884 88.7348L281.931 88.7426C283.692 89.0362 285.498 89.1589 287.311 89.1589C289.166 89.1589 291 89.0387 292.803 88.7828C294.24 88.5862 295.877 88.3185 297.284 87.8964L303.856 85.9248C305.977 87.4558 308.312 88.3226 310.601 88.7265L310.648 88.7348L310.695 88.7426C312.456 89.0362 314.263 89.1589 316.075 89.1589C317.93 89.1589 319.764 89.0387 321.567 88.7828C323.004 88.5862 324.641 88.3185 326.048 87.8964L330.621 86.5247C332.494 87.6877 334.499 88.3788 336.47 88.7266L336.517 88.7349L336.564 88.7427C338.326 89.0363 340.132 89.1591 341.945 89.1591C343.829 89.1591 345.701 88.9957 347.552 88.661C348.853 88.4818 349.974 88.3132 350.832 88.1572L358.702 86.7263C361.823 88.4717 365.222 89.2525 368.654 89.2525C373.283 89.2525 378.38 87.8463 382.161 83.6066C385.464 79.9726 386.841 75.4594 387.289 71.2461L387.795 66.4925L377.084 55.7815L377.479 55.4369C377.641 55.2959 377.798 55.1583 377.952 55.0242L377.967 55.0105L377.983 54.9968C379.296 53.8382 380.572 52.5622 381.67 51.1667C382.773 49.8366 383.842 48.2476 384.615 46.3927L384.668 46.2651L384.717 46.1362C385.502 44.095 385.851 41.9962 385.851 39.9293C385.851 34.1157 382.952 29.4711 378.758 26.4318C374.606 23.3769 369.731 22.3587 365.105 22.3587H360.893L359.048 24.2464V24.1464C359.048 21.9108 358.771 19.195 357.623 16.5505C356.659 14.1468 355.077 11.8451 352.711 10.0712C350.449 8.3744 347.95 7.49188 345.601 7.09386C343.851 6.7884 342.051 6.66918 340.264 6.66918C338.35 6.66918 336.447 6.83759 334.561 7.16905C333.184 7.36942 331.77 7.61835 330.533 7.95566L323.16 9.96656V28.0252C317.039 23.3235 309.303 21.6114 301.226 21.6114C296.516 21.6114 291.986 22.1718 287.713 23.4042L287.688 23.4115L287.663 23.4188C284.062 24.4781 280.66 25.9256 277.645 27.8968C278.666 25.5685 279.178 23.0402 279.178 20.4111C279.178 15.5221 277.407 10.9814 273.888 7.42718C270.142 3.57362 265.307 2 260.487 2C255.629 2 250.828 3.59216 247.061 7.35883ZM42.4511 56.2731C42.5346 56.2065 42.6177 56.1398 42.7002 56.073C42.6177 56.1398 42.5346 56.2065 42.4511 56.2731ZM371.363 47.4939C370.366 48.3655 369.183 49.3928 367.814 50.5757C368.602 49.8954 369.328 49.2665 369.992 48.6891C370.482 48.2626 370.939 47.8642 371.363 47.4939ZM201.271 59.8018C201.235 59.7467 201.197 59.6926 201.159 59.6396C201.155 59.634 201.196 59.6938 201.23 59.7425C201.253 59.777 201.273 59.8058 201.271 59.8018Z" fill="url(#paint0_linear_228_966)"/>
    <path d="M246.992 7.42819L245.747 6.18376L245.735 6.19603L245.723 6.20854L246.992 7.42819ZM247.061 7.35883L248.306 8.60326L248.306 8.60323L247.061 7.35883ZM246.924 7.4989L248.192 8.71867L248.193 8.71856L246.924 7.4989ZM242.543 25.7803H244.303V25.5303L244.233 25.2902L242.543 25.7803ZM242.543 52.653L242.001 54.3273L244.303 55.0727V52.653H242.543ZM229.722 52.6837L228.089 53.34L228.705 54.872L230.273 54.3551L229.722 52.6837ZM227.612 48.7112L226.15 49.6903L226.158 49.7014L227.612 48.7112ZM227.097 47.9663L225.544 47.1399L225.032 48.1018L225.665 48.9886L227.097 47.9663ZM227.13 24.7758L228.684 23.9501V23.9501L227.13 24.7758ZM219.821 16.3582L218.78 17.7773V17.7773L219.821 16.3582ZM209.929 11.6308L210.412 9.93867L210.412 9.93867L209.929 11.6308ZM187.038 11.7866L187.558 13.4678V13.4678L187.038 11.7866ZM177.021 16.9873L178.121 18.3615V18.3615L177.021 16.9873ZM170.258 25.0305L168.543 25.4255L169.586 29.9539L171.804 25.8705L170.258 25.0305ZM168.569 20.5948L170.108 19.7402V19.7402L168.569 20.5948ZM162.564 14.3277L161.624 15.8155L161.637 15.8243L161.652 15.8329L162.564 14.3277ZM155.723 11.6454L155.332 13.3613L155.359 13.3674L155.386 13.3727L155.723 11.6454ZM143.766 11.4646L143.488 9.7269L143.488 9.72691L143.766 11.4646ZM143.734 11.4698L143.456 9.73201L143.445 9.73387L143.734 11.4698ZM143.702 11.4751L143.413 9.73921V9.73921L143.702 11.4751ZM138.318 12.7373L137.788 11.0592V11.0592L138.318 12.7373ZM135.391 13.6618L134.861 11.9836L134.346 12.1462L134.011 12.5695L135.391 13.6618ZM118.684 34.7693L117.007 35.3048L118.012 38.4526L120.063 35.8616L118.684 34.7693ZM118.472 34.1264L116.803 34.6839L116.805 34.6903L118.472 34.1264ZM111.283 21.3802L109.949 22.5282L109.959 22.5402L109.97 22.552L111.283 21.3802ZM99.7278 12.9745L99.0364 14.5928L99.0446 14.5963L99.7278 12.9745ZM71.7729 12.9604L71.0914 11.3379L71.0914 11.3379L71.7729 12.9604ZM71.7393 12.9745L71.0578 11.3519L71.0461 11.357L71.7393 12.9745ZM71.7059 12.9888L72.3992 14.6064L72.3992 14.6064L71.7059 12.9888ZM60.1904 21.374L58.868 20.2128L58.8661 20.215L60.1904 21.374ZM60.1791 21.387L58.8547 20.228L58.8547 20.2281L60.1791 21.387ZM58.9884 22.8311L57.5465 23.84L58.9145 25.795L60.3782 23.9107L58.9884 22.8311ZM53.9623 17.4789L52.8575 18.8488L53.9623 17.4789ZM43.8068 12.1212L43.2444 13.7888L43.2565 13.7929L43.2687 13.7968L43.8068 12.1212ZM14.2963 13.7773L15.1019 15.3419L15.1091 15.3382L15.1162 15.3344L14.2963 13.7773ZM7.0431 20.2459L8.52782 21.1907L8.52782 21.1907L7.0431 20.2459ZM6.83011 38.9838L8.33175 38.0662L6.83011 38.9838ZM12.2127 44.7425L11.1978 46.1802L12.2127 44.7425ZM16.2262 47.5755L17.3699 48.9131L19.0895 47.4426L17.241 46.1378L16.2262 47.5755ZM9.76363 53.1015L10.89 54.4537L10.8987 54.4464L10.9073 54.439L9.76363 53.1015ZM4.71311 59.1901L6.22162 60.0964L6.22616 60.0889L6.23062 60.0813L4.71311 59.1901ZM10.7586 86.6738L9.76721 88.1278H9.76721L10.7586 86.6738ZM13.3088 88.4126L12.3174 89.8666L12.7659 90.1724H13.3088V88.4126ZM59.5676 84.3055L60.7712 85.5893L60.7712 85.5893L59.5676 84.3055ZM59.6853 84.1951L60.8889 85.4789L60.9096 85.4595L60.9297 85.4395L59.6853 84.1951ZM59.7994 84.081L58.555 82.8366H58.555L59.7994 84.081ZM62.1871 80.898L63.3947 79.6178L61.7401 78.0569L60.6447 80.0505L62.1871 80.898ZM71.7059 87.1366L71.0127 88.7541L71.0128 88.7542L71.7059 87.1366ZM71.7393 87.1509L71.0462 88.7685L71.0578 88.7734L71.7393 87.1509ZM71.7729 87.165L71.0913 88.7875L71.0914 88.7875L71.7729 87.165ZM99.7282 87.1507L99.045 85.5289L99.0367 85.5324L99.7282 87.1507ZM111.284 78.8364L109.961 77.6757L109.96 77.6773L111.284 78.8364ZM114.513 74.4912L115.561 73.0773L114.032 71.9446L113.022 73.5565L114.513 74.4912ZM117.184 76.164L117.998 74.6038L117.998 74.6038L117.184 76.164ZM119.359 77.2989L118.545 78.8591L118.928 79.0587H119.359V77.2989ZM135.742 77.2989L137.458 76.9078L137.146 75.539H135.742V77.2989ZM136.617 80.013L138.235 79.3198L136.617 80.013ZM141.516 86.2183L142.551 84.7951L142.551 84.795L141.516 86.2183ZM141.924 86.5149L140.889 87.9382L140.961 87.9903L141.038 88.0351L141.924 86.5149ZM142.36 86.7691L143.247 85.2489V85.2489L142.36 86.7691ZM148.941 88.9041L148.735 90.6519H148.735L148.941 88.9041ZM159.231 88.666L158.992 86.9226L158.96 86.927L158.928 86.9325L159.231 88.666ZM162.546 88.1575L162.861 89.8889H162.861L162.546 88.1575ZM170.762 86.6636L171.077 88.3951L172.522 88.1324V86.6636H170.762ZM170.762 77.8807L172.177 76.8336L169.003 72.5458V77.8807H170.762ZM176.026 83.2366L174.949 84.6281L174.949 84.6282L176.026 83.2366ZM176.087 83.2835L175.009 84.6751L175.02 84.6833L175.031 84.6914L176.087 83.2835ZM176.148 83.3294L177.204 81.9215L177.204 81.9215L176.148 83.3294ZM186.565 88.3929L187.054 86.7022H187.054L186.565 88.3929ZM210.984 88.3929L210.496 86.7022H210.496L210.984 88.3929ZM221.402 83.3294L222.458 84.7373L222.459 84.7364L221.402 83.3294ZM221.441 83.3L222.801 82.1829L221.731 80.8808L220.384 81.8931L221.441 83.3ZM222.216 84.1874L220.927 85.3848L220.927 85.3849L222.216 84.1874ZM248.675 85.6009L249.754 84.2108L248.618 83.3288L247.528 84.2665L248.675 85.6009ZM248.88 85.7573L249.936 84.3494L248.88 85.7573ZM255.853 88.727L255.547 90.46L255.547 90.46L255.853 88.727ZM255.9 88.7352L255.594 90.4683L255.603 90.4698L255.611 90.4712L255.9 88.7352ZM255.947 88.7431L256.236 87.0072L256.236 87.0071L255.947 88.7431ZM266.934 88.6613L266.694 86.9179L266.658 86.923L266.621 86.9296L266.934 88.6613ZM270.215 88.1575L269.9 86.426L270.215 88.1575ZM276.751 86.9691L277.593 85.4237L277.047 85.1266L276.436 85.2377L276.751 86.9691ZM281.837 88.7265L282.143 86.9934V86.9934L281.837 88.7265ZM281.884 88.7348L281.578 90.4678L281.586 90.4693L281.595 90.4707L281.884 88.7348ZM281.931 88.7426L282.22 87.0067L282.22 87.0067L281.931 88.7426ZM292.803 88.7828L292.564 87.0392L292.556 87.0404L292.803 88.7828ZM297.284 87.8964L297.79 89.582L297.284 87.8964ZM303.856 85.9248L304.886 84.4978L304.182 83.9897L303.35 84.2392L303.856 85.9248ZM310.601 88.7265L310.295 90.4595L310.295 90.4596L310.601 88.7265ZM310.648 88.7348L310.342 90.4679L310.35 90.4693L310.359 90.4707L310.648 88.7348ZM310.695 88.7426L310.984 87.0067L310.984 87.0067L310.695 88.7426ZM321.567 88.7828L321.328 87.0392L321.32 87.0404L321.567 88.7828ZM326.048 87.8964L325.543 86.2108L325.543 86.2108L326.048 87.8964ZM330.621 86.5247L331.549 85.0295L330.875 84.6111L330.115 84.8391L330.621 86.5247ZM336.47 88.7266L336.164 90.4597L336.165 90.4598L336.47 88.7266ZM336.517 88.7349L336.212 90.468L336.22 90.4694L336.228 90.4708L336.517 88.7349ZM336.564 88.7427L336.275 90.4786L336.275 90.4786L336.564 88.7427ZM347.552 88.661L347.312 86.9176L347.275 86.9226L347.238 86.9292L347.552 88.661ZM350.832 88.1572L351.147 89.8886H351.147L350.832 88.1572ZM358.702 86.7263L359.561 85.1904L359.009 84.8818L358.387 84.9949L358.702 86.7263ZM382.161 83.6066L380.859 82.4229L380.853 82.429L380.848 82.4352L382.161 83.6066ZM387.289 71.2461L389.039 71.4323V71.4322L387.289 71.2461ZM387.795 66.4925L389.545 66.6787L389.634 65.8426L389.04 65.2481L387.795 66.4925ZM377.084 55.7815L375.928 54.455L374.507 55.6934L375.84 57.0259L377.084 55.7815ZM377.479 55.4369L378.636 56.7633L378.637 56.7627L377.479 55.4369ZM377.952 55.0242L379.111 56.3486L379.112 56.3476L377.952 55.0242ZM377.967 55.0105L379.127 56.334L379.131 56.3303L377.967 55.0105ZM377.983 54.9968L379.147 56.3165L379.147 56.3164L377.983 54.9968ZM381.67 51.1667L380.315 50.0431L380.301 50.0607L380.287 50.0786L381.67 51.1667ZM384.615 46.3927L386.239 47.0696L386.239 47.0694L384.615 46.3927ZM384.668 46.2651L386.292 46.9418L386.302 46.9196L386.31 46.8971L384.668 46.2651ZM384.717 46.1362L386.36 46.7681L386.36 46.7679L384.717 46.1362ZM378.758 26.4318L377.715 27.8493L377.725 27.8568L378.758 26.4318ZM360.893 22.3587V20.5988H360.152L359.635 21.1286L360.893 22.3587ZM359.048 24.2464H357.289V28.565L360.307 25.4764L359.048 24.2464ZM357.623 16.5505L355.99 17.2054L355.999 17.2284L356.009 17.2511L357.623 16.5505ZM352.711 10.0712L351.655 11.4791V11.4791L352.711 10.0712ZM345.601 7.09386L345.298 8.82751L345.307 8.82898L345.601 7.09386ZM334.561 7.16905L334.814 8.91056L334.84 8.90683L334.866 8.90234L334.561 7.16905ZM330.533 7.95566L330.07 6.25782V6.25782L330.533 7.95566ZM323.16 9.96656L322.697 8.26872L321.4 8.6224V9.96656H323.16ZM323.16 28.0252L322.088 29.4209L324.92 31.596V28.0252H323.16ZM287.713 23.4042L287.225 21.7133L287.225 21.7134L287.713 23.4042ZM287.688 23.4115L287.2 21.7206L287.192 21.7231L287.688 23.4115ZM287.663 23.4188L287.167 21.7305L287.167 21.7305L287.663 23.4188ZM277.645 27.8968L276.033 27.1902L273.659 32.6053L278.608 29.3698L277.645 27.8968ZM273.888 7.42718L272.626 8.65384L272.631 8.65964L272.637 8.66538L273.888 7.42718ZM42.7002 56.073L43.8066 57.4416L41.5939 54.7044L42.7002 56.073ZM367.814 50.5757L366.663 49.2439L368.964 51.9076L367.814 50.5757ZM371.363 47.4939L372.521 48.8183L370.204 46.1694L371.363 47.4939ZM369.992 48.6891L371.146 50.0173L371.146 50.0173L369.992 48.6891ZM201.159 59.6396L199.729 60.6647L199.73 60.667L201.159 59.6396ZM201.271 59.8018L202.742 58.836L202.741 58.8351L201.271 59.8018ZM201.23 59.7425L202.68 58.745L202.679 58.7448L201.23 59.7425ZM248.236 8.67262L248.306 8.60326L245.817 6.1144L245.747 6.18376L248.236 8.67262ZM248.193 8.71856L248.261 8.64785L245.723 6.20854L245.655 6.27925L248.193 8.71856ZM243.556 20.4111C243.556 16.0394 245.074 11.9615 248.192 8.71867L245.655 6.27914C241.869 10.2166 240.036 15.1854 240.036 20.4111H243.556ZM244.233 25.2902C243.782 23.7327 243.556 22.0961 243.556 20.4111H240.036C240.036 22.4117 240.304 24.3793 240.853 26.2704L244.233 25.2902ZM244.303 52.653V25.7803H240.783V52.653H244.303ZM236.179 53.4431C238.165 53.4431 240.133 53.7224 242.001 54.3273L243.085 50.9788C240.83 50.2486 238.492 49.9234 236.179 49.9234V53.4431ZM230.273 54.3551C232.166 53.731 234.164 53.4431 236.179 53.4431V49.9234C233.831 49.9234 231.457 50.2586 229.171 51.0124L230.273 54.3551ZM226.158 49.7014C226.945 50.8585 227.582 52.0775 228.089 53.34L231.355 52.0274C230.759 50.5462 230.007 49.1011 229.067 47.721L226.158 49.7014ZM225.665 48.9886C225.83 49.2197 225.992 49.4536 226.15 49.6903L229.075 47.7321C228.897 47.4661 228.715 47.2034 228.53 46.944L225.665 48.9886ZM228.127 36.1942C228.127 40.0054 227.354 43.7352 225.544 47.1399L228.651 48.7926C230.775 44.7987 231.647 40.4832 231.647 36.1942H228.127ZM225.576 25.6014C227.331 28.9049 228.127 32.4974 228.127 36.1942H231.647C231.647 31.9832 230.736 27.8138 228.684 23.9501L225.576 25.6014ZM218.78 17.7773C221.622 19.861 223.919 22.4831 225.576 25.6014L228.684 23.9501C226.772 20.351 224.119 17.3273 220.862 14.939L218.78 17.7773ZM209.445 13.3229C212.839 14.2927 216.001 15.7391 218.78 17.7773L220.862 14.939C217.693 12.6153 214.139 11.0034 210.412 9.93867L209.445 13.3229ZM198.588 11.885C202.359 11.885 205.996 12.3375 209.445 13.3229L210.412 9.93867C206.607 8.85149 202.64 8.36529 198.588 8.36529V11.885ZM187.558 13.4678C191.062 12.3831 194.76 11.885 198.588 11.885V8.36529C194.455 8.36529 190.401 8.90323 186.517 10.1055L187.558 13.4678ZM178.121 18.3615C180.903 16.136 184.097 14.5389 187.558 13.4678L186.517 10.1055C182.696 11.2882 179.094 13.0754 175.922 15.6131L178.121 18.3615ZM171.804 25.8705C173.389 22.9535 175.52 20.4422 178.121 18.3615L175.922 15.6131C172.968 17.976 170.528 20.8463 168.712 24.1904L171.804 25.8705ZM167.031 21.4495C167.749 22.7426 168.234 24.0835 168.543 25.4255L171.973 24.6354C171.598 23.0076 171.003 21.3519 170.108 19.7402L167.031 21.4495ZM161.652 15.8329C163.953 17.2272 165.758 19.1574 167.031 21.4495L170.108 19.7402C168.551 16.9378 166.325 14.5487 163.475 12.8226L161.652 15.8329ZM155.386 13.3727C157.566 13.7979 159.679 14.5868 161.624 15.8155L163.503 12.8399C161.155 11.3562 158.626 10.4185 156.059 9.91806L155.386 13.3727ZM149.55 12.7253C151.502 12.7253 153.435 12.9294 155.332 13.3613L156.113 9.92943C153.944 9.43563 151.748 9.20557 149.55 9.20557V12.7253ZM144.044 13.2024C145.924 12.9016 147.771 12.7253 149.55 12.7253V9.20557C147.544 9.20557 145.506 9.40405 143.488 9.7269L144.044 13.2024ZM144.012 13.2075L144.044 13.2024L143.488 9.72691L143.456 9.73205L144.012 13.2075ZM143.991 13.211L144.023 13.2057L143.445 9.73387L143.413 9.73921L143.991 13.211ZM138.848 14.4155C140.47 13.9033 142.196 13.5103 143.991 13.211L143.413 9.73921C141.488 10.06 139.598 10.4878 137.788 11.0592L138.848 14.4155ZM135.921 15.3399L138.848 14.4155L137.788 11.0592L134.861 11.9836L135.921 15.3399ZM120.063 35.8616L136.771 14.754L134.011 12.5695L117.304 33.6771L120.063 35.8616ZM116.805 34.6903C116.874 34.8943 116.941 35.0991 117.007 35.3048L120.36 34.2339C120.288 34.0094 120.215 33.7856 120.139 33.5625L116.805 34.6903ZM109.97 22.552C113.043 25.995 115.275 30.1089 116.803 34.6839L120.141 33.5689C118.488 28.6184 116.038 24.065 112.596 20.2084L109.97 22.552ZM99.0446 14.5963C103.287 16.3835 106.951 19.0445 109.949 22.5282L112.617 20.2322C109.261 16.3336 105.151 13.3496 100.411 11.3527L99.0446 14.5963ZM85.827 11.9785C90.4441 11.9785 94.8811 12.8174 99.0364 14.5928L100.419 11.3562C95.7896 9.37802 90.8772 8.45876 85.827 8.45876V11.9785ZM72.4543 14.583C76.6642 12.8149 81.1542 11.9785 85.827 11.9785V8.45876C80.7278 8.45876 75.7696 9.37305 71.0914 11.3379L72.4543 14.583ZM72.4209 14.597L72.4544 14.583L71.0914 11.3379L71.0578 11.352L72.4209 14.597ZM72.3992 14.6064L72.4326 14.5921L71.0461 11.357L71.0127 11.3713L72.3992 14.6064ZM61.5129 22.5352C64.5456 19.0812 68.1916 16.4097 72.3992 14.6064L71.0127 11.3713C66.3112 13.3862 62.2385 16.3742 58.868 20.2128L61.5129 22.5352ZM61.5034 22.546L61.5148 22.533L58.8661 20.215L58.8547 20.228L61.5034 22.546ZM60.3782 23.9107C60.7399 23.4451 61.1149 22.99 61.5035 22.5459L58.8547 20.2281C58.4202 20.7246 58.0017 21.2326 57.5986 21.7515L60.3782 23.9107ZM52.8575 18.8488C54.6646 20.3061 56.2393 21.9719 57.5465 23.84L60.4303 21.8221C58.9237 19.669 57.1181 17.7631 55.067 16.109L52.8575 18.8488ZM43.2687 13.7968C46.7934 14.9288 50.0406 16.5771 52.8575 18.8488L55.067 16.109C51.8644 13.5262 48.2176 11.6894 44.3449 10.4457L43.2687 13.7968ZM31.2444 11.9785C35.466 11.9785 39.5057 12.5278 43.2444 13.7888L44.3692 10.4537C40.1971 9.0465 35.7657 8.45876 31.2444 8.45876V11.9785ZM15.1162 15.3344C19.7898 12.8734 25.3719 11.9785 31.2444 11.9785V8.45876C25.0606 8.45876 18.8442 9.39352 13.4763 12.2201L15.1162 15.3344ZM8.52782 21.1907C10.2136 18.5417 12.5603 16.6507 15.1019 15.3419L13.4906 12.2127C10.5085 13.7483 7.64175 16.0272 5.55839 19.3011L8.52782 21.1907ZM6.0946 29.8438C6.0946 26.8804 6.81063 23.8892 8.52782 21.1907L5.55839 19.3011C3.43288 22.6412 2.5749 26.3084 2.5749 29.8438H6.0946ZM8.33175 38.0662C6.75155 35.4804 6.0946 32.6425 6.0946 29.8438H2.5749C2.5749 33.1975 3.3653 36.6891 5.32846 39.9015L8.33175 38.0662ZM13.2276 43.3048C11.2378 41.9002 9.59455 40.1326 8.33175 38.0662L5.32846 39.9015C6.83791 42.3715 8.81044 44.495 11.1978 46.1802L13.2276 43.3048ZM17.241 46.1378L13.2276 43.3048L11.1978 46.1802L15.2113 49.0133L17.241 46.1378ZM10.9073 54.439L17.3699 48.9131L15.0825 46.238L8.61993 51.7639L10.9073 54.439ZM6.23062 60.0813C7.4479 58.0085 8.96846 56.0542 10.89 54.4537L8.63729 51.7493C6.3355 53.6666 4.56811 55.9618 3.1956 58.2989L6.23062 60.0813ZM3.75985 69.6279C3.75985 66.419 4.41841 63.0977 6.22162 60.0964L3.2046 58.2837C0.995959 61.9598 0.240152 65.9474 0.240152 69.6279H3.75985ZM11.75 85.2197C6.56461 81.6843 3.75985 75.942 3.75985 69.6279H0.240152C0.240152 77.0091 3.54298 83.884 9.76721 88.1278L11.75 85.2197ZM14.3002 86.9585L11.75 85.2197L9.76721 88.1278L12.3174 89.8666L14.3002 86.9585ZM48.8016 86.6527H13.3088V90.1724H48.8016V86.6527ZM58.3639 83.0216C55.5642 85.6463 52.105 86.6527 48.8016 86.6527V90.1724C52.8167 90.1724 57.1971 88.9401 60.7712 85.5893L58.3639 83.0216ZM58.4816 82.9113L58.3639 83.0216L60.7712 85.5893L60.8889 85.4789L58.4816 82.9113ZM58.555 82.8366L58.4409 82.9507L60.9297 85.4395L61.0438 85.3254L58.555 82.8366ZM60.6447 80.0505C60.1111 81.0216 59.4283 81.9633 58.555 82.8366L61.0438 85.3254C62.1668 84.2024 63.046 82.9893 63.7294 81.7454L60.6447 80.0505ZM72.3992 85.519C69.0368 84.078 66.0254 82.0996 63.3947 79.6178L60.9794 82.1781C63.9113 84.9439 67.2712 87.1506 71.0127 88.7541L72.3992 85.519ZM72.4325 85.5333L72.3991 85.519L71.0128 88.7542L71.0462 88.7685L72.4325 85.5333ZM72.4544 85.5425L72.4209 85.5284L71.0578 88.7734L71.0913 88.7875L72.4544 85.5425ZM85.827 88.1469C81.1542 88.1469 76.6642 87.3106 72.4543 85.5424L71.0914 88.7875C75.7696 90.7524 80.7278 91.6666 85.827 91.6666V88.1469ZM99.0367 85.5324C94.8813 87.308 90.4443 88.1469 85.827 88.1469V91.6666C90.8773 91.6666 95.7899 90.7473 100.42 88.769L99.0367 85.5324ZM109.96 77.6773C106.946 81.1204 103.275 83.747 99.045 85.5289L100.411 88.7725C105.123 86.7877 109.236 83.8487 112.608 79.9955L109.96 77.6773ZM113.022 73.5565C112.11 75.0107 111.092 76.3868 109.961 77.6757L112.607 79.9971C113.867 78.5611 114.997 77.033 116.004 75.4259L113.022 73.5565ZM117.998 74.6038C117.135 74.1531 116.323 73.6418 115.561 73.0773L113.465 75.9052C114.372 76.5772 115.34 77.1868 116.37 77.7243L117.998 74.6038ZM120.174 75.7386L117.998 74.6038L116.37 77.7243L118.545 78.8591L120.174 75.7386ZM135.742 75.539H119.359V79.0587H135.742V75.539ZM138.235 79.3198C137.894 78.5254 137.642 77.7147 137.458 76.9078L134.026 77.6899C134.252 78.6773 134.565 79.6933 134.999 80.7063L138.235 79.3198ZM142.551 84.795C140.527 83.3224 139.122 81.3897 138.235 79.3198L134.999 80.7063C136.105 83.2861 137.883 85.752 140.481 87.6415L142.551 84.795ZM142.959 85.0917L142.551 84.7951L140.481 87.6415L140.889 87.9382L142.959 85.0917ZM143.247 85.2489L142.811 84.9948L141.038 88.0351L141.473 88.2892L143.247 85.2489ZM149.146 87.1563C147.216 86.9292 145.172 86.3721 143.247 85.2489L141.473 88.2892C143.902 89.706 146.434 90.3811 148.735 90.6519L149.146 87.1563ZM153.752 87.3995C152.146 87.3995 150.6 87.3272 149.146 87.1563L148.735 90.6519C150.357 90.8426 152.045 90.9192 153.752 90.9192V87.3995ZM158.928 86.9325C157.201 87.2347 155.472 87.3995 153.752 87.3995V90.9192C155.697 90.9192 157.63 90.7329 159.535 90.3995L158.928 86.9325ZM162.232 86.426C161.404 86.5765 160.301 86.7426 158.992 86.9226L159.471 90.4095C160.794 90.2276 161.957 90.0533 162.861 89.8889L162.232 86.426ZM170.448 84.9322L162.231 86.426L162.861 89.8889L171.077 88.3951L170.448 84.9322ZM169.003 77.8807V86.6636H172.522V77.8807H169.003ZM177.103 81.845C175.221 80.3881 173.57 78.7153 172.177 76.8336L169.348 78.9278C170.941 81.0794 172.822 82.9816 174.949 84.6281L177.103 81.845ZM177.164 81.8918L177.103 81.845L174.949 84.6282L175.009 84.6751L177.164 81.8918ZM177.204 81.9215L177.142 81.8755L175.031 84.6914L175.092 84.7373L177.204 81.9215ZM187.054 86.7022C183.454 85.6622 180.119 84.1078 177.204 81.9215L175.092 84.7373C178.401 87.219 182.136 88.9453 186.077 90.0837L187.054 86.7022ZM198.775 88.2403C194.66 88.2403 190.728 87.7636 187.054 86.7022L186.077 90.0837C190.123 91.2526 194.392 91.76 198.775 91.76V88.2403ZM210.496 86.7022C206.822 87.7636 202.889 88.2403 198.775 88.2403V91.76C203.157 91.76 207.426 91.2526 211.473 90.0837L210.496 86.7022ZM220.346 81.9215C217.431 84.1077 214.096 85.6622 210.496 86.7022L211.473 90.0837C215.413 88.9453 219.149 87.219 222.458 84.7373L220.346 81.9215ZM220.384 81.8931L220.345 81.9225L222.459 84.7364L222.498 84.707L220.384 81.8931ZM223.506 82.9899C223.26 82.7253 223.025 82.4562 222.801 82.1829L220.081 84.4172C220.351 84.7457 220.633 85.0684 220.927 85.3848L223.506 82.9899ZM236.179 88.2399C231.525 88.2399 226.961 86.7112 223.506 82.9899L220.927 85.3849C225.171 89.9555 230.743 91.7596 236.179 91.7596V88.2399ZM247.528 84.2665C244.28 87.0586 240.268 88.2399 236.179 88.2399V91.7596C240.946 91.7596 245.822 90.3747 249.822 86.9353L247.528 84.2665ZM249.936 84.3494C249.875 84.3036 249.814 84.2574 249.754 84.2108L247.596 86.9909C247.671 87.0495 247.747 87.1076 247.824 87.1652L249.936 84.3494ZM256.159 86.9939C254.018 86.6161 251.865 85.7959 249.936 84.3494L247.824 87.1652C250.258 88.9905 252.946 90.0009 255.547 90.46L256.159 86.9939ZM256.206 87.0021L256.159 86.9939L255.547 90.46L255.594 90.4683L256.206 87.0021ZM256.236 87.0071L256.189 86.9993L255.611 90.4712L255.658 90.479L256.236 87.0071ZM261.328 87.3995C259.593 87.3995 257.885 87.2819 256.236 87.0072L255.658 90.479C257.532 90.7913 259.437 90.9192 261.328 90.9192V87.3995ZM266.621 86.9296C264.877 87.2451 263.11 87.3995 261.328 87.3995V90.9192C263.314 90.9192 265.291 90.747 267.248 90.3931L266.621 86.9296ZM269.9 86.426C269.08 86.5752 267.989 86.7397 266.694 86.9179L267.174 90.4047C268.483 90.2246 269.634 90.0519 270.53 89.8889L269.9 86.426ZM276.436 85.2377L269.9 86.426L270.53 89.8889L277.066 88.7006L276.436 85.2377ZM282.143 86.9934C280.602 86.7216 279.056 86.2206 277.593 85.4237L275.909 88.5146C277.745 89.5144 279.66 90.1294 281.531 90.4595L282.143 86.9934ZM282.19 87.0017L282.143 86.9934L281.531 90.4595L281.578 90.4678L282.19 87.0017ZM282.22 87.0067L282.173 86.9988L281.595 90.4707L281.642 90.4785L282.22 87.0067ZM287.311 87.3991C285.576 87.3991 283.869 87.2815 282.22 87.0067L281.641 90.4785C283.516 90.7908 285.421 90.9188 287.311 90.9188V87.3991ZM292.556 87.0404C290.841 87.2838 289.09 87.3991 287.311 87.3991V90.9188C289.242 90.9188 291.159 90.7936 293.05 90.5252L292.556 87.0404ZM296.778 86.2108C295.51 86.5914 293.986 86.8447 292.564 87.0392L293.041 90.5264C294.495 90.3276 296.245 90.0455 297.79 89.582L296.778 86.2108ZM303.35 84.2392L296.778 86.2108L297.79 89.582L304.362 87.6104L303.35 84.2392ZM310.907 86.9934C308.84 86.6287 306.762 85.8518 304.886 84.4978L302.826 87.3518C305.193 89.0598 307.784 90.0164 310.295 90.4595L310.907 86.9934ZM310.953 87.0017L310.907 86.9934L310.295 90.4596L310.342 90.4679L310.953 87.0017ZM310.984 87.0067L310.937 86.9988L310.359 90.4707L310.406 90.4785L310.984 87.0067ZM316.075 87.3991C314.34 87.3991 312.633 87.2815 310.984 87.0067L310.405 90.4785C312.28 90.7908 314.185 90.9188 316.075 90.9188V87.3991ZM321.32 87.0404C319.605 87.2838 317.854 87.3991 316.075 87.3991V90.9188C318.006 90.9188 319.923 90.7936 321.814 90.5252L321.32 87.0404ZM325.543 86.2108C324.274 86.5914 322.75 86.8447 321.328 87.0392L321.805 90.5264C323.259 90.3276 325.009 90.0455 326.554 89.582L325.543 86.2108ZM330.115 84.8391L325.543 86.2108L326.554 89.582L331.126 88.2103L330.115 84.8391ZM336.776 86.9936C334.996 86.6794 333.208 86.0594 331.549 85.0295L329.692 88.0199C331.78 89.316 334.002 90.0782 336.164 90.4597L336.776 86.9936ZM336.823 87.0018L336.776 86.9935L336.165 90.4598L336.212 90.468L336.823 87.0018ZM336.854 87.0069L336.807 86.999L336.228 90.4708L336.275 90.4786L336.854 87.0069ZM341.945 87.3992C340.21 87.3992 338.502 87.2816 336.854 87.0068L336.275 90.4786C338.149 90.791 340.054 90.9189 341.945 90.9189V87.3992ZM347.238 86.9292C345.494 87.2448 343.727 87.3992 341.945 87.3992V90.9189C343.931 90.9189 345.908 90.7467 347.865 90.3927L347.238 86.9292ZM350.518 86.4257C349.697 86.5749 348.606 86.7394 347.312 86.9176L347.792 90.4044C349.1 90.2243 350.251 90.0516 351.147 89.8886L350.518 86.4257ZM358.387 84.9949L350.518 86.4257L351.147 89.8886L359.017 88.4578L358.387 84.9949ZM368.654 87.4926C365.493 87.4926 362.394 86.7748 359.561 85.1904L357.843 88.2623C361.251 90.1685 364.952 91.0123 368.654 91.0123V87.4926ZM380.848 82.4352C377.494 86.195 372.943 87.4926 368.654 87.4926V91.0123C373.623 91.0123 379.265 89.4976 383.475 84.778L380.848 82.4352ZM385.539 71.0599C385.116 75.0447 383.829 79.1557 380.859 82.4229L383.464 84.7903C387.1 80.7894 388.567 75.874 389.039 71.4323L385.539 71.0599ZM386.045 66.3063L385.539 71.0599L389.039 71.4322L389.545 66.6787L386.045 66.3063ZM375.84 57.0259L386.551 67.7369L389.04 65.2481L378.329 54.5371L375.84 57.0259ZM376.323 54.1104L375.928 54.455L378.241 57.108L378.636 56.7633L376.323 54.1104ZM376.793 53.6998C376.64 53.8333 376.483 53.9704 376.322 54.111L378.637 56.7627C378.799 56.6213 378.957 56.4832 379.111 56.3486L376.793 53.6998ZM376.807 53.6871L376.792 53.7007L379.112 56.3476L379.127 56.334L376.807 53.6871ZM376.819 53.677L376.803 53.6908L379.131 56.3303L379.147 56.3165L376.819 53.677ZM380.287 50.0786C379.273 51.3666 378.078 52.5655 376.818 53.6772L379.147 56.3164C380.513 55.1109 381.87 53.7579 383.053 52.2548L380.287 50.0786ZM382.99 45.7158C382.301 47.3701 381.338 48.8105 380.315 50.0431L383.024 52.2904C384.209 50.8626 385.383 49.1251 386.239 47.0696L382.99 45.7158ZM383.043 45.5884L382.99 45.716L386.239 47.0694L386.292 46.9418L383.043 45.5884ZM383.075 45.5042L383.025 45.6332L386.31 46.8971L386.36 46.7681L383.075 45.5042ZM384.091 39.9293C384.091 41.7971 383.777 43.68 383.075 45.5044L386.36 46.7679C387.228 44.51 387.611 42.1954 387.611 39.9293H384.091ZM377.725 27.8568C381.532 30.6154 384.091 34.7604 384.091 39.9293H387.611C387.611 33.471 384.372 28.3267 379.791 25.0067L377.725 27.8568ZM365.105 24.1185C369.486 24.1185 373.956 25.0832 377.715 27.8492L379.801 25.0143C375.257 21.6707 369.976 20.5988 365.105 20.5988V24.1185ZM360.893 24.1185H365.105V20.5988H360.893V24.1185ZM360.307 25.4764L362.152 23.5887L359.635 21.1286L357.79 23.0163L360.307 25.4764ZM357.289 24.1464V24.2464H360.808V24.1464H357.289ZM356.009 17.2511C357.025 19.5932 357.289 22.0438 357.289 24.1464H360.808C360.808 21.7778 360.516 18.7967 359.237 15.8499L356.009 17.2511ZM351.655 11.4791C353.73 13.0349 355.129 15.0601 355.99 17.2054L359.257 15.8956C358.189 13.2335 356.423 10.6554 353.767 8.66335L351.655 11.4791ZM345.307 8.82898C347.439 9.1902 349.661 9.98316 351.655 11.4791L353.767 8.66336C351.237 6.76564 348.461 5.79356 345.895 5.35875L345.307 8.82898ZM340.264 8.42903C341.976 8.42903 343.671 8.54342 345.298 8.82749L345.903 5.36024C344.031 5.03338 342.127 4.90933 340.264 4.90933V8.42903ZM334.866 8.90234C336.653 8.58828 338.454 8.42903 340.264 8.42903V4.90933C338.247 4.90933 336.242 5.0869 334.256 5.43575L334.866 8.90234ZM330.996 9.65349C332.131 9.34417 333.462 9.10733 334.814 8.91056L334.308 5.42754C332.906 5.63151 331.41 5.89253 330.07 6.25782L330.996 9.65349ZM323.623 11.6644L330.996 9.65349L330.07 6.25782L322.697 8.26872L323.623 11.6644ZM324.92 28.0252V9.96656H321.4V28.0252H324.92ZM301.226 23.3712C309.078 23.3712 316.382 25.0381 322.088 29.4209L324.232 26.6295C317.696 21.6089 309.529 19.8515 301.226 19.8515V23.3712ZM288.201 25.0951C292.291 23.9152 296.654 23.3712 301.226 23.3712V19.8515C296.377 19.8515 291.68 20.4284 287.225 21.7133L288.201 25.0951ZM288.176 25.1023L288.201 25.0951L287.225 21.7134L287.2 21.7206L288.176 25.1023ZM288.16 25.1072L288.185 25.0998L287.192 21.7231L287.167 21.7305L288.16 25.1072ZM278.608 29.3698C281.448 27.5133 284.683 26.1297 288.16 25.1072L287.167 21.7305C283.44 22.8265 279.873 24.3379 276.682 26.4238L278.608 29.3698ZM277.419 20.4111C277.419 22.8093 276.952 25.0957 276.033 27.1902L279.257 28.6035C280.38 26.0413 280.938 23.271 280.938 20.4111H277.419ZM272.637 8.66538C275.817 11.8773 277.419 15.9676 277.419 20.4111H280.938C280.938 15.0766 278.996 10.0854 275.138 6.18897L272.637 8.66538ZM260.487 3.75985C264.92 3.75985 269.268 5.1994 272.626 8.65384L275.149 6.20052C271.015 1.94784 265.695 0.240152 260.487 0.240152V3.75985ZM248.306 8.60323C251.693 5.21577 256.021 3.75985 260.487 3.75985V0.240152C255.236 0.240152 249.963 1.96854 245.817 6.11443L248.306 8.60323ZM43.5491 57.6485C43.6354 57.5796 43.7212 57.5106 43.8066 57.4416L41.5939 54.7044C41.5141 54.7689 41.4339 54.8334 41.3532 54.8978L43.5491 57.6485ZM43.5491 57.6485C43.6354 57.5796 43.7212 57.5106 43.8066 57.4416L41.5939 54.7044C41.5141 54.7689 41.4339 54.8333 41.3532 54.8978L43.5491 57.6485ZM368.964 51.9076C370.336 50.723 371.522 49.6931 372.521 48.8183L370.204 46.1694C369.211 47.0379 368.031 48.0625 366.663 49.2439L368.964 51.9076ZM368.964 51.9076C369.753 51.2262 370.48 50.5961 371.146 50.0173L368.837 47.3609C368.175 47.9369 367.45 48.5645 366.663 49.2438L368.964 51.9076ZM371.146 50.0173C371.638 49.5897 372.097 49.19 372.521 48.8183L370.204 46.1695C369.782 46.5383 369.327 46.9355 368.837 47.3609L371.146 50.0173ZM199.73 60.667C199.754 60.7001 199.777 60.7339 199.8 60.7685L202.741 58.8351C202.692 58.7596 202.641 58.6852 202.588 58.6121L199.73 60.667ZM202.679 58.7448C202.663 58.721 202.645 58.6946 202.632 58.6751C202.625 58.6652 202.62 58.6581 202.617 58.6543C202.615 58.6514 202.617 58.6536 202.62 58.6576C202.62 58.6588 202.623 58.6621 202.626 58.6666C202.627 58.6688 202.63 58.6728 202.633 58.678C202.635 58.6812 202.643 58.6937 202.653 58.7099C202.658 58.7165 202.67 58.7369 202.685 58.7636C202.693 58.7759 202.709 58.8045 202.728 58.8418C202.737 58.8607 202.759 58.9071 202.772 58.9348C202.79 58.9782 202.834 59.0997 202.857 59.1787C202.895 59.349 202.88 60.0084 202.712 60.4662C202.089 61.1334 200.783 61.3584 200.374 61.2144C200.235 61.1372 200.043 61.0003 199.985 60.9502C199.952 60.92 199.899 60.8683 199.879 60.8473C199.842 60.8076 199.814 60.7749 199.805 60.7631C199.792 60.7475 199.781 60.7346 199.775 60.727C199.756 60.7016 199.741 60.6809 199.739 60.679C199.734 60.6724 199.73 60.6672 199.729 60.6647L202.59 58.6145C202.588 58.6118 202.584 58.6064 202.579 58.5997C202.577 58.5976 202.562 58.5769 202.542 58.5515C202.536 58.5439 202.526 58.531 202.513 58.5153C202.503 58.5035 202.476 58.4708 202.439 58.4311C202.418 58.4101 202.366 58.3584 202.333 58.3282C202.274 58.2781 202.083 58.1412 201.944 58.064C201.535 57.92 200.229 58.145 199.605 58.8122C199.438 59.27 199.423 59.9294 199.46 60.0997C199.484 60.1787 199.528 60.3002 199.546 60.3436C199.559 60.3713 199.581 60.4178 199.59 60.4366C199.609 60.474 199.625 60.5026 199.632 60.5148C199.648 60.5415 199.66 60.562 199.664 60.5686C199.675 60.5849 199.683 60.5976 199.685 60.6009C199.688 60.6061 199.691 60.6104 199.693 60.6127C199.696 60.6175 199.699 60.6214 199.7 60.6232C199.704 60.6296 199.708 60.6359 199.71 60.6385C199.715 60.6459 199.722 60.6558 199.729 60.6662C199.744 60.6875 199.763 60.7153 199.78 60.7402L202.679 58.7448ZM199.8 60.7677C199.798 60.7656 199.79 60.7528 199.78 60.7363C199.777 60.732 199.76 60.7051 199.74 60.6701C199.735 60.6614 199.702 60.603 199.667 60.5253C199.658 60.5068 199.597 60.3744 199.556 60.1951C199.533 60.077 199.513 59.7268 199.538 59.4974C199.68 59.0491 200.422 58.2607 201.014 58.0612C201.399 58.047 201.954 58.1802 202.122 58.262C202.21 58.3137 202.344 58.4075 202.393 58.4462C202.478 58.5165 202.537 58.5793 202.554 58.5975C202.598 58.645 202.631 58.6847 202.638 58.6938C202.66 58.7211 202.677 58.7432 202.68 58.7477C202.691 58.7623 202.699 58.7738 202.701 58.776C202.706 58.7833 202.71 58.7889 202.71 58.7896C202.712 58.7914 202.712 58.7926 202.713 58.7929C202.713 58.7934 202.712 58.7916 202.708 58.7862C202.701 58.7766 202.691 58.7618 202.68 58.745L199.78 60.74C199.792 60.7576 199.804 60.7745 199.812 60.787C199.816 60.7926 199.821 60.7995 199.825 60.8053C199.826 60.8069 199.828 60.8093 199.83 60.812C199.831 60.8136 199.835 60.8199 199.841 60.8277C199.843 60.8301 199.851 60.8418 199.862 60.8565C199.865 60.8611 199.882 60.8832 199.904 60.9106C199.911 60.9197 199.944 60.9594 199.988 61.0068C200.005 61.0251 200.064 61.0879 200.149 61.1582C200.198 61.1969 200.332 61.2907 200.42 61.3424C200.588 61.4242 201.143 61.5574 201.528 61.5432C202.12 61.3437 202.862 60.5553 203.004 60.107C203.029 59.8776 203.009 59.5275 202.986 59.4093C202.945 59.23 202.884 59.0976 202.875 59.0791C202.84 59.0013 202.807 58.943 202.802 58.9343C202.782 58.8992 202.765 58.8723 202.762 58.8679C202.752 58.8512 202.743 58.8383 202.742 58.836L199.8 60.7677Z" fill="#248296" mask="url(#path-1-outside-1_228_966)"/>
    <g filter="url(#filter0_ii_228_966)">
    <path d="M376.221 69.8808C375.91 72.807 375.038 75.0483 373.606 76.6048C372.237 78.1613 370.213 78.9396 367.536 78.9396C365.544 78.9396 363.769 78.4726 362.213 77.5387C360.656 76.5426 358.975 74.8927 357.17 72.5891L347.924 61.0087V78.0057C347.239 78.1302 346.212 78.2858 344.842 78.4726C343.535 78.7217 342.196 78.8462 340.826 78.8462C339.457 78.8462 338.212 78.7528 337.091 78.566C336.032 78.3792 335.13 78.0057 334.383 77.4453C333.635 76.885 333.044 76.1379 332.608 75.204C332.235 74.2078 332.048 72.9315 332.048 71.375V17.3023C332.733 17.1155 333.729 16.9287 335.036 16.742C336.406 16.4929 337.776 16.3684 339.145 16.3684C340.515 16.3684 341.729 16.4618 342.788 16.6486C343.908 16.8354 344.842 17.2089 345.589 17.7693C346.336 18.3296 346.897 19.1078 347.27 20.104C347.706 21.0379 347.924 22.2831 347.924 23.8396V48.4945L363.987 32.0579C367.225 32.0579 369.808 32.7739 371.739 34.2059C373.731 35.6378 374.727 37.4434 374.727 39.6225C374.727 40.5564 374.571 41.428 374.26 42.2374C373.949 42.9845 373.451 43.7628 372.766 44.5721C372.143 45.3815 371.303 46.2531 370.244 47.187C369.248 48.0587 368.065 49.086 366.695 50.2689L361.279 54.9384L376.221 69.8808Z" fill="#1A99B7"/>
    </g>
    <g filter="url(#filter1_ii_228_966)">
    <path d="M306.178 49.3348C306.178 47.4047 305.618 46.0039 304.497 45.1322C303.439 44.1983 301.976 43.7314 300.108 43.7314C298.863 43.7314 297.617 43.887 296.372 44.1983C295.189 44.5096 294.162 44.9766 293.29 45.5992V78.0055C292.668 78.1922 291.672 78.379 290.302 78.5658C288.994 78.7526 287.625 78.846 286.193 78.846C284.823 78.846 283.578 78.7526 282.457 78.5658C281.399 78.379 280.496 78.0055 279.749 77.4451C279.002 76.8848 278.41 76.1377 277.974 75.2038C277.601 74.2076 277.414 72.9313 277.414 71.3748V43.3578C277.414 41.6768 277.756 40.3071 278.441 39.2487C279.188 38.1903 280.185 37.2252 281.43 36.3536C283.547 34.8594 286.193 33.6453 289.368 32.7114C292.605 31.7775 296.185 31.3105 300.108 31.3105C307.143 31.3105 312.56 32.867 316.358 35.98C320.155 39.0308 322.054 43.2956 322.054 48.7744V78.0055C321.432 78.1922 320.436 78.379 319.066 78.5658C317.758 78.7526 316.389 78.846 314.957 78.846C313.587 78.846 312.342 78.7526 311.221 78.5658C310.163 78.379 309.26 78.0055 308.513 77.4451C307.766 76.8848 307.174 76.1377 306.738 75.2038C306.365 74.2076 306.178 72.9313 306.178 71.3748V49.3348Z" fill="#1A99B7"/>
    </g>
    <g filter="url(#filter2_ii_228_966)">
    <path d="M250.684 20.1043C250.684 17.7384 251.462 15.7461 253.018 14.1274C254.637 12.5086 256.754 11.6992 259.369 11.6992C261.984 11.6992 264.069 12.5086 265.626 14.1274C267.245 15.7461 268.054 17.7384 268.054 20.1043C268.054 22.4702 267.245 24.4625 265.626 26.0812C264.069 27.7 261.984 28.5094 259.369 28.5094C256.754 28.5094 254.637 27.7 253.018 26.0812C251.462 24.4625 250.684 22.4702 250.684 20.1043ZM267.307 78.006C266.622 78.1305 265.595 78.2862 264.225 78.4729C262.918 78.722 261.579 78.8465 260.209 78.8465C258.84 78.8465 257.594 78.7531 256.474 78.5663C255.415 78.3795 254.513 78.006 253.765 77.4456C253.018 76.8853 252.427 76.1382 251.991 75.2043C251.617 74.2081 251.431 72.9318 251.431 71.3753V33.3657C252.116 33.2411 253.112 33.0855 254.419 32.8987C255.789 32.6497 257.159 32.5251 258.528 32.5251C259.898 32.5251 261.112 32.6185 262.171 32.8053C263.291 32.9921 264.225 33.3657 264.972 33.926C265.719 34.4863 266.28 35.2646 266.653 36.2607C267.089 37.1946 267.307 38.4398 267.307 39.9963V78.006Z" fill="#1A99B7"/>
    </g>
    <g filter="url(#filter3_ii_228_966)">
    <path d="M226.002 70.5348C226.002 67.9199 226.811 65.7408 228.43 63.9975C230.049 62.2542 232.259 61.3826 235.061 61.3826C237.862 61.3826 240.073 62.2542 241.691 63.9975C243.31 65.7408 244.12 67.9199 244.12 70.5348C244.12 73.1497 243.31 75.3288 241.691 77.0721C240.073 78.8153 237.862 79.687 235.061 79.687C232.259 79.687 230.049 78.8153 228.43 77.0721C226.811 75.3288 226.002 73.1497 226.002 70.5348Z" fill="#1A99B7"/>
    </g>
    <g filter="url(#filter4_ii_228_966)">
    <path d="M176.177 36.6341C176.177 34.1437 176.706 31.8713 177.764 29.8167C178.823 27.7621 180.286 25.9877 182.154 24.4935C184.021 22.9992 186.263 21.8474 188.878 21.038C191.493 20.2287 194.356 19.824 197.469 19.824C200.582 19.824 203.446 20.1975 206.061 20.9446C208.676 21.6918 210.918 22.7502 212.785 24.1199C214.653 25.4896 216.116 27.1706 217.175 29.163C218.233 31.1553 218.762 33.3966 218.762 35.887C218.762 38.6265 218.202 41.0235 217.081 43.078C215.961 45.1326 214.404 46.8448 212.412 48.2145C214.778 49.8332 216.708 51.7633 218.202 54.0046C219.696 56.1837 220.443 59.1411 220.443 62.8767C220.443 65.3671 219.914 67.6396 218.856 69.6941C217.797 71.7487 216.272 73.5231 214.28 75.0174C212.287 76.5116 209.89 77.6634 207.089 78.4728C204.287 79.2822 201.143 79.6868 197.656 79.6868C194.17 79.6868 191.026 79.2822 188.224 78.4728C185.422 77.6634 183.025 76.5116 181.033 75.0174C179.103 73.5231 177.577 71.7487 176.457 69.6941C175.398 67.6396 174.869 65.3671 174.869 62.8767C174.869 59.5146 175.585 56.7129 177.017 54.4716C178.511 52.2302 180.255 50.487 182.247 49.2418C180.566 47.872 179.134 46.2533 177.951 44.3855C176.768 42.4554 176.177 39.8717 176.177 36.6341ZM190.839 61.4758C190.839 63.4059 191.461 64.9313 192.707 66.0519C194.014 67.1726 195.664 67.7329 197.656 67.7329C199.649 67.7329 201.267 67.1726 202.513 66.0519C203.82 64.869 204.474 63.3436 204.474 61.4758C204.474 59.6703 203.913 58.1761 202.793 56.9931C201.734 55.7479 200.271 54.7829 198.403 54.098C195.664 54.7206 193.703 55.6857 192.52 56.9931C191.399 58.2383 190.839 59.7326 190.839 61.4758ZM203.166 37.1945C203.166 35.5135 202.668 34.1749 201.672 33.1787C200.676 32.1826 199.275 31.6845 197.469 31.6845C195.664 31.6845 194.263 32.1826 193.267 33.1787C192.271 34.1749 191.773 35.4823 191.773 37.1011C191.773 38.7198 192.271 40.0273 193.267 41.0235C194.325 42.0196 195.539 42.829 196.909 43.4516C199.088 42.9535 200.676 42.1441 201.672 41.0235C202.668 39.9028 203.166 38.6265 203.166 37.1945Z" fill="#1A99B7"/>
    </g>
    <g filter="url(#filter5_ii_228_966)">
    <path d="M140.213 21.9718C141.396 21.5982 142.735 21.2869 144.229 21.0379C145.785 20.7888 147.186 20.6643 148.431 20.6643C149.863 20.6643 151.233 20.82 152.541 21.1313C153.91 21.3803 155.124 21.8472 156.183 22.5321C157.241 23.1547 158.082 24.0263 158.704 25.147C159.327 26.2677 159.638 27.6685 159.638 29.3496V54.1912H167.95C168.323 54.8761 168.697 55.7789 169.071 56.8996C169.444 58.0202 169.631 59.2032 169.631 60.4484C169.631 62.8142 169.102 64.4953 168.043 65.4914C166.985 66.4876 165.646 66.9856 164.028 66.9856H159.638V78.0057C158.953 78.1302 157.926 78.2858 156.556 78.4726C155.187 78.7216 153.879 78.8462 152.634 78.8462C151.264 78.8462 150.05 78.7839 148.992 78.6594C147.933 78.5349 147.031 78.2547 146.283 77.8189C145.599 77.3208 145.069 76.6359 144.696 75.7643C144.322 74.8927 144.136 73.7097 144.136 72.2155V66.9856H120.695C119.263 66.2385 118.017 65.149 116.959 63.717C115.963 62.2228 115.465 60.4172 115.465 58.3004C115.465 57.1175 115.62 55.81 115.932 54.378C116.243 52.946 116.772 51.7009 117.519 50.6424L140.213 21.9718ZM144.976 36.634H144.696L132.275 54.1912H144.976V36.634Z" fill="#1A99B7"/>
    </g>
    <g filter="url(#filter6_ii_228_966)">
    <path d="M93.7679 49.7093C93.7679 44.2304 92.9586 39.9968 91.3398 37.0083C89.7833 34.0198 87.542 32.5256 84.6157 32.5256C81.6895 32.5256 79.4482 34.0198 77.8917 37.0083C76.3974 39.9968 75.6503 44.2304 75.6503 49.7093C75.6503 55.1882 76.3974 59.453 77.8917 62.5037C79.4482 65.4922 81.6895 66.9864 84.6157 66.9864C87.542 66.9864 89.7833 65.4922 91.3398 62.5037C92.9586 59.453 93.7679 55.1882 93.7679 49.7093ZM109.738 49.7093C109.738 54.5033 109.115 58.7681 107.87 62.5037C106.625 66.2393 104.881 69.3834 102.64 71.9361C100.461 74.4265 97.8148 76.3254 94.7018 77.6329C91.6511 78.9403 88.3202 79.5941 84.7091 79.5941C81.0358 79.5941 77.6426 78.9403 74.5296 77.6329C71.4789 76.3254 68.8329 74.4265 66.5915 71.9361C64.4124 69.3834 62.7003 66.2393 61.4551 62.5037C60.2721 58.7681 59.6807 54.5033 59.6807 49.7093C59.6807 44.9153 60.2721 40.6816 61.4551 37.0083C62.7003 33.2727 64.4124 30.1597 66.5915 27.6693C68.8329 25.1167 71.4789 23.1866 74.5296 21.8792C77.6426 20.5717 81.0358 19.918 84.7091 19.918C88.3202 19.918 91.6511 20.5717 94.7018 21.8792C97.8148 23.1866 100.461 25.1167 102.64 27.6693C104.881 30.1597 106.625 33.2727 107.87 37.0083C109.115 40.6816 109.738 44.9153 109.738 49.7093Z" fill="#1A99B7"/>
    </g>
    <g filter="url(#filter7_ii_228_966)">
    <path d="M30.126 19.918C33.6748 19.918 36.8189 20.3849 39.5584 21.3188C42.2978 22.1905 44.6326 23.4045 46.5626 24.961C48.4927 26.5175 49.9558 28.3542 50.9519 30.471C51.9481 32.5879 52.4462 34.8603 52.4462 37.2885C52.4462 43.8258 48.7417 50.0517 41.3328 55.9664L29.0987 65.7724H51.5123C51.8858 66.4572 52.2283 67.3289 52.5396 68.3873C52.9131 69.4457 53.0999 70.5975 53.0999 71.8427C53.0999 74.0841 52.6018 75.7028 51.6057 76.699C50.6095 77.6329 49.302 78.0998 47.6833 78.0998H15.277C13.9073 77.1659 12.8178 75.983 12.0084 74.551C11.2613 73.0568 10.8877 71.3135 10.8877 69.3212C10.8877 67.2043 11.3235 65.4299 12.1952 63.998C13.0668 62.5037 14.0318 61.3208 15.0902 60.4491L27.978 49.4291C29.5968 48.0594 30.9354 46.8454 31.9938 45.7869C33.0522 44.6663 33.8927 43.6701 34.5153 42.7985C35.2002 41.9268 35.6671 41.1175 35.9162 40.3703C36.2275 39.6232 36.3831 38.9072 36.3831 38.2224C36.3831 36.4791 35.6049 35.1094 34.0484 34.1132C32.5541 33.1171 30.6863 32.619 28.445 32.619C25.9546 32.619 23.7132 33.0237 21.7209 33.833C19.7909 34.5802 18.1721 35.3895 16.8646 36.2612C15.8062 35.5141 14.9346 34.5802 14.2497 33.4595C13.5649 32.3388 13.2224 31.0314 13.2224 29.5371C13.2224 26.2996 14.7478 23.9026 17.7985 22.3461C20.8493 20.7273 24.9584 19.918 30.126 19.918Z" fill="#1A99B7"/>
    </g>
    <defs>
    <filter id="filter0_ii_228_966" x="332.048" y="14.6086" width="44.1738" height="66.091" filterUnits="userSpaceOnUse" color-interpolation-filters="sRGB">
    <feFlood flood-opacity="0" result="BackgroundImageFix"/>
    <feBlend mode="normal" in="SourceGraphic" in2="BackgroundImageFix" result="shape"/>
    <feColorMatrix in="SourceAlpha" type="matrix" values="0 0 0 0 0 0 0 0 0 0 0 0 0 0 0 0 0 0 127 0" result="hardAlpha"/>
    <feOffset dy="7.03939"/>
    <feGaussianBlur stdDeviation="0.879924"/>
    <feComposite in2="hardAlpha" operator="arithmetic" k2="-1" k3="1"/>
    <feColorMatrix type="matrix" values="0 0 0 0 1 0 0 0 0 1 0 0 0 0 1 0 0 0 0.17 0"/>
    <feBlend mode="normal" in2="shape" result="effect1_innerShadow_228_966"/>
    <feColorMatrix in="SourceAlpha" type="matrix" values="0 0 0 0 0 0 0 0 0 0 0 0 0 0 0 0 0 0 127 0" result="hardAlpha"/>
    <feOffset dy="-5.27954"/>
    <feGaussianBlur stdDeviation="0.879924"/>
    <feComposite in2="hardAlpha" operator="arithmetic" k2="-1" k3="1"/>
    <feColorMatrix type="matrix" values="0 0 0 0 0 0 0 0 0 0 0 0 0 0 0 0 0 0 0.21 0"/>
    <feBlend mode="normal" in2="effect1_innerShadow_228_966" result="effect2_innerShadow_228_966"/>
    </filter>
    <filter id="filter1_ii_228_966" x="277.414" y="29.5507" width="44.6406" height="51.0551" filterUnits="userSpaceOnUse" color-interpolation-filters="sRGB">
    <feFlood flood-opacity="0" result="BackgroundImageFix"/>
    <feBlend mode="normal" in="SourceGraphic" in2="BackgroundImageFix" result="shape"/>
    <feColorMatrix in="SourceAlpha" type="matrix" values="0 0 0 0 0 0 0 0 0 0 0 0 0 0 0 0 0 0 127 0" result="hardAlpha"/>
    <feOffset dy="7.03939"/>
    <feGaussianBlur stdDeviation="0.879924"/>
    <feComposite in2="hardAlpha" operator="arithmetic" k2="-1" k3="1"/>
    <feColorMatrix type="matrix" values="0 0 0 0 1 0 0 0 0 1 0 0 0 0 1 0 0 0 0.17 0"/>
    <feBlend mode="normal" in2="shape" result="effect1_innerShadow_228_966"/>
    <feColorMatrix in="SourceAlpha" type="matrix" values="0 0 0 0 0 0 0 0 0 0 0 0 0 0 0 0 0 0 127 0" result="hardAlpha"/>
    <feOffset dy="-5.27954"/>
    <feGaussianBlur stdDeviation="0.879924"/>
    <feComposite in2="hardAlpha" operator="arithmetic" k2="-1" k3="1"/>
    <feColorMatrix type="matrix" values="0 0 0 0 0 0 0 0 0 0 0 0 0 0 0 0 0 0 0.21 0"/>
    <feBlend mode="normal" in2="effect1_innerShadow_228_966" result="effect2_innerShadow_228_966"/>
    </filter>
    <filter id="filter2_ii_228_966" x="250.684" y="9.93937" width="17.3701" height="70.6669" filterUnits="userSpaceOnUse" color-interpolation-filters="sRGB">
    <feFlood flood-opacity="0" result="BackgroundImageFix"/>
    <feBlend mode="normal" in="SourceGraphic" in2="BackgroundImageFix" result="shape"/>
    <feColorMatrix in="SourceAlpha" type="matrix" values="0 0 0 0 0 0 0 0 0 0 0 0 0 0 0 0 0 0 127 0" result="hardAlpha"/>
    <feOffset dy="7.03939"/>
    <feGaussianBlur stdDeviation="0.879924"/>
    <feComposite in2="hardAlpha" operator="arithmetic" k2="-1" k3="1"/>
    <feColorMatrix type="matrix" values="0 0 0 0 1 0 0 0 0 1 0 0 0 0 1 0 0 0 0.17 0"/>
    <feBlend mode="normal" in2="shape" result="effect1_innerShadow_228_966"/>
    <feColorMatrix in="SourceAlpha" type="matrix" values="0 0 0 0 0 0 0 0 0 0 0 0 0 0 0 0 0 0 127 0" result="hardAlpha"/>
    <feOffset dy="-5.27954"/>
    <feGaussianBlur stdDeviation="0.879924"/>
    <feComposite in2="hardAlpha" operator="arithmetic" k2="-1" k3="1"/>
    <feColorMatrix type="matrix" values="0 0 0 0 0 0 0 0 0 0 0 0 0 0 0 0 0 0 0.21 0"/>
    <feBlend mode="normal" in2="effect1_innerShadow_228_966" result="effect2_innerShadow_228_966"/>
    </filter>
    <filter id="filter3_ii_228_966" x="226.002" y="59.6227" width="18.1172" height="21.8241" filterUnits="userSpaceOnUse" color-interpolation-filters="sRGB">
    <feFlood flood-opacity="0" result="BackgroundImageFix"/>
    <feBlend mode="normal" in="SourceGraphic" in2="BackgroundImageFix" result="shape"/>
    <feColorMatrix in="SourceAlpha" type="matrix" values="0 0 0 0 0 0 0 0 0 0 0 0 0 0 0 0 0 0 127 0" result="hardAlpha"/>
    <feOffset dy="7.03939"/>
    <feGaussianBlur stdDeviation="0.879924"/>
    <feComposite in2="hardAlpha" operator="arithmetic" k2="-1" k3="1"/>
    <feColorMatrix type="matrix" values="0 0 0 0 1 0 0 0 0 1 0 0 0 0 1 0 0 0 0.17 0"/>
    <feBlend mode="normal" in2="shape" result="effect1_innerShadow_228_966"/>
    <feColorMatrix in="SourceAlpha" type="matrix" values="0 0 0 0 0 0 0 0 0 0 0 0 0 0 0 0 0 0 127 0" result="hardAlpha"/>
    <feOffset dy="-5.27954"/>
    <feGaussianBlur stdDeviation="0.879924"/>
    <feComposite in2="hardAlpha" operator="arithmetic" k2="-1" k3="1"/>
    <feColorMatrix type="matrix" values="0 0 0 0 0 0 0 0 0 0 0 0 0 0 0 0 0 0 0.21 0"/>
    <feBlend mode="normal" in2="effect1_innerShadow_228_966" result="effect2_innerShadow_228_966"/>
    </filter>
    <filter id="filter4_ii_228_966" x="174.869" y="18.0641" width="45.5742" height="63.3825" filterUnits="userSpaceOnUse" color-interpolation-filters="sRGB">
    <feFlood flood-opacity="0" result="BackgroundImageFix"/>
    <feBlend mode="normal" in="SourceGraphic" in2="BackgroundImageFix" result="shape"/>
    <feColorMatrix in="SourceAlpha" type="matrix" values="0 0 0 0 0 0 0 0 0 0 0 0 0 0 0 0 0 0 127 0" result="hardAlpha"/>
    <feOffset dy="7.03939"/>
    <feGaussianBlur stdDeviation="0.879924"/>
    <feComposite in2="hardAlpha" operator="arithmetic" k2="-1" k3="1"/>
    <feColorMatrix type="matrix" values="0 0 0 0 1 0 0 0 0 1 0 0 0 0 1 0 0 0 0.17 0"/>
    <feBlend mode="normal" in2="shape" result="effect1_innerShadow_228_966"/>
    <feColorMatrix in="SourceAlpha" type="matrix" values="0 0 0 0 0 0 0 0 0 0 0 0 0 0 0 0 0 0 127 0" result="hardAlpha"/>
    <feOffset dy="-5.27954"/>
    <feGaussianBlur stdDeviation="0.879924"/>
    <feComposite in2="hardAlpha" operator="arithmetic" k2="-1" k3="1"/>
    <feColorMatrix type="matrix" values="0 0 0 0 0 0 0 0 0 0 0 0 0 0 0 0 0 0 0.21 0"/>
    <feBlend mode="normal" in2="effect1_innerShadow_228_966" result="effect2_innerShadow_228_966"/>
    </filter>
    <filter id="filter5_ii_228_966" x="115.465" y="18.9045" width="54.166" height="61.7016" filterUnits="userSpaceOnUse" color-interpolation-filters="sRGB">
    <feFlood flood-opacity="0" result="BackgroundImageFix"/>
    <feBlend mode="normal" in="SourceGraphic" in2="BackgroundImageFix" result="shape"/>
    <feColorMatrix in="SourceAlpha" type="matrix" values="0 0 0 0 0 0 0 0 0 0 0 0 0 0 0 0 0 0 127 0" result="hardAlpha"/>
    <feOffset dy="7.03939"/>
    <feGaussianBlur stdDeviation="0.879924"/>
    <feComposite in2="hardAlpha" operator="arithmetic" k2="-1" k3="1"/>
    <feColorMatrix type="matrix" values="0 0 0 0 1 0 0 0 0 1 0 0 0 0 1 0 0 0 0.17 0"/>
    <feBlend mode="normal" in2="shape" result="effect1_innerShadow_228_966"/>
    <feColorMatrix in="SourceAlpha" type="matrix" values="0 0 0 0 0 0 0 0 0 0 0 0 0 0 0 0 0 0 127 0" result="hardAlpha"/>
    <feOffset dy="-5.27954"/>
    <feGaussianBlur stdDeviation="0.879924"/>
    <feComposite in2="hardAlpha" operator="arithmetic" k2="-1" k3="1"/>
    <feColorMatrix type="matrix" values="0 0 0 0 0 0 0 0 0 0 0 0 0 0 0 0 0 0 0.21 0"/>
    <feBlend mode="normal" in2="effect1_innerShadow_228_966" result="effect2_innerShadow_228_966"/>
    </filter>
    <filter id="filter6_ii_228_966" x="59.6807" y="18.1581" width="50.0566" height="63.1957" filterUnits="userSpaceOnUse" color-interpolation-filters="sRGB">
    <feFlood flood-opacity="0" result="BackgroundImageFix"/>
    <feBlend mode="normal" in="SourceGraphic" in2="BackgroundImageFix" result="shape"/>
    <feColorMatrix in="SourceAlpha" type="matrix" values="0 0 0 0 0 0 0 0 0 0 0 0 0 0 0 0 0 0 127 0" result="hardAlpha"/>
    <feOffset dy="7.03939"/>
    <feGaussianBlur stdDeviation="0.879924"/>
    <feComposite in2="hardAlpha" operator="arithmetic" k2="-1" k3="1"/>
    <feColorMatrix type="matrix" values="0 0 0 0 1 0 0 0 0 1 0 0 0 0 1 0 0 0 0.17 0"/>
    <feBlend mode="normal" in2="shape" result="effect1_innerShadow_228_966"/>
    <feColorMatrix in="SourceAlpha" type="matrix" values="0 0 0 0 0 0 0 0 0 0 0 0 0 0 0 0 0 0 127 0" result="hardAlpha"/>
    <feOffset dy="-5.27954"/>
    <feGaussianBlur stdDeviation="0.879924"/>
    <feComposite in2="hardAlpha" operator="arithmetic" k2="-1" k3="1"/>
    <feColorMatrix type="matrix" values="0 0 0 0 0 0 0 0 0 0 0 0 0 0 0 0 0 0 0.21 0"/>
    <feBlend mode="normal" in2="effect1_innerShadow_228_966" result="effect2_innerShadow_228_966"/>
    </filter>
    <filter id="filter7_ii_228_966" x="10.8877" y="18.1581" width="42.2119" height="61.7016" filterUnits="userSpaceOnUse" color-interpolation-filters="sRGB">
    <feFlood flood-opacity="0" result="BackgroundImageFix"/>
    <feBlend mode="normal" in="SourceGraphic" in2="BackgroundImageFix" result="shape"/>
    <feColorMatrix in="SourceAlpha" type="matrix" values="0 0 0 0 0 0 0 0 0 0 0 0 0 0 0 0 0 0 127 0" result="hardAlpha"/>
    <feOffset dy="7.03939"/>
    <feGaussianBlur stdDeviation="0.879924"/>
    <feComposite in2="hardAlpha" operator="arithmetic" k2="-1" k3="1"/>
    <feColorMatrix type="matrix" values="0 0 0 0 1 0 0 0 0 1 0 0 0 0 1 0 0 0 0.17 0"/>
    <feBlend mode="normal" in2="shape" result="effect1_innerShadow_228_966"/>
    <feColorMatrix in="SourceAlpha" type="matrix" values="0 0 0 0 0 0 0 0 0 0 0 0 0 0 0 0 0 0 127 0" result="hardAlpha"/>
    <feOffset dy="-5.27954"/>
    <feGaussianBlur stdDeviation="0.879924"/>
    <feComposite in2="hardAlpha" operator="arithmetic" k2="-1" k3="1"/>
    <feColorMatrix type="matrix" values="0 0 0 0 0 0 0 0 0 0 0 0 0 0 0 0 0 0 0.21 0"/>
    <feBlend mode="normal" in2="effect1_innerShadow_228_966" result="effect2_innerShadow_228_966"/>
    </filter>
    <linearGradient id="paint0_linear_228_966" x1="194.898" y1="2" x2="194.898" y2="90" gradientUnits="userSpaceOnUse">
    <stop stop-color="#F1FEFF"/>
    <stop offset="0.0001" stop-color="#E8FBFE"/>
    <stop offset="1" stop-color="#BAF3FB"/>
    </linearGradient>
    </defs>
</svg>