<svg width="305" height="63" viewBox="0 0 305 63" fill="none" xmlns="http://www.w3.org/2000/svg">
    <path d="M282.881 45.944C282.508 46.056 281.911 46.168 281.089 46.28C280.305 46.392 279.484 46.448 278.625 46.448C277.804 46.448 277.057 46.392 276.385 46.28C275.751 46.168 275.209 45.944 274.761 45.608C274.313 45.272 273.959 44.824 273.697 44.264C273.473 43.6667 273.361 42.9013 273.361 41.968V25.168C273.361 24.3093 273.511 23.5813 273.809 22.984C274.145 22.3493 274.612 21.7893 275.209 21.304C275.807 20.8187 276.535 20.3893 277.393 20.016C278.289 19.6053 279.241 19.2507 280.249 18.952C281.257 18.6533 282.303 18.4293 283.385 18.28C284.468 18.0933 285.551 18 286.633 18C288.425 18 289.844 18.3547 290.889 19.064C291.935 19.736 292.457 20.856 292.457 22.424C292.457 22.9467 292.383 23.4693 292.233 23.992C292.084 24.4773 291.897 24.9253 291.673 25.336C290.889 25.336 290.087 25.3733 289.265 25.448C288.444 25.5227 287.641 25.6347 286.857 25.784C286.073 25.9333 285.327 26.1013 284.617 26.288C283.945 26.4373 283.367 26.624 282.881 26.848V45.944Z" fill="#FFFEF5"/>
    <path d="M257.019 46.8959C254.816 46.8959 252.763 46.5972 250.859 45.9999C248.992 45.3652 247.349 44.4319 245.931 43.1999C244.549 41.9679 243.448 40.4185 242.627 38.5518C241.843 36.6852 241.451 34.5012 241.451 31.9999C241.451 29.5359 241.843 27.4265 242.627 25.6719C243.448 23.8798 244.512 22.4239 245.819 21.3039C247.125 20.1465 248.619 19.3065 250.299 18.7838C251.979 18.2238 253.696 17.9438 255.451 17.9438C257.429 17.9438 259.221 18.2425 260.827 18.8399C262.469 19.4372 263.869 20.2585 265.027 21.3039C266.221 22.3492 267.136 23.5999 267.771 25.0559C268.443 26.5119 268.779 28.0985 268.779 29.8159C268.779 31.0852 268.424 32.0559 267.715 32.7279C267.005 33.3999 266.016 33.8292 264.747 34.0159L250.915 36.0879C251.325 37.3199 252.165 38.2532 253.435 38.8879C254.704 39.4852 256.16 39.7839 257.803 39.7839C259.333 39.7839 260.771 39.5972 262.115 39.2239C263.496 38.8132 264.616 38.3465 265.475 37.8238C266.072 38.1972 266.576 38.7198 266.987 39.3918C267.397 40.0639 267.603 40.7732 267.603 41.5199C267.603 43.1999 266.819 44.4505 265.251 45.2719C264.056 45.9065 262.712 46.3359 261.219 46.5599C259.725 46.7839 258.325 46.8959 257.019 46.8959ZM255.451 24.8879C254.555 24.8879 253.771 25.0372 253.099 25.3358C252.464 25.6345 251.941 26.0265 251.531 26.5119C251.12 26.9599 250.803 27.4825 250.579 28.0798C250.392 28.6398 250.28 29.2185 250.243 29.8159L259.819 28.2479C259.707 27.5012 259.296 26.7545 258.587 26.0079C257.877 25.2612 256.832 24.8879 255.451 24.8879Z" fill="#FFFEF5"/>
    <path d="M230.585 45.2721C230.062 45.6828 229.297 46.0188 228.289 46.2801C227.281 46.5415 226.142 46.6721 224.873 46.6721C223.417 46.6721 222.147 46.4855 221.065 46.1121C220.019 45.7388 219.291 45.1415 218.881 44.3201C218.545 43.6855 218.134 42.8081 217.649 41.6881C217.201 40.5308 216.715 39.2615 216.193 37.8801C215.67 36.4615 215.129 34.9495 214.569 33.3441C214.009 31.7388 213.467 30.1521 212.945 28.5841C212.459 27.0161 212.011 25.5041 211.601 24.0481C211.19 22.5921 210.854 21.3041 210.593 20.1841C211.115 19.6615 211.806 19.2135 212.665 18.8401C213.561 18.4295 214.531 18.2241 215.577 18.2241C216.883 18.2241 217.947 18.5041 218.769 19.0641C219.627 19.5868 220.262 20.5948 220.673 22.0881L222.857 30.6561C223.267 32.3361 223.659 33.8668 224.033 35.2481C224.406 36.5921 224.686 37.6375 224.873 38.3841H225.153C225.862 35.6215 226.609 32.5601 227.393 29.2001C228.177 25.8401 228.886 22.5361 229.521 19.2881C230.155 18.9521 230.865 18.6908 231.649 18.5041C232.47 18.3175 233.254 18.2241 234.001 18.2241C235.307 18.2241 236.409 18.5041 237.305 19.0641C238.201 19.6241 238.649 20.5948 238.649 21.9761C238.649 22.5735 238.499 23.4508 238.201 24.6081C237.939 25.7281 237.585 27.0161 237.137 28.4721C236.726 29.8908 236.222 31.4028 235.625 33.0081C235.065 34.6135 234.486 36.1815 233.889 37.7121C233.291 39.2428 232.694 40.6801 232.097 42.0241C231.537 43.3308 231.033 44.4135 230.585 45.2721Z" fill="#FFFEF5"/>
    <path d="M172.714 28.976C172.714 26.064 173.162 23.488 174.058 21.248C174.991 19.008 176.242 17.1413 177.81 15.648C179.415 14.1173 181.282 12.96 183.41 12.176C185.575 11.392 187.909 11 190.41 11C192.911 11 195.226 11.392 197.354 12.176C199.519 12.96 201.405 14.1173 203.01 15.648C204.615 17.1413 205.866 19.008 206.762 21.248C207.695 23.488 208.162 26.064 208.162 28.976C208.162 31.888 207.714 34.4827 206.818 36.76C205.922 39 204.671 40.8853 203.066 42.416C201.498 43.9093 199.631 45.048 197.466 45.832C195.301 46.616 192.949 47.008 190.41 47.008C187.871 47.008 185.519 46.616 183.354 45.832C181.189 45.0107 179.322 43.8347 177.754 42.304C176.186 40.7733 174.954 38.888 174.058 36.648C173.162 34.408 172.714 31.8507 172.714 28.976ZM182.794 28.976C182.794 32.3733 183.485 34.912 184.866 36.592C186.247 38.272 188.095 39.112 190.41 39.112C192.762 39.112 194.629 38.272 196.01 36.592C197.391 34.912 198.082 32.3733 198.082 28.976C198.082 25.616 197.391 23.096 196.01 21.416C194.666 19.736 192.818 18.896 190.466 18.896C188.151 18.896 186.285 19.736 184.866 21.416C183.485 23.0587 182.794 25.5787 182.794 28.976Z" fill="#FFFEF5"/>
    <path d="M146.112 46.8959C143.91 46.8959 141.856 46.5972 139.952 45.9999C138.086 45.3652 136.443 44.4319 135.024 43.1999C133.643 41.9679 132.542 40.4185 131.72 38.5518C130.936 36.6852 130.544 34.5012 130.544 31.9999C130.544 29.5359 130.936 27.4265 131.72 25.6719C132.542 23.8798 133.606 22.4239 134.912 21.3039C136.219 20.1465 137.712 19.3065 139.392 18.7838C141.072 18.2238 142.79 17.9438 144.544 17.9438C146.523 17.9438 148.315 18.2425 149.92 18.8399C151.563 19.4372 152.963 20.2585 154.12 21.3039C155.315 22.3492 156.23 23.5999 156.864 25.0559C157.536 26.5119 157.872 28.0985 157.872 29.8159C157.872 31.0852 157.518 32.0559 156.808 32.7279C156.099 33.3999 155.11 33.8292 153.84 34.0159L140.008 36.0879C140.419 37.3199 141.259 38.2532 142.528 38.8879C143.798 39.4852 145.254 39.7839 146.896 39.7839C148.427 39.7839 149.864 39.5972 151.208 39.2239C152.59 38.8132 153.71 38.3465 154.568 37.8238C155.166 38.1972 155.67 38.7198 156.08 39.3918C156.491 40.0639 156.696 40.7732 156.696 41.5199C156.696 43.1999 155.912 44.4505 154.344 45.2719C153.15 45.9065 151.806 46.3359 150.312 46.5599C148.819 46.7839 147.419 46.8959 146.112 46.8959ZM144.544 24.8879C143.648 24.8879 142.864 25.0372 142.192 25.3358C141.558 25.6345 141.035 26.0265 140.624 26.5119C140.214 26.9599 139.896 27.4825 139.672 28.0798C139.486 28.6398 139.374 29.2185 139.336 29.8159L148.912 28.2479C148.8 27.5012 148.39 26.7545 147.68 26.0079C146.971 25.2612 145.926 24.8879 144.544 24.8879Z" fill="#FFFEF5"/>
    <path d="M97.4093 17.9438C98.94 17.9438 100.433 18.1678 101.889 18.6159C103.383 19.0265 104.671 19.6612 105.753 20.5198C106.873 19.7732 108.124 19.1572 109.505 18.6718C110.924 18.1865 112.623 17.9438 114.601 17.9438C116.02 17.9438 117.401 18.1305 118.745 18.5038C120.127 18.8772 121.34 19.4745 122.385 20.2959C123.468 21.0799 124.327 22.1438 124.961 23.4879C125.596 24.7945 125.913 26.3998 125.913 28.3039V45.9439C125.54 46.0559 124.943 46.1679 124.121 46.2799C123.337 46.3918 122.516 46.4479 121.657 46.4479C120.836 46.4479 120.089 46.3918 119.417 46.2799C118.783 46.1679 118.241 45.9439 117.793 45.6079C117.345 45.2719 116.991 44.8239 116.729 44.2639C116.505 43.6665 116.393 42.9012 116.393 41.9678V28.5839C116.393 27.4639 116.076 26.6612 115.441 26.1759C114.807 25.6532 113.948 25.3918 112.865 25.3918C112.343 25.3918 111.783 25.5225 111.185 25.7838C110.588 26.0079 110.14 26.2505 109.841 26.5119C109.879 26.6612 109.897 26.8105 109.897 26.9599C109.897 27.0718 109.897 27.1839 109.897 27.2959V45.9439C109.487 46.0559 108.871 46.1679 108.049 46.2799C107.265 46.3918 106.463 46.4479 105.641 46.4479C104.82 46.4479 104.073 46.3918 103.401 46.2799C102.767 46.1679 102.225 45.9439 101.777 45.6079C101.329 45.2719 100.975 44.8239 100.713 44.2639C100.489 43.6665 100.377 42.9012 100.377 41.9678V28.5839C100.377 27.4639 100.023 26.6612 99.3133 26.1759C98.6413 25.6532 97.82 25.3918 96.8493 25.3918C96.1773 25.3918 95.5987 25.5038 95.1133 25.7278C94.628 25.9145 94.2173 26.1012 93.8813 26.2878V45.9439C93.508 46.0559 92.9107 46.1679 92.0893 46.2799C91.3053 46.3918 90.484 46.4479 89.6253 46.4479C88.804 46.4479 88.0573 46.3918 87.3853 46.2799C86.7507 46.1679 86.2093 45.9439 85.7613 45.6079C85.3133 45.2719 84.9587 44.8239 84.6973 44.2639C84.4733 43.6665 84.3613 42.9012 84.3613 41.9678V25.0559C84.3613 24.0479 84.5667 23.2452 84.9773 22.6479C85.4253 22.0505 86.0227 21.4905 86.7693 20.9678C88.0387 20.0719 89.6067 19.3439 91.4733 18.7838C93.3773 18.2238 95.356 17.9438 97.4093 17.9438Z" fill="#FFFEF5"/>
    <path d="M65.5481 39.9519C66.1828 39.9519 66.8735 39.8959 67.6202 39.7839C68.4042 39.6345 68.9828 39.4479 69.3562 39.2239V34.7439L65.3242 35.0798C64.2788 35.1545 63.4202 35.3785 62.7482 35.7519C62.0762 36.1252 61.7402 36.6852 61.7402 37.4319C61.7402 38.1785 62.0202 38.7945 62.5802 39.2799C63.1775 39.7278 64.1668 39.9519 65.5481 39.9519ZM65.1002 17.9438C67.1162 17.9438 68.9455 18.1492 70.5882 18.5599C72.2682 18.9705 73.6868 19.6052 74.8442 20.4639C76.0388 21.2852 76.9535 22.3492 77.5882 23.6558C78.2228 24.9252 78.5402 26.4372 78.5402 28.1919V40.7359C78.5402 41.7065 78.2601 42.5092 77.7001 43.1439C77.1775 43.7412 76.5428 44.2638 75.7962 44.7118C73.3695 46.1678 69.9535 46.8959 65.5481 46.8959C63.5695 46.8959 61.7775 46.7092 60.1722 46.3358C58.6042 45.9625 57.2415 45.4025 56.0842 44.6558C54.9642 43.9092 54.0868 42.9572 53.4522 41.7999C52.8548 40.6425 52.5562 39.2985 52.5562 37.7679C52.5562 35.1919 53.3215 33.2132 54.8521 31.8319C56.3828 30.4505 58.7535 29.5919 61.9642 29.2558L69.3002 28.4718V28.0798C69.3002 26.9972 68.8148 26.2319 67.8442 25.7838C66.9108 25.2985 65.5482 25.0559 63.7562 25.0559C62.3375 25.0559 60.9562 25.2052 59.6122 25.5038C58.2682 25.8025 57.0548 26.1758 55.9722 26.6238C55.4868 26.2878 55.0762 25.7839 54.7402 25.1119C54.4042 24.4025 54.2362 23.6745 54.2362 22.9278C54.2362 21.9572 54.4601 21.1919 54.9081 20.6319C55.3935 20.0345 56.1215 19.5305 57.0922 19.1199C58.1748 18.7092 59.4442 18.4105 60.9002 18.2239C62.3935 18.0372 63.7935 17.9438 65.1002 17.9438Z" fill="#FFFEF5"/>
    <path d="M47.9113 40.4558C47.9113 41.6132 47.706 42.4718 47.2953 43.0318C46.8846 43.5918 46.2313 44.1331 45.3353 44.6558C44.8126 44.9545 44.1593 45.2531 43.3753 45.5518C42.5913 45.8131 41.7326 46.0371 40.7993 46.2238C39.866 46.4478 38.8766 46.6158 37.8313 46.7278C36.8233 46.8398 35.8153 46.8958 34.8073 46.8958C32.1193 46.8958 29.5993 46.5411 27.2473 45.8318C24.8953 45.0852 22.842 43.9838 21.0873 42.5278C19.37 41.0345 18.0073 39.1865 16.9993 36.9838C15.9913 34.7812 15.4873 32.2238 15.4873 29.3118C15.4873 26.2505 16.0286 23.5812 17.1113 21.3038C18.2313 19.0265 19.6873 17.1411 21.4793 15.6478C23.3086 14.1171 25.3806 12.9785 27.6953 12.2318C30.0473 11.4851 32.4553 11.1118 34.9193 11.1118C38.466 11.1118 41.266 11.6905 43.3193 12.8478C45.41 13.9678 46.4553 15.4425 46.4553 17.2718C46.4553 18.2425 46.2126 19.0825 45.7273 19.7918C45.242 20.5011 44.682 21.0611 44.0473 21.4718C43.114 20.9118 41.938 20.3705 40.5193 19.8478C39.138 19.2878 37.57 19.0078 35.8153 19.0078C32.6793 19.0078 30.178 19.9038 28.3113 21.6958C26.482 23.4878 25.5673 25.9705 25.5673 29.1438C25.5673 30.8612 25.81 32.3545 26.2953 33.6238C26.818 34.8558 27.5086 35.8825 28.3673 36.7038C29.226 37.4878 30.2153 38.0851 31.3353 38.4958C32.4553 38.8691 33.65 39.0558 34.9193 39.0558C35.7406 39.0558 36.4686 38.9812 37.1033 38.8318C37.738 38.6825 38.2233 38.5145 38.5593 38.3278V33.0638H32.5673C32.3433 32.6531 32.1193 32.1118 31.8953 31.4398C31.7086 30.7678 31.6153 30.0585 31.6153 29.3118C31.6153 27.9678 31.914 26.9971 32.5113 26.3998C33.146 25.8025 33.9486 25.5038 34.9193 25.5038H44.3833C45.5033 25.5038 46.362 25.8211 46.9593 26.4558C47.594 27.0532 47.9113 27.9118 47.9113 29.0318V40.4558Z" fill="#FFFEF5"/>
    <path fill-rule="evenodd" clip-rule="evenodd" d="M292.881 53.3843L285.755 55.5223C284.601 55.8685 283.365 56.0618 282.47 56.1842C281.192 56.3652 279.907 56.448 278.625 56.448C277.361 56.448 276.054 56.3627 274.741 56.1439L274.694 56.1361L274.647 56.1278C272.701 55.7843 270.643 55.0189 268.761 53.608C266.866 52.1866 265.519 50.3852 264.635 48.4929L264.471 48.1399L264.334 47.7752C264.1 47.1504 263.919 46.5294 263.78 45.9225C264.294 45.7371 264.784 45.5203 265.251 45.272C266.676 44.5254 267.454 43.4241 267.583 41.968C267.596 41.8222 267.603 41.6729 267.603 41.52C267.603 40.7733 267.398 40.064 266.987 39.392C266.576 38.72 266.072 38.1973 265.475 37.824C264.891 38.1793 264.187 38.5088 263.361 38.8124V34.2236L264.747 34.016C266.016 33.8293 267.006 33.4 267.715 32.728C268.424 32.056 268.779 31.0853 268.779 29.816C268.779 28.1426 268.46 26.5933 267.822 25.168C267.805 25.1306 267.788 25.0932 267.771 25.056C267.136 23.6 266.222 22.3493 265.027 21.304C264.72 21.0263 264.395 20.7644 264.053 20.5184C264.263 19.8537 264.53 19.1818 264.865 18.5119L264.917 18.4079L264.971 18.3051C265.98 16.4001 267.339 14.8136 268.903 13.5429C270.309 12.4007 271.823 11.542 273.311 10.8867C274.638 10.2837 276.007 9.77926 277.408 9.36402C278.865 8.93251 280.349 8.61241 281.854 8.39694C283.435 8.13375 285.03 8 286.633 8C289.592 8 293.168 8.56406 296.404 10.7218C300.987 13.7263 302.457 18.4971 302.457 22.424C302.457 23.9124 302.243 25.359 301.849 26.7392L301.821 26.8363L301.791 26.9329C301.461 28.0046 301.023 29.078 300.452 30.1245L297.61 35.336H292.881V53.3843ZM290.889 19.064C290.262 18.6383 289.5 18.3403 288.604 18.1701C288.007 18.0567 287.35 18 286.633 18C286.216 18 285.799 18.0138 285.383 18.0415C284.717 18.0857 284.051 18.1652 283.385 18.28C283.208 18.3045 283.031 18.331 282.855 18.3595C282.752 18.3764 282.648 18.394 282.545 18.4123C281.759 18.5514 280.994 18.7313 280.249 18.952C279.95 19.0406 279.656 19.1342 279.367 19.2327C278.681 19.4661 278.023 19.7272 277.393 20.016C276.535 20.3893 275.807 20.8187 275.209 21.304C274.612 21.7893 274.145 22.3493 273.809 22.984C273.511 23.5813 273.361 24.3093 273.361 25.168V41.968C273.361 42.9013 273.473 43.6667 273.697 44.264C273.959 44.824 274.313 45.272 274.761 45.608C274.932 45.7363 275.117 45.8483 275.316 45.944C275.637 46.0988 275.993 46.2108 276.385 46.28C277.057 46.392 277.804 46.448 278.625 46.448C279.484 46.448 280.305 46.392 281.089 46.28C281.911 46.168 282.508 46.056 282.881 45.944V26.848C282.935 26.8231 282.99 26.7987 283.046 26.7748C283.148 26.7316 283.253 26.69 283.361 26.6498C283.617 26.5555 283.892 26.4694 284.189 26.3916C284.288 26.3655 284.39 26.3403 284.494 26.3161C284.535 26.3066 284.576 26.2972 284.617 26.288C284.665 26.2756 284.712 26.2632 284.76 26.2509C285.239 26.1274 285.734 26.0123 286.247 25.9056C286.34 25.8862 286.434 25.8671 286.528 25.8483C286.563 25.8413 286.598 25.8343 286.633 25.8274C286.708 25.8127 286.782 25.7983 286.857 25.784C287.641 25.6347 288.444 25.5227 289.265 25.448C290.087 25.3733 290.889 25.336 291.673 25.336C291.897 24.9253 292.084 24.4773 292.233 23.992C292.383 23.4693 292.457 22.9467 292.457 22.424C292.457 21.3153 292.196 20.4305 291.673 19.7698C291.457 19.4961 291.196 19.2608 290.889 19.064Z" fill="url(#paint0_linear_231_5505)"/>
    <path fill-rule="evenodd" clip-rule="evenodd" d="M247.752 55.5058L247.64 55.4676C244.608 54.4369 241.818 52.873 239.374 50.7502L239.324 50.7068L239.275 50.6628C236.72 48.3843 234.812 45.622 233.474 42.5792L233.44 42.502L233.407 42.4242C233.151 41.8157 232.924 41.2004 232.723 40.5797C233.112 39.6632 233.5 38.7073 233.889 37.7118C234.486 36.1812 235.064 34.6132 235.625 33.0079C235.751 32.6677 235.873 32.3317 235.992 31.9999C236.431 30.7659 236.813 29.5899 237.137 28.4718C237.585 27.0158 237.939 25.7278 238.201 24.6078C238.276 24.3149 238.342 24.0398 238.399 23.7827C238.402 23.7679 238.405 23.7531 238.408 23.7384C238.568 23.0008 238.648 22.4132 238.648 21.9758C238.648 20.5945 238.201 19.6238 237.305 19.0638C236.719 18.6977 236.045 18.4513 235.284 18.3245C236.371 16.6586 237.683 15.1177 239.248 13.765C241.584 11.711 244.273 10.2008 247.229 9.26627C249.891 8.38989 252.644 7.94385 255.451 7.94385C258.426 7.94385 261.41 8.39235 264.278 9.45438C266.951 10.4306 269.471 11.8577 271.672 13.8306C273.762 15.6735 275.429 17.8791 276.628 20.3816C276.093 20.6625 275.62 20.9699 275.209 21.3038C274.969 21.4993 274.749 21.7068 274.551 21.9265C274.47 22.0161 274.393 22.1078 274.319 22.2015C274.125 22.4483 273.955 22.7091 273.809 22.9838C273.51 23.5812 273.361 24.3092 273.361 25.1679V41.9678C273.361 42.9012 273.473 43.6665 273.697 44.2639C273.958 44.8239 274.313 45.2719 274.761 45.6079C275.209 45.9439 275.75 46.1679 276.385 46.2799C276.517 46.3018 276.651 46.3216 276.789 46.3392C276.465 47.2501 276.037 48.1527 275.488 49.0292C273.989 51.4199 271.946 53.0491 269.914 54.1179C267.617 55.334 265.178 56.0779 262.702 56.4492C260.792 56.7358 258.891 56.8959 257.019 56.8959C253.905 56.8959 250.833 56.4723 247.865 55.5413L247.752 55.5058ZM243.972 40.9758C244.546 41.8061 245.199 42.5475 245.931 43.1999C247.136 44.2466 248.503 45.0778 250.032 45.6933C250.088 45.7159 250.144 45.7382 250.201 45.7601C250.417 45.8443 250.636 45.9242 250.859 45.9999C252.763 46.5972 254.816 46.8959 257.019 46.8959C257.276 46.8959 257.538 46.8915 257.803 46.8828C258.881 46.8473 260.02 46.7397 261.219 46.5599C262.195 46.4133 263.108 46.179 263.957 45.8568C263.996 45.8421 264.035 45.8271 264.073 45.812C264.481 45.6525 264.873 45.4724 265.251 45.2719C266.009 44.8745 266.584 44.3767 266.976 43.7785C267.394 43.14 267.603 42.3872 267.603 41.5199C267.603 41.4499 267.601 41.3803 267.597 41.311C267.562 40.6406 267.359 40.0009 266.987 39.3918C266.576 38.7199 266.072 38.1972 265.475 37.8238C265.427 37.8527 265.379 37.8814 265.33 37.9099C265.327 37.9118 265.323 37.9138 265.32 37.9157C264.483 38.4013 263.415 38.8374 262.115 39.2239C262.105 39.2264 262.096 39.229 262.087 39.2316C262.074 39.2352 262.061 39.2388 262.048 39.2423C261.443 39.407 260.82 39.5341 260.178 39.6237C259.442 39.7265 258.68 39.7798 257.894 39.7836C257.864 39.7838 257.833 39.7839 257.803 39.7839C257.536 39.7839 257.275 39.776 257.019 39.7603C256.077 39.7027 255.201 39.5392 254.391 39.2697C254.061 39.16 253.743 39.0327 253.435 38.8879C253.389 38.8652 253.345 38.8421 253.3 38.8187C253.246 38.7898 253.192 38.7604 253.139 38.7304C252.424 38.3241 251.861 37.8119 251.451 37.1939C251.427 37.1588 251.405 37.1233 251.382 37.0875C251.362 37.0553 251.343 37.0229 251.323 36.9902C251.158 36.7097 251.022 36.4089 250.915 36.0879L264.747 34.0159C266.016 33.8292 267.005 33.3998 267.715 32.7279C268.424 32.0559 268.779 31.0852 268.779 29.8158C268.779 29.1987 268.735 28.5984 268.648 28.015C268.595 27.6552 268.525 27.3018 268.438 26.9549C268.275 26.2989 268.052 25.6659 267.771 25.0559C267.136 23.5998 266.221 22.3492 265.027 21.3038C264.773 21.0743 264.507 20.8555 264.229 20.6476C263.243 19.9086 262.109 19.306 260.827 18.8399C259.221 18.2425 257.429 17.9438 255.451 17.9438C253.696 17.9438 251.979 18.2238 250.299 18.7838C250.266 18.7941 250.233 18.8044 250.2 18.8148C250.151 18.8306 250.102 18.8467 250.053 18.8631C248.479 19.3875 247.073 20.1965 245.834 21.2901C245.829 21.2947 245.824 21.2993 245.819 21.3038C245.746 21.3665 245.673 21.4302 245.602 21.495C244.512 22.4812 243.598 23.7113 242.86 25.1853C242.814 25.2765 242.769 25.3687 242.725 25.4619C242.692 25.5313 242.659 25.6013 242.627 25.6718C242.397 26.1861 242.201 26.7308 242.038 27.3059C241.863 27.9275 241.727 28.5847 241.63 29.2775C241.51 30.131 241.451 31.0384 241.451 31.9999C241.451 34.5012 241.843 36.6852 242.627 38.5518C242.665 38.6391 242.704 38.7257 242.744 38.8115C243.103 39.5899 243.512 40.3114 243.972 40.9758ZM259.819 28.2478C259.815 28.2222 259.811 28.1965 259.806 28.1709C259.766 27.9469 259.7 27.7228 259.606 27.4988C259.588 27.4554 259.569 27.412 259.549 27.3687C259.529 27.3264 259.509 27.2841 259.487 27.2418C259.278 26.8305 258.977 26.4192 258.587 26.0079C258.5 25.9171 258.409 25.8319 258.313 25.7521C258.298 25.7398 258.283 25.7276 258.268 25.7156C257.902 25.4231 257.466 25.2081 256.96 25.0707C256.512 24.9488 256.009 24.8879 255.451 24.8879C254.555 24.8879 253.771 25.0372 253.099 25.3358C252.915 25.4221 252.741 25.5162 252.577 25.618C252.534 25.6445 252.492 25.6716 252.45 25.6991C252.42 25.719 252.39 25.7392 252.361 25.7596C252.046 25.9788 251.77 26.2295 251.531 26.5118C251.341 26.7183 251.172 26.9407 251.022 27.1789C250.999 27.2167 250.975 27.2549 250.953 27.2934C250.808 27.5394 250.683 27.8015 250.579 28.0798C250.466 28.4167 250.381 28.7603 250.323 29.1106C250.318 29.1381 250.314 29.1656 250.31 29.1932C250.285 29.355 250.266 29.5182 250.252 29.6828C250.249 29.7271 250.245 29.7714 250.243 29.8158L259.819 28.2478Z" fill="url(#paint1_linear_231_5505)"/>
    <path fill-rule="evenodd" clip-rule="evenodd" d="M238.455 51.8057L236.763 53.1353C234.716 54.7434 232.466 55.5277 230.798 55.9601C228.815 56.4743 226.811 56.6721 224.872 56.6721C222.594 56.6721 220.176 56.3838 217.804 55.5659L217.753 55.548L217.701 55.5295C214.799 54.4933 211.803 52.4334 209.999 48.9173C209.5 47.9664 208.986 46.8488 208.473 45.6642L208.394 45.4826L208.323 45.2981C207.864 44.1132 207.369 42.8198 206.839 41.419L206.824 41.3782L206.809 41.3372C206.502 40.5046 206.19 39.6443 205.874 38.7564C206.223 38.1256 206.538 37.4602 206.818 36.7601C206.923 36.4925 207.022 36.2205 207.115 35.9442C207.701 34.1998 208.041 32.2808 208.135 30.1873C208.137 30.1486 208.138 30.11 208.14 30.0712C208.154 29.7113 208.162 29.3463 208.162 28.9761C208.162 27.6119 208.059 26.3214 207.854 25.1047C207.622 23.7242 207.258 22.4387 206.762 21.2481C206.741 21.1961 206.72 21.1443 206.699 21.0927C205.807 18.9216 204.578 17.1068 203.01 15.6481C202.662 15.3168 202.301 15.0029 201.928 14.7066L203.521 13.1131C205.106 11.5282 206.902 10.4512 208.592 9.7068C210.845 8.69062 213.215 8.22412 215.576 8.22412C218.206 8.22412 221.322 8.77633 224.197 10.6649C224.233 10.6879 224.269 10.711 224.305 10.7343L224.841 10.4502C226.307 9.67411 227.825 9.13496 229.332 8.77606L229.382 8.76417L229.432 8.75279C230.89 8.42154 232.42 8.22412 234 8.22412C236.738 8.22412 239.781 8.81962 242.604 10.5841C246.311 12.9006 247.927 16.3786 248.447 19.5259C247.5 19.9981 246.624 20.5908 245.819 21.3041C245.571 21.5161 245.333 21.7401 245.103 21.9761C244.124 22.9807 243.303 24.2033 242.639 25.6439C242.635 25.6533 242.631 25.6627 242.627 25.6721C242.616 25.6955 242.606 25.7189 242.595 25.7423C242.078 26.9216 241.736 28.2593 241.57 29.7554C241.567 29.7814 241.564 29.8075 241.561 29.8336C241.487 30.5224 241.451 31.2446 241.451 32.0001C241.451 33.1016 241.527 34.1416 241.679 35.1201C241.686 35.1701 241.694 35.22 241.703 35.2698C241.897 36.4554 242.205 37.5495 242.627 38.5521C242.911 39.1978 243.228 39.8056 243.579 40.3754C243.455 40.7007 243.33 41.0248 243.204 41.3475C242.566 42.983 241.919 44.5434 241.261 46.0251C240.652 47.4441 240.047 48.7539 239.45 49.8978L238.455 51.8057ZM235.624 33.0081C235.845 32.4148 236.053 31.8343 236.248 31.2665C236.581 30.298 236.877 29.3665 237.136 28.4721C237.584 27.0161 237.939 25.7281 238.2 24.6081C238.499 23.4508 238.648 22.5735 238.648 21.9761C238.648 21.6463 238.623 21.3398 238.572 21.0568C238.409 20.1546 237.986 19.4904 237.304 19.0641C236.408 18.5041 235.307 18.2241 234 18.2241C233.254 18.2241 232.47 18.3175 231.648 18.5041C231.126 18.6284 230.637 18.7858 230.182 18.9762C229.953 19.0719 229.732 19.1758 229.52 19.2881C229.495 19.4173 229.47 19.5465 229.444 19.6758C229.432 19.7377 229.42 19.7996 229.408 19.8615C229.269 20.5637 229.126 21.2686 228.981 21.9761C228.964 22.0561 228.948 22.136 228.931 22.2161C228.916 22.2889 228.901 22.3618 228.886 22.4347C228.846 22.6264 228.806 22.8182 228.765 23.0103C228.577 23.9084 228.383 24.8107 228.183 25.7172C228.171 25.7682 228.16 25.8194 228.149 25.8705C227.905 26.9742 227.653 28.0841 227.392 29.2001C227.367 29.3067 227.343 29.4129 227.318 29.5189C227.314 29.5354 227.31 29.5519 227.306 29.5684C227.281 29.6743 227.257 29.78 227.232 29.8854C227.218 29.9456 227.204 30.0057 227.19 30.0658C226.813 31.6697 226.444 33.2034 226.085 34.6669C226.084 34.6709 226.083 34.6748 226.082 34.6787C226.081 34.6842 226.079 34.6897 226.078 34.6952C226.026 34.909 225.973 35.1214 225.921 35.3322C225.812 35.772 225.704 36.2053 225.597 36.632C225.593 36.6486 225.589 36.6652 225.585 36.6818C225.541 36.8563 225.497 37.0298 225.453 37.2021C225.359 37.5763 225.265 37.9454 225.172 38.3093C225.167 38.3279 225.162 38.3464 225.157 38.3649C225.156 38.3713 225.154 38.3777 225.152 38.3841H224.872C224.866 38.3588 224.86 38.3332 224.853 38.3073C224.815 38.156 224.773 37.9931 224.728 37.8185C224.684 37.6479 224.636 37.4662 224.585 37.2734C224.536 37.0907 224.484 36.898 224.43 36.6954C224.426 36.6817 224.422 36.6679 224.418 36.6541C224.312 36.2594 224.193 35.8274 224.063 35.358C224.053 35.3216 224.043 35.285 224.032 35.2481C224.011 35.1708 223.991 35.0931 223.969 35.0149C223.963 34.9915 223.957 34.968 223.951 34.9445C223.602 33.6435 223.237 32.214 222.856 30.6561L220.672 22.0881C220.62 21.8964 220.563 21.7128 220.503 21.5371C220.195 20.6361 219.79 19.9455 219.288 19.4651C219.125 19.3093 218.952 19.1757 218.768 19.0641C218.443 18.8424 218.08 18.6646 217.679 18.5306C217.066 18.3263 216.366 18.2241 215.576 18.2241C214.531 18.2241 213.56 18.4295 212.664 18.8401C211.806 19.2135 211.115 19.6615 210.592 20.1841C210.854 21.3041 211.19 22.5921 211.6 24.0481C211.631 24.1574 211.662 24.267 211.693 24.3769C211.709 24.4326 211.725 24.4883 211.741 24.5442C211.941 25.2443 212.149 25.9571 212.366 26.6826C212.552 27.307 212.745 27.9409 212.944 28.5841C213.401 29.9532 213.871 31.3365 214.356 32.734C214.366 32.7612 214.375 32.7884 214.384 32.8156C214.445 32.9916 214.507 33.1677 214.568 33.3441C214.874 34.2203 215.174 35.0686 215.469 35.8892C215.47 35.8923 215.471 35.8955 215.472 35.8986C215.657 36.4145 215.84 36.9194 216.021 37.4134C216.028 37.4316 216.034 37.4498 216.041 37.468C216.092 37.6062 216.142 37.7436 216.192 37.8801C216.517 38.7371 216.826 39.551 217.122 40.3217C217.303 40.7933 217.478 41.2488 217.648 41.6881C218.134 42.8081 218.544 43.6855 218.88 44.3201C219.291 45.1415 220.019 45.7388 221.064 46.1121C222.147 46.4855 223.416 46.6721 224.872 46.6721C224.966 46.6721 225.06 46.6714 225.152 46.67C226.31 46.652 227.355 46.5221 228.288 46.2801C229.296 46.0188 230.062 45.6828 230.584 45.2721C231.032 44.4135 231.536 43.3308 232.096 42.0241C232.337 41.4821 232.578 40.9249 232.819 40.3526C233.175 39.5057 233.532 38.6255 233.888 37.7121C234.114 37.1344 234.337 36.5514 234.557 35.963C234.56 35.9534 234.564 35.9437 234.568 35.934C234.927 34.9729 235.279 33.9976 235.624 33.0081Z" fill="url(#paint2_linear_231_5505)"/>
    <path fill-rule="evenodd" clip-rule="evenodd" d="M164.8 17.4678L164.827 17.4018C166.23 14.0353 168.225 10.9668 170.913 8.40662C173.529 5.91332 176.574 4.03753 179.953 2.79257L179.979 2.78288L180.005 2.77334C183.353 1.56142 186.848 1 190.41 1C193.961 1 197.45 1.558 200.785 2.78316C204.173 4.01365 207.237 5.87287 209.866 8.36861C212.616 10.94 214.64 14.0422 216.02 17.4688C216.129 17.7305 216.232 17.9935 216.332 18.2576C216.09 18.2352 215.838 18.224 215.577 18.224C214.941 18.224 214.333 18.2999 213.752 18.4518C213.378 18.5497 213.016 18.6791 212.665 18.84C212.456 18.9307 212.257 19.0258 212.068 19.1254C211.48 19.4355 210.988 19.7883 210.593 20.184C210.854 21.304 211.19 22.592 211.601 24.048C212.011 25.504 212.459 27.016 212.945 28.584C212.988 28.7145 213.032 28.8452 213.076 28.976C213.558 30.4163 214.055 31.8723 214.569 33.344C215.129 34.9493 215.67 36.4613 216.193 37.88C216.341 38.2717 216.486 38.6543 216.628 39.028C216.473 39.4958 216.305 39.9604 216.124 40.4212L216.113 40.4476L216.103 40.4739C214.721 43.9276 212.699 47.0485 209.967 49.6534L209.962 49.6574C207.33 52.1647 204.253 54.01 200.87 55.2347C197.507 56.4523 193.991 57.008 190.41 57.008C186.829 57.008 183.312 56.4523 179.949 55.2347L179.878 55.2089L179.807 55.182C176.431 53.9015 173.375 52.0044 170.768 49.4597C168.106 46.8602 166.134 43.7652 164.773 40.3619C163.323 36.7378 162.714 32.8844 162.714 28.976C162.714 25.0485 163.318 21.1723 164.773 17.5341L164.8 17.4678ZM173.125 24.4537C172.851 25.8584 172.714 27.3658 172.714 28.976C172.714 30.4954 172.839 31.9261 173.089 33.2681C173.313 34.4653 173.635 35.5919 174.058 36.648C174.954 38.888 176.186 40.7733 177.754 42.304C177.779 42.3286 177.804 42.353 177.83 42.3774C179.382 43.8723 181.223 45.0238 183.354 45.832C185.519 46.616 187.871 47.008 190.41 47.008C192.949 47.008 195.301 46.616 197.466 45.832C199.631 45.048 201.498 43.9093 203.066 42.416C203.07 42.412 203.074 42.408 203.078 42.404C204.678 40.8755 205.924 38.9941 206.818 36.76C207.213 35.7556 207.521 34.6894 207.742 33.5615C208.022 32.1321 208.162 30.6037 208.162 28.976C208.162 27.4799 208.039 26.0726 207.792 24.7539C207.559 23.5058 207.216 22.3372 206.762 21.248C205.884 19.0531 204.665 17.2167 203.106 15.7387C203.077 15.7106 203.047 15.6825 203.017 15.6546C203.015 15.6524 203.012 15.6502 203.01 15.648C201.405 14.1173 199.519 12.96 197.354 12.176C195.242 11.3979 192.946 11.0059 190.466 11.0001C190.447 11 190.429 11 190.41 11C187.909 11 185.575 11.392 183.41 12.176C181.329 12.9427 179.497 14.0666 177.916 15.5475C177.912 15.5518 177.907 15.5561 177.902 15.5604C177.871 15.5895 177.841 15.6187 177.81 15.648C176.242 17.1413 174.991 19.008 174.058 21.248C173.657 22.2494 173.346 23.318 173.125 24.4537ZM186.325 20.0885C186.312 20.0977 186.298 20.1069 186.285 20.1161C185.77 20.4717 185.297 20.905 184.866 21.416C184.625 21.7026 184.405 22.016 184.206 22.356C184.205 22.3576 184.204 22.3592 184.203 22.3608C183.778 23.0888 183.449 23.9389 183.216 24.9113C183.205 24.9574 183.194 25.0038 183.184 25.0504C183.1 25.4178 183.03 25.8021 182.973 26.2035C182.854 27.0516 182.794 27.9758 182.794 28.976C182.794 29.9192 182.847 30.7962 182.954 31.607C183.017 32.0918 183.1 32.553 183.202 32.9905C183.44 34.0138 183.782 34.9077 184.228 35.6721C184.421 36.003 184.634 36.3096 184.866 36.592C185.28 37.0957 185.736 37.5239 186.234 37.8766C186.27 37.9021 186.306 37.9272 186.343 37.9519C187.484 38.7253 188.839 39.112 190.41 39.112C192.038 39.112 193.433 38.7097 194.596 37.905C195.113 37.547 195.585 37.1093 196.01 36.592C196.24 36.3119 196.451 36.0079 196.643 35.68C196.644 35.6784 196.645 35.6768 196.646 35.6752C197.07 34.9495 197.4 34.107 197.636 33.1476C197.641 33.1294 197.645 33.1111 197.65 33.0928C197.749 32.6828 197.831 32.2517 197.896 31.7994C198.02 30.9354 198.082 29.9942 198.082 28.976C198.082 28.0595 198.03 27.2055 197.928 26.414C197.865 25.9298 197.783 25.469 197.681 25.0315C197.671 24.9852 197.66 24.9391 197.649 24.8933C197.422 23.9637 197.107 23.1422 196.702 22.4287C196.683 22.3941 196.663 22.3598 196.643 22.3257C196.451 21.9991 196.24 21.6959 196.01 21.416C195.566 20.8607 195.066 20.3971 194.512 20.0254C194.499 20.0164 194.485 20.0076 194.472 19.9987C193.357 19.2636 192.022 18.896 190.466 18.896C190.447 18.896 190.428 18.8961 190.41 18.8962C188.841 18.9054 187.48 19.3028 186.325 20.0885Z" fill="url(#paint3_linear_231_5505)"/>
    <path fill-rule="evenodd" clip-rule="evenodd" d="M136.846 55.5058L136.733 55.4676C133.702 54.4369 130.912 52.873 128.468 50.7502L128.418 50.7068L128.368 50.6628C126.877 49.3331 125.607 47.8385 124.541 46.2196C125.149 46.1277 125.607 46.0358 125.913 45.9439V28.3038C125.913 26.3998 125.596 24.7945 124.961 23.4878C124.775 23.093 124.569 22.7224 124.344 22.3759C124.317 22.3349 124.29 22.2942 124.263 22.2539C123.887 21.6958 123.459 21.2025 122.979 20.774C124.277 18.1634 126.034 15.7597 128.342 13.765C130.678 11.711 133.366 10.2008 136.323 9.26627C138.984 8.38989 141.738 7.94385 144.544 7.94385C147.519 7.94385 150.503 8.39235 153.372 9.45438C156.045 10.4305 158.564 11.8573 160.764 13.8298C163.016 15.8143 164.777 18.2195 165.989 20.9632C167.279 23.7958 167.872 26.7908 167.872 29.8158C167.872 32.046 167.405 34.6699 165.979 37.1055C166.443 38.4947 166.696 39.9763 166.696 41.5199C166.696 43.9726 166.104 46.6007 164.581 49.0292C163.084 51.418 161.044 53.0464 159.013 54.1153C156.714 55.3329 154.273 56.0776 151.796 56.4492C149.885 56.7358 147.985 56.8959 146.112 56.8959C142.999 56.8959 139.927 56.4723 136.959 55.5413L136.846 55.5058ZM133.066 40.9758C133.64 41.8061 134.293 42.5475 135.024 43.1999C136.23 44.2466 137.597 45.0778 139.126 45.6933C139.182 45.7159 139.238 45.7382 139.294 45.7601C139.511 45.8443 139.73 45.9242 139.952 45.9999C141.856 46.5972 143.91 46.8959 146.112 46.8959C146.37 46.8959 146.632 46.8915 146.896 46.8828C147.975 46.8473 149.114 46.7397 150.312 46.5599C151.289 46.4133 152.202 46.179 153.051 45.8568C153.09 45.8421 153.129 45.8271 153.167 45.812C153.574 45.6525 153.967 45.4724 154.344 45.2719C155.103 44.8745 155.678 44.3767 156.07 43.7785C156.488 43.14 156.696 42.3872 156.696 41.5199C156.696 41.4499 156.695 41.3803 156.691 41.311C156.656 40.6406 156.453 40.0009 156.08 39.3918C155.67 38.7199 155.166 38.1972 154.568 37.8238C154.521 37.8527 154.473 37.8814 154.424 37.9099C154.421 37.9118 154.417 37.9137 154.414 37.9157C153.577 38.4013 152.508 38.8374 151.208 39.2239C151.199 39.2264 151.19 39.229 151.181 39.2316C151.167 39.2352 151.154 39.2388 151.141 39.2423C150.537 39.407 149.914 39.5341 149.272 39.6237C148.535 39.7265 147.774 39.7798 146.988 39.7836C146.957 39.7838 146.927 39.7839 146.896 39.7839C146.63 39.7839 146.369 39.776 146.112 39.7603C145.17 39.7027 144.295 39.5392 143.485 39.2697C143.155 39.16 142.836 39.0327 142.528 38.8879C142.483 38.8652 142.438 38.8421 142.394 38.8187C142.34 38.7898 142.286 38.7604 142.233 38.7304C141.518 38.3241 140.955 37.8119 140.545 37.1939C140.521 37.1588 140.498 37.1233 140.476 37.0875C140.456 37.0553 140.436 37.0229 140.417 36.9902C140.252 36.7097 140.115 36.4089 140.008 36.0879L153.84 34.0159C155.11 33.8292 156.099 33.3998 156.808 32.7279C157.518 32.0559 157.872 31.0852 157.872 29.8158C157.872 29.1987 157.829 28.5984 157.742 28.015C157.689 27.6552 157.619 27.3018 157.532 26.9549C157.369 26.2989 157.146 25.6659 156.864 25.0559C156.23 23.5998 155.315 22.3492 154.12 21.3038C153.866 21.0743 153.6 20.8555 153.323 20.6476C152.337 19.9086 151.202 19.306 149.92 18.8399C148.315 18.2425 146.523 17.9438 144.544 17.9438C142.79 17.9438 141.072 18.2238 139.392 18.7838C139.36 18.7941 139.327 18.8044 139.294 18.8148C139.245 18.8306 139.196 18.8467 139.146 18.8631C137.573 19.3875 136.167 20.1965 134.928 21.2901C134.923 21.2947 134.918 21.2993 134.912 21.3038C134.839 21.3665 134.767 21.4302 134.695 21.495C133.605 22.4812 132.691 23.7113 131.954 25.1853C131.908 25.2765 131.863 25.3687 131.819 25.4619C131.785 25.5313 131.753 25.6013 131.72 25.6718C131.491 26.1861 131.295 26.7308 131.132 27.3059C130.957 27.9275 130.82 28.5847 130.724 29.2775C130.604 30.131 130.544 31.0384 130.544 31.9999C130.544 34.5012 130.936 36.6852 131.72 38.5518C131.759 38.6391 131.798 38.7257 131.837 38.8115C132.197 39.5899 132.606 40.3114 133.066 40.9758ZM148.912 28.2478C148.909 28.2222 148.904 28.1965 148.9 28.1709C148.86 27.9469 148.793 27.7228 148.7 27.4988C148.682 27.4554 148.663 27.412 148.643 27.3687C148.623 27.3264 148.602 27.2841 148.581 27.2418C148.371 26.8305 148.071 26.4192 147.68 26.0079C147.594 25.9171 147.503 25.8318 147.407 25.7521C147.392 25.7398 147.377 25.7276 147.362 25.7156C146.996 25.4231 146.56 25.2081 146.054 25.0707C145.606 24.9488 145.103 24.8879 144.544 24.8879C143.648 24.8879 142.864 25.0372 142.192 25.3358C142.009 25.4221 141.835 25.5162 141.671 25.618C141.628 25.6445 141.585 25.6716 141.544 25.6991C141.514 25.719 141.484 25.7392 141.455 25.7596C141.14 25.9788 140.863 26.2295 140.624 26.5118C140.435 26.7183 140.266 26.9407 140.116 27.1789C140.092 27.2167 140.069 27.2549 140.046 27.2934C139.901 27.5394 139.777 27.8015 139.672 28.0798C139.56 28.4167 139.475 28.7603 139.417 29.1106C139.412 29.1381 139.408 29.1656 139.403 29.1932C139.379 29.355 139.359 29.5182 139.346 29.6828C139.342 29.7271 139.339 29.7714 139.336 29.8158L148.912 28.2478Z" fill="url(#paint4_linear_231_5505)"/>
    <path fill-rule="evenodd" clip-rule="evenodd" d="M99.4638 26.2878C99.4696 26.2925 99.4753 26.2973 99.4811 26.302C99.4926 26.3116 99.5041 26.3212 99.5154 26.3309C99.5861 26.3917 99.6524 26.4563 99.7143 26.5248C99.8327 26.6556 99.9352 26.8007 100.022 26.9599C100.079 27.0656 100.13 27.1776 100.174 27.2958C100.195 27.3553 100.216 27.4163 100.234 27.479C100.33 27.8045 100.377 28.1728 100.377 28.5839V41.9678C100.377 42.9012 100.489 43.6665 100.713 44.2639C100.975 44.8239 101.329 45.2719 101.777 45.6079C101.948 45.7362 102.133 45.8482 102.332 45.9439C102.652 46.0986 103.009 46.2106 103.401 46.2799C103.557 46.3058 103.717 46.3288 103.881 46.3488C104.424 46.4148 105.011 46.4479 105.641 46.4479C106.076 46.4479 106.506 46.4322 106.93 46.4008C107.307 46.3729 107.68 46.3326 108.049 46.2799C108.871 46.1679 109.487 46.0559 109.897 45.9439V26.9599C109.897 26.8764 109.891 26.793 109.88 26.7096C109.871 26.6437 109.858 26.5778 109.841 26.5118C109.94 26.4257 110.055 26.3415 110.186 26.2594C110.452 26.0925 110.785 25.934 111.185 25.7838C111.414 25.6837 111.637 25.6028 111.855 25.5411C111.875 25.5356 111.894 25.5302 111.913 25.5251C112.243 25.4363 112.561 25.3918 112.865 25.3918C113.248 25.3918 113.603 25.4245 113.929 25.4898C114.168 25.5376 114.392 25.6028 114.601 25.6855C114.915 25.8096 115.195 25.973 115.441 26.1758C115.709 26.3807 115.92 26.642 116.075 26.9599C116.127 27.0656 116.172 27.1776 116.211 27.2958C116.228 27.3478 116.244 27.4009 116.259 27.4553C116.27 27.497 116.281 27.5393 116.29 27.5824C116.291 27.5832 116.291 27.584 116.291 27.5847C116.299 27.6189 116.306 27.6534 116.313 27.6884C116.331 27.7786 116.346 27.8716 116.357 27.9677C116.37 28.0719 116.38 28.1796 116.386 28.2908C116.386 28.2932 116.386 28.2957 116.386 28.2981C116.386 28.3 116.386 28.3019 116.386 28.3038C116.391 28.3949 116.393 28.4882 116.393 28.5839V41.9678C116.393 42.9012 116.505 43.6665 116.729 44.2639C116.991 44.8239 117.345 45.2719 117.793 45.6079C117.964 45.7362 118.149 45.8482 118.348 45.9439C118.668 46.0986 119.025 46.2106 119.417 46.2799C119.573 46.3058 119.733 46.3288 119.897 46.3488C120.44 46.4148 121.027 46.4479 121.657 46.4479C122.516 46.4479 123.337 46.3918 124.121 46.2799C124.943 46.1679 125.54 46.0559 125.913 45.9439V28.3038C125.913 26.3998 125.596 24.7945 124.961 23.4878C124.327 22.1438 123.468 21.0798 122.385 20.2958C121.958 19.9603 121.503 19.6622 121.02 19.4015C120.926 19.3507 120.831 19.3014 120.735 19.2534C120.116 18.9449 119.453 18.695 118.745 18.5038C117.401 18.1305 116.02 17.9438 114.601 17.9438C113.996 17.9438 113.418 17.9665 112.865 18.0119C111.61 18.1149 110.49 18.3349 109.505 18.6718C109.211 18.7751 108.923 18.8843 108.641 18.9995C108.521 19.0486 108.401 19.0988 108.283 19.1501C107.864 19.3318 107.459 19.527 107.067 19.7357C106.611 19.9787 106.173 20.2401 105.753 20.5198C105.335 20.1884 104.887 19.8904 104.408 19.6257C104.26 19.5441 104.11 19.4656 103.956 19.3904C103.769 19.2986 103.577 19.2116 103.382 19.1292C103.316 19.1019 103.251 19.075 103.185 19.0487C102.772 18.884 102.34 18.7397 101.889 18.6158C100.433 18.1678 98.94 17.9438 97.4093 17.9438C97.222 17.9438 97.0353 17.9462 96.8493 17.9508C95.3073 17.9894 93.808 18.1881 92.3513 18.5468C92.1864 18.5874 92.0219 18.6301 91.858 18.6748C91.7294 18.7099 91.6012 18.7462 91.4733 18.7838C90.9567 18.9388 90.463 19.1067 89.9921 19.2874C88.7616 19.7597 87.6874 20.3198 86.7693 20.9678C86.0226 21.4905 85.4253 22.0505 84.9773 22.6478C84.5666 23.2452 84.3613 24.0478 84.3613 25.0559V41.9678C84.3613 42.9012 84.4733 43.6665 84.6973 44.2639C84.9586 44.8239 85.3133 45.2719 85.7613 45.6079C85.9324 45.7362 86.1172 45.8482 86.3155 45.9439C86.6365 46.0986 86.9931 46.2106 87.3853 46.2799C88.0573 46.3918 88.804 46.4479 89.6253 46.4479C90.0649 46.4479 90.4946 46.4332 90.9146 46.4038C91.3151 46.3758 91.7066 46.3345 92.0893 46.2799C92.9106 46.1679 93.508 46.0559 93.8813 45.9439V26.2878C93.9866 26.2294 94.0992 26.1709 94.2192 26.1124C94.2654 26.0898 94.3128 26.0672 94.3613 26.0447C94.5881 25.9391 94.8387 25.8334 95.1133 25.7278C95.5986 25.5038 96.1773 25.3918 96.8493 25.3918C97.0418 25.3918 97.2285 25.4021 97.4093 25.4227C98.1399 25.5058 98.7746 25.7569 99.3133 26.1758C99.3654 26.2115 99.4155 26.2488 99.4638 26.2878ZM93.4702 56.1841C92.1915 56.365 90.9069 56.4479 89.6253 56.4479C88.3612 56.4479 87.0537 56.3625 85.7413 56.1438L85.6943 56.136L85.6475 56.1277C83.7007 55.7841 81.6425 55.0187 79.7613 53.6078C77.8661 52.1864 76.5186 50.3851 75.6355 48.4927L75.4708 48.1398L75.334 47.7751C75.0203 46.9385 74.8025 46.1087 74.6538 45.3105C75.0563 45.1269 75.4372 44.9274 75.7964 44.7118C76.543 44.2639 77.1777 43.7412 77.7004 43.1439C78.003 42.8009 78.2238 42.4089 78.3629 41.9678C78.4812 41.5927 78.5404 41.182 78.5404 40.7359V28.1918C78.5404 27.0424 78.4042 25.997 78.1318 25.0559C77.9884 24.5603 77.8073 24.0936 77.5884 23.6558C76.9828 22.4092 76.1224 21.3834 75.0071 20.5785C75.3712 19.3906 75.9219 18.1679 76.7369 16.9826L76.8536 16.8127L76.9773 16.6478C78.1771 15.0482 79.5946 13.7858 81.0177 12.7875C83.3566 11.1394 85.9561 9.99871 88.5998 9.20559L88.6257 9.19782L88.6516 9.19019C91.5033 8.35145 94.4341 7.94385 97.4093 7.94385C99.8826 7.94385 102.319 8.30107 104.688 9.01488C105.07 9.1225 105.449 9.24011 105.826 9.36808C105.947 9.32367 106.069 9.28006 106.19 9.23725L106.229 9.22357L106.268 9.21021C109.002 8.27507 111.852 7.94385 114.601 7.94385C116.898 7.94385 119.169 8.24613 121.389 8.85959C123.896 9.54172 126.28 10.673 128.413 12.316C130.91 14.1677 132.736 16.5515 133.981 19.1697C134.327 19.8882 134.618 20.6163 134.861 21.3487C133.578 22.4626 132.531 23.9037 131.721 25.6718C131.362 26.4749 131.085 27.3522 130.891 28.3038C130.66 29.4315 130.545 30.6635 130.545 31.9999C130.545 34.5012 130.937 36.6852 131.721 38.5518C132.542 40.4185 133.643 41.9678 135.025 43.1999C135.312 43.4491 135.608 43.6862 135.913 43.911V53.3842L128.787 55.5221C127.632 55.8684 126.396 56.0617 125.502 56.1842C124.223 56.3651 122.939 56.4479 121.657 56.4479C120.393 56.4479 119.086 56.3625 117.773 56.1438L117.726 56.136L117.679 56.1277C116.58 55.9336 115.445 55.6049 114.326 55.1013L112.528 55.5915C111.481 55.8772 110.355 56.0574 109.43 56.1841C108.172 56.3622 106.907 56.4479 105.641 56.4479C104.377 56.4479 103.07 56.3625 101.757 56.1438L101.71 56.136L101.663 56.1277C100.544 55.9301 99.3874 55.593 98.249 55.0739L96.7548 55.5221C95.6007 55.8683 94.3645 56.0616 93.4702 56.1841Z" fill="url(#paint5_linear_231_5505)"/>
    <path fill-rule="evenodd" clip-rule="evenodd" d="M52.6265 36.4702C52.5914 36.7805 52.5694 37.101 52.5606 37.4319C52.5576 37.5427 52.5562 37.6547 52.5562 37.7679C52.5562 39.2985 52.8548 40.6425 53.4522 41.7999C54.0868 42.9572 54.9642 43.9092 56.0842 44.6558C56.4737 44.9072 56.8865 45.1373 57.3225 45.3463C57.4952 45.4291 57.6715 45.5086 57.8515 45.5847C58.5674 45.8876 59.3409 46.1379 60.1722 46.3358C61.7775 46.7092 63.5695 46.8959 65.5482 46.8959C66.6494 46.8959 67.6889 46.8504 68.6665 46.7594C68.7594 46.7507 68.8518 46.7417 68.9437 46.7322C70.5807 46.5633 72.0401 46.2637 73.3219 45.8335C74.2372 45.5262 75.062 45.1524 75.7962 44.7118C76.5428 44.2639 77.1775 43.7412 77.7002 43.1439C78.2602 42.5092 78.5402 41.7065 78.5402 40.7359V28.1918C78.5402 28.1544 78.54 28.1171 78.5397 28.0798C78.5277 26.5319 78.2658 25.1751 77.754 24.0094C77.7013 23.8895 77.6461 23.7717 77.5882 23.6558C76.9535 22.3492 76.0388 21.2852 74.8442 20.4638C73.896 19.7604 72.7724 19.2072 71.4734 18.8045C71.3552 18.7678 71.2356 18.7324 71.1145 18.6982C70.942 18.6496 70.7665 18.6035 70.5882 18.5598C68.9455 18.1492 67.1162 17.9438 65.1002 17.9438C64.6626 17.9438 64.2146 17.9543 63.7562 17.9752C62.8455 18.0168 61.8935 18.0997 60.9002 18.2238C59.8814 18.3545 58.954 18.5399 58.118 18.7802C57.7592 18.8833 57.4173 18.9965 57.0922 19.1198C56.1734 19.5086 55.472 19.9809 54.988 20.5369C54.9607 20.5683 54.9341 20.5999 54.9082 20.6319C54.5329 21.1009 54.3148 21.7141 54.2539 22.4713C54.2421 22.6181 54.2362 22.7703 54.2362 22.9278C54.2362 23.6745 54.4042 24.4025 54.7402 25.1119C55.0762 25.7838 55.4868 26.2878 55.9722 26.6238C57.0304 26.186 58.2135 25.8194 59.5214 25.5242C59.5516 25.5174 59.5818 25.5106 59.6122 25.5038C59.6673 25.4916 59.7226 25.4796 59.7778 25.4678C60.0692 25.4059 60.3623 25.3509 60.6572 25.3029C60.6821 25.2989 60.7071 25.2949 60.732 25.2909C60.9962 25.249 61.2618 25.2127 61.5288 25.1821C61.5318 25.1817 61.5348 25.1814 61.5377 25.181C61.6139 25.1723 61.6903 25.164 61.7667 25.1562C61.774 25.1555 61.7813 25.1547 61.7886 25.154C62.4363 25.0886 63.0921 25.0559 63.7562 25.0559C63.7666 25.0559 63.7771 25.0559 63.7875 25.0559C64.1487 25.0564 64.4923 25.0669 64.8184 25.0873C64.9138 25.0933 65.0078 25.1001 65.1002 25.1078C66.2454 25.2028 67.1601 25.4281 67.8442 25.7838C68.164 25.9315 68.4311 26.1135 68.6456 26.3301C68.649 26.3335 68.6525 26.337 68.6559 26.3405C68.664 26.3488 68.6721 26.3572 68.6801 26.3657C68.8973 26.5949 69.0575 26.8614 69.1605 27.1653C69.2164 27.33 69.2555 27.5057 69.2778 27.6923C69.2823 27.7295 69.2861 27.7672 69.2892 27.8053C69.2928 27.8496 69.2956 27.8945 69.2974 27.9399C69.2992 27.986 69.3002 28.0326 69.3002 28.0798V28.4718L68.912 28.5133L61.9642 29.2558C61.4516 29.3095 60.9604 29.3765 60.4906 29.4568C60.1438 29.516 59.8086 29.5826 59.4852 29.6564C59.4486 29.6647 59.4121 29.6731 59.3759 29.6817C58.6902 29.8429 58.0578 30.0373 57.4788 30.2648C56.4276 30.6779 55.5521 31.2002 54.8522 31.8318C53.5894 32.9714 52.8475 34.5176 52.6265 36.4702ZM62.5529 39.2559C62.5619 39.2639 62.571 39.2719 62.5802 39.2799C63.1071 39.6751 63.9392 39.896 65.0763 39.9425C65.2282 39.9487 65.3854 39.9519 65.5482 39.9519C65.5892 39.9519 65.6306 39.9516 65.6721 39.9511C65.6914 39.9509 65.7107 39.9507 65.73 39.9503C66.3142 39.9407 66.9442 39.8852 67.6202 39.7839C67.967 39.7178 68.2737 39.6444 68.5402 39.5637C68.5867 39.5496 68.6321 39.5353 68.6762 39.5207C68.9502 39.4304 69.1769 39.3314 69.3562 39.2239V34.7439L65.3242 35.0798C64.2788 35.1545 63.4202 35.3785 62.7482 35.7519C62.7194 35.7678 62.6912 35.7842 62.6636 35.8009C62.6591 35.8036 62.6545 35.8064 62.65 35.8092C62.3578 35.9886 62.136 36.207 61.9846 36.4646C61.9616 36.5037 61.9403 36.5436 61.9205 36.5845C61.8237 36.785 61.7659 37.0072 61.747 37.2511C61.7424 37.3101 61.7402 37.3703 61.7402 37.4319C61.7402 37.4619 61.7406 37.4918 61.7415 37.5215C61.7441 37.6053 61.7503 37.6874 61.7601 37.7679C61.7936 38.042 61.8693 38.2965 61.9872 38.5313C61.9968 38.5504 62.0067 38.5694 62.0168 38.5883C62.0327 38.6177 62.0493 38.6469 62.0665 38.6757C62.1847 38.8734 62.335 39.0561 62.5174 39.2239C62.5291 39.2346 62.5409 39.2453 62.5529 39.2559ZM72.9886 8.8522C70.4269 8.21431 67.7749 7.94385 65.1002 7.94385C63.3223 7.94385 61.5043 8.0705 59.6598 8.30107L59.6442 8.30303L59.6285 8.30503C57.5911 8.56624 55.5263 9.01859 53.5456 9.76987L53.3694 9.83673L53.1958 9.91018C51.2481 10.7342 48.9738 12.0776 47.147 14.3259L47.1231 14.3553L47.0995 14.3849C46.751 14.8204 46.4424 15.2643 46.1696 15.7124C46.36 16.1999 46.4552 16.7197 46.4552 17.2718C46.4552 18.2425 46.2126 19.0825 45.7272 19.7918C45.3136 20.3964 44.8457 20.8925 44.3236 21.2801C44.2616 21.8574 44.2362 22.4103 44.2362 22.9278C44.2362 23.8055 44.3131 24.666 44.4603 25.5044C45.3022 25.5155 45.9933 25.7099 46.5334 26.0875C46.6876 26.1953 46.8296 26.3181 46.9592 26.4558C47.4617 26.9288 47.7653 27.5656 47.8699 28.3662C47.8773 28.4224 47.8837 28.4795 47.8891 28.5374C47.9038 28.6961 47.9112 28.8609 47.9112 29.0318V40.4559C47.9112 41.6132 47.7059 42.4719 47.2952 43.0319C46.8846 43.5919 46.2312 44.1332 45.3352 44.6558C44.9692 44.865 44.5391 45.0742 44.0449 45.2833C44.2041 45.6533 44.3775 46.0212 44.566 46.3863L44.6236 46.498L44.684 46.6082C46.1095 49.2075 48.1037 51.3541 50.5372 52.9764L50.5997 53.0181L50.6629 53.0588C52.9194 54.5146 55.3691 55.4718 57.856 56.0639L57.8815 56.07L57.907 56.0759C60.3855 56.6523 62.9537 56.8959 65.5482 56.8959C70.8425 56.8959 76.3238 56.0572 80.9411 53.2868C82.4898 52.3576 83.947 51.1878 85.2156 49.7407C86.1681 48.6571 86.8888 47.4886 87.4114 46.2842C87.4026 46.2828 87.3939 46.2813 87.3851 46.2799C86.7504 46.1679 86.2091 45.9439 85.7611 45.6079C85.3131 45.2719 84.9584 44.8239 84.6971 44.2639C84.4731 43.6665 84.3611 42.9012 84.3611 41.9678V25.0559C84.3611 24.0478 84.5664 23.2452 84.9771 22.6478C85.4251 22.0505 86.0224 21.4905 86.7691 20.9678C86.9081 20.8698 87.0506 20.7737 87.1967 20.6796C87.0075 20.1952 86.7954 19.7137 86.5587 19.2365C85.1964 16.4527 83.1963 14.1081 80.6586 12.3271C78.2841 10.599 75.6471 9.50496 72.9886 8.8522Z" fill="url(#paint6_linear_231_5505)"/>
    <path fill-rule="evenodd" clip-rule="evenodd" d="M46.7379 54.9719L46.5376 55.0387C45.3653 55.4294 44.1617 55.7423 42.9439 55.9925C41.6223 56.3008 40.2764 56.5224 38.9152 56.6689C37.5496 56.8199 36.1797 56.8958 34.8073 56.8958C31.2326 56.8958 27.732 56.4229 24.3599 55.4059L24.2905 55.385L24.2215 55.3631C20.7435 54.2589 17.5265 52.5675 14.7016 50.2234L14.6127 50.1497L14.5255 50.0739C11.6646 47.5861 9.46831 44.5585 7.90623 41.1451C6.19226 37.3997 5.4873 33.3745 5.4873 29.3118C5.4873 25.0776 6.23775 20.8852 8.07997 17.0102L8.10849 16.9502L8.1378 16.8906C9.8199 13.4704 12.1127 10.4383 15.0695 7.97226C17.9032 5.60284 21.1141 3.84737 24.6253 2.71473L24.6474 2.7076L24.6695 2.70057C27.9986 1.64373 31.4271 1.11182 34.9193 1.11182C39.3519 1.11182 44.037 1.80247 48.1374 4.08474C52.3212 6.35773 56.4553 10.6857 56.4553 17.2718C56.4553 18.0097 56.403 18.7589 56.2915 19.5105C55.7771 19.8006 55.3568 20.1268 55.0304 20.4892C54.9881 20.5361 54.9474 20.5837 54.9082 20.6318C54.4602 21.1918 54.2362 21.9571 54.2362 22.9278C54.2362 23.49 54.3315 24.0416 54.522 24.5827C54.5845 24.7602 54.6572 24.9366 54.7402 25.1118C55.0762 25.7838 55.4869 26.2878 55.9722 26.6238C56.4879 26.4104 57.0333 26.214 57.6082 26.0345C57.8234 27.0759 57.9113 28.0908 57.9113 29.0318V30.1045C56.6657 30.5397 55.646 31.1155 54.8522 31.8318C53.3216 33.2132 52.5562 35.1918 52.5562 37.7678C52.5562 38.739 52.6765 39.635 52.9169 40.4558C53.0554 40.9288 53.2339 41.3768 53.4522 41.7998C54.0869 42.9571 54.9642 43.9091 56.0842 44.6558C56.4389 44.8847 56.8129 45.096 57.2062 45.2897C56.8241 46.4891 56.2417 47.7422 55.3594 48.9454C53.8393 51.0183 51.9229 52.3901 50.374 53.2936L50.3355 53.3161L50.2967 53.3382C49.1885 53.9715 48.0299 54.4797 46.9353 54.8967L46.7379 54.9719ZM36.7418 19.0349C37.7484 19.0948 38.6885 19.2543 39.5623 19.5135C39.6159 19.5293 39.6692 19.5456 39.7223 19.5622C39.9945 19.6476 40.2602 19.7428 40.5193 19.8478C41.938 20.3705 43.114 20.9118 44.0473 21.4718C44.1617 21.3978 44.2737 21.3189 44.3833 21.2351C44.8815 20.8544 45.3295 20.3733 45.7273 19.7918C46.1803 19.1297 46.4219 18.3537 46.4521 17.4639C46.4542 17.4004 46.4553 17.3364 46.4553 17.2718C46.4553 16.6789 46.3455 16.1232 46.1259 15.6048C45.6712 14.5317 44.7461 13.6183 43.3504 12.8645C43.34 12.8589 43.3297 12.8534 43.3193 12.8478C43.2587 12.8136 43.1974 12.78 43.1355 12.7468C41.2798 11.7531 38.8398 11.2124 35.8153 11.1246C35.5221 11.1161 35.2235 11.1118 34.9193 11.1118C32.4553 11.1118 30.0473 11.4851 27.6953 12.2318C25.6216 12.9008 23.7427 13.8843 22.0585 15.1825C22.0343 15.2012 22.0101 15.2199 21.986 15.2387C21.8151 15.3718 21.6462 15.5082 21.4793 15.6478C19.6873 17.1411 18.2313 19.0265 17.1113 21.3038C16.6732 22.2253 16.3238 23.2109 16.063 24.2607C15.6792 25.8055 15.4873 27.4892 15.4873 29.3118C15.4873 31.4301 15.754 33.3607 16.2874 35.1037C16.4873 35.7567 16.7246 36.3835 16.9993 36.9838C17.0246 37.0391 17.0501 37.0941 17.0758 37.1489C17.1264 37.2567 17.1779 37.3636 17.2302 37.4696C18.2121 39.4595 19.4978 41.1456 21.0873 42.5278C21.4057 42.792 21.7339 43.0445 22.0719 43.2853C22.1297 43.3265 22.1878 43.3674 22.2462 43.4079C23.728 44.4358 25.395 45.2438 27.2473 45.8318C27.6659 45.958 28.0897 46.073 28.5189 46.1768C28.5979 46.1959 28.677 46.2146 28.7563 46.2329C30.6686 46.6749 32.6856 46.8958 34.8073 46.8958C34.8446 46.8958 34.882 46.8957 34.9193 46.8956C35.89 46.8916 36.8606 46.8357 37.8313 46.7278C38.204 46.6879 38.5695 46.6408 38.928 46.5867C39.5749 46.4889 40.1987 46.368 40.7993 46.2238C41.4682 46.09 42.0988 45.9371 42.691 45.7649C42.9251 45.6969 43.1532 45.6258 43.3753 45.5518C44.1593 45.2532 44.8126 44.9545 45.3353 44.6558C46.2313 44.1332 46.8846 43.5918 47.2953 43.0318C47.706 42.4718 47.9113 41.6132 47.9113 40.4558V29.0318C47.9113 27.9118 47.594 27.0532 46.9593 26.4558C46.362 25.8212 45.5033 25.5038 44.3833 25.5038H34.9193C34.0581 25.5038 33.3292 25.7389 32.7325 26.2091C32.7157 26.2223 32.6991 26.2357 32.6826 26.2492C32.6436 26.2812 32.6051 26.3142 32.5673 26.3483C32.5485 26.3652 32.5298 26.3824 32.5113 26.3998C31.9392 26.972 31.641 27.8866 31.6169 29.1438C31.6158 29.1992 31.6153 29.2552 31.6153 29.3118C31.6153 29.9949 31.6934 30.6468 31.8497 31.2674C31.8642 31.3252 31.8794 31.3826 31.8953 31.4398C31.8995 31.4525 31.9038 31.4652 31.908 31.4778C32.0275 31.8335 32.1469 32.152 32.2663 32.4334C32.2857 32.4789 32.305 32.5234 32.3243 32.567C32.4053 32.7497 32.4863 32.9153 32.5673 33.0638H38.5593V38.3278C38.5354 38.3411 38.5107 38.3543 38.4853 38.3674C38.3243 38.4503 38.133 38.5295 37.9113 38.6048C37.6761 38.6847 37.4068 38.7604 37.1033 38.8318C37.0652 38.8408 37.0268 38.8495 36.9881 38.8579C36.978 38.8601 36.9678 38.8623 36.9576 38.8644C36.3579 38.992 35.6785 39.0558 34.9193 39.0558C34.8819 39.0558 34.8446 39.0557 34.8073 39.0553C34.0326 39.0486 33.286 38.9718 32.5673 38.8251C32.1471 38.7393 31.7364 38.6295 31.3353 38.4958C31.191 38.4429 31.0489 38.3869 30.909 38.3278C30.525 38.1657 30.1574 37.9802 29.8061 37.7715C29.7699 37.7499 29.7338 37.7281 29.6979 37.7061C29.2967 37.4598 28.9171 37.1825 28.5593 36.8741C28.4946 36.8184 28.4306 36.7616 28.3673 36.7038C28.0766 36.4257 27.8051 36.1241 27.5529 35.7989C27.4564 35.6746 27.3628 35.5467 27.2719 35.4155C27.2291 35.3535 27.1868 35.2908 27.1452 35.2273C26.8247 34.7383 26.5414 34.2038 26.2953 33.6238C26.2597 33.5307 26.2254 33.4363 26.1924 33.3408C26.1594 33.2452 26.1277 33.1484 26.0973 33.0504C26.0765 32.9835 26.0564 32.916 26.0368 32.848C25.9915 32.6899 25.9494 32.5288 25.9106 32.3646C25.6926 31.4428 25.5785 30.4252 25.5681 29.3118C25.5676 29.2561 25.5673 29.2001 25.5673 29.1438C25.5673 28.221 25.6446 27.3566 25.7993 26.5507C25.8568 26.2514 25.9249 25.9602 26.0036 25.6771C26.0156 25.6341 26.0278 25.5913 26.0402 25.5487C26.3453 24.5045 26.7978 23.5716 27.398 22.7502C27.4018 22.7451 27.4055 22.74 27.4093 22.7349C27.6104 22.4609 27.8279 22.1995 28.0619 21.9504C28.1054 21.9041 28.1495 21.8583 28.1941 21.8128C28.2328 21.7735 28.2718 21.7345 28.3113 21.6958C28.8952 21.1353 29.5412 20.6624 30.2494 20.2772C30.2611 20.2708 30.2727 20.2645 30.2845 20.2582C31.6123 19.5433 33.1572 19.135 34.9193 19.0332C35.212 19.0163 35.5107 19.0078 35.8153 19.0078C36.1302 19.0078 36.439 19.0168 36.7418 19.0349Z" fill="url(#paint7_linear_231_5505)"/>
    <g filter="url(#filter0_dii_231_5505)">
    <path d="M46.9113 40.456C46.9113 41.6133 46.706 42.472 46.2953 43.032C45.8847 43.592 45.2313 44.1333 44.3353 44.656C43.8127 44.9547 43.1593 45.2533 42.3753 45.552C41.5913 45.8133 40.7327 46.0373 39.7993 46.224C38.866 46.448 37.8767 46.616 36.8313 46.728C35.8233 46.84 34.8153 46.896 33.8073 46.896C31.1193 46.896 28.5993 46.5413 26.2473 45.832C23.8953 45.0853 21.842 43.984 20.0873 42.528C18.37 41.0347 17.0073 39.1867 15.9993 36.984C14.9913 34.7813 14.4873 32.224 14.4873 29.312C14.4873 26.2507 15.0287 23.5813 16.1113 21.304C17.2313 19.0267 18.6873 17.1413 20.4793 15.648C22.3087 14.1173 24.3807 12.9787 26.6953 12.232C29.0473 11.4853 31.4553 11.112 33.9193 11.112C37.466 11.112 40.266 11.6907 42.3193 12.848C44.41 13.968 45.4553 15.4427 45.4553 17.272C45.4553 18.2427 45.2127 19.0827 44.7273 19.792C44.242 20.5013 43.682 21.0613 43.0473 21.472C42.114 20.912 40.938 20.3707 39.5193 19.848C38.138 19.288 36.57 19.008 34.8153 19.008C31.6793 19.008 29.178 19.904 27.3113 21.696C25.482 23.488 24.5673 25.9707 24.5673 29.144C24.5673 30.8613 24.81 32.3547 25.2953 33.624C25.818 34.856 26.5087 35.8827 27.3673 36.704C28.226 37.488 29.2153 38.0853 30.3353 38.496C31.4553 38.8693 32.65 39.056 33.9193 39.056C34.7407 39.056 35.4687 38.9813 36.1033 38.832C36.738 38.6827 37.2233 38.5147 37.5593 38.328V33.064H31.5673C31.3433 32.6533 31.1193 32.112 30.8953 31.44C30.7087 30.768 30.6153 30.0587 30.6153 29.312C30.6153 27.968 30.914 26.9973 31.5113 26.4C32.146 25.8027 32.9487 25.504 33.9193 25.504H43.3833C44.5033 25.504 45.362 25.8213 45.9593 26.456C46.594 27.0533 46.9113 27.912 46.9113 29.032V40.456ZM64.5483 39.952C65.1829 39.952 65.8736 39.896 66.6203 39.784C67.4043 39.6347 67.9829 39.448 68.3563 39.224V34.744L64.3243 35.08C63.2789 35.1547 62.4203 35.3787 61.7483 35.752C61.0763 36.1253 60.7403 36.6853 60.7403 37.432C60.7403 38.1787 61.0203 38.7947 61.5803 39.28C62.1776 39.728 63.1669 39.952 64.5483 39.952ZM64.1003 17.944C66.1163 17.944 67.9456 18.1493 69.5883 18.56C71.2683 18.9707 72.6869 19.6053 73.8443 20.464C75.0389 21.2853 75.9536 22.3493 76.5883 23.656C77.2229 24.9253 77.5403 26.4373 77.5403 28.192V40.736C77.5403 41.7067 77.2603 42.5093 76.7003 43.144C76.1776 43.7413 75.5429 44.264 74.7963 44.712C72.3696 46.168 68.9536 46.896 64.5483 46.896C62.5696 46.896 60.7776 46.7093 59.1723 46.336C57.6043 45.9627 56.2416 45.4027 55.0843 44.656C53.9643 43.9093 53.0869 42.9573 52.4523 41.8C51.8549 40.6427 51.5563 39.2987 51.5563 37.768C51.5563 35.192 52.3216 33.2133 53.8523 31.832C55.3829 30.4507 57.7536 29.592 60.9643 29.256L68.3003 28.472V28.08C68.3003 26.9973 67.8149 26.232 66.8443 25.784C65.9109 25.2987 64.5483 25.056 62.7563 25.056C61.3376 25.056 59.9563 25.2053 58.6123 25.504C57.2683 25.8027 56.0549 26.176 54.9723 26.624C54.4869 26.288 54.0763 25.784 53.7403 25.112C53.4043 24.4027 53.2363 23.6747 53.2363 22.928C53.2363 21.9573 53.4603 21.192 53.9083 20.632C54.3936 20.0347 55.1216 19.5307 56.0923 19.12C57.1749 18.7093 58.4443 18.4107 59.9003 18.224C61.3936 18.0373 62.7936 17.944 64.1003 17.944ZM96.4092 17.944C97.9399 17.944 99.4332 18.168 100.889 18.616C102.383 19.0267 103.671 19.6613 104.753 20.52C105.873 19.7733 107.124 19.1573 108.505 18.672C109.924 18.1867 111.623 17.944 113.601 17.944C115.02 17.944 116.401 18.1307 117.745 18.504C119.127 18.8773 120.34 19.4747 121.385 20.296C122.468 21.08 123.327 22.144 123.961 23.488C124.596 24.7947 124.913 26.4 124.913 28.304V45.944C124.54 46.056 123.943 46.168 123.121 46.28C122.337 46.392 121.516 46.448 120.657 46.448C119.836 46.448 119.089 46.392 118.417 46.28C117.783 46.168 117.241 45.944 116.793 45.608C116.345 45.272 115.991 44.824 115.729 44.264C115.505 43.6667 115.393 42.9013 115.393 41.968V28.584C115.393 27.464 115.076 26.6613 114.441 26.176C113.807 25.6533 112.948 25.392 111.865 25.392C111.343 25.392 110.783 25.5227 110.185 25.784C109.588 26.008 109.14 26.2507 108.841 26.512C108.879 26.6613 108.897 26.8107 108.897 26.96C108.897 27.072 108.897 27.184 108.897 27.296V45.944C108.487 46.056 107.871 46.168 107.049 46.28C106.265 46.392 105.463 46.448 104.641 46.448C103.82 46.448 103.073 46.392 102.401 46.28C101.767 46.168 101.225 45.944 100.777 45.608C100.329 45.272 99.9746 44.824 99.7132 44.264C99.4892 43.6667 99.3772 42.9013 99.3772 41.968V28.584C99.3772 27.464 99.0226 26.6613 98.3132 26.176C97.6412 25.6533 96.8199 25.392 95.8492 25.392C95.1772 25.392 94.5986 25.504 94.1132 25.728C93.6279 25.9147 93.2172 26.1013 92.8812 26.288V45.944C92.5079 46.056 91.9106 46.168 91.0892 46.28C90.3052 46.392 89.4839 46.448 88.6252 46.448C87.8039 46.448 87.0572 46.392 86.3852 46.28C85.7506 46.168 85.2092 45.944 84.7612 45.608C84.3132 45.272 83.9586 44.824 83.6972 44.264C83.4732 43.6667 83.3612 42.9013 83.3612 41.968V25.056C83.3612 24.048 83.5666 23.2453 83.9772 22.648C84.4252 22.0507 85.0226 21.4907 85.7692 20.968C87.0386 20.072 88.6066 19.344 90.4732 18.784C92.3772 18.224 94.3559 17.944 96.4092 17.944ZM145.113 46.896C142.91 46.896 140.857 46.5973 138.953 46C137.086 45.3653 135.443 44.432 134.025 43.2C132.643 41.968 131.542 40.4187 130.721 38.552C129.937 36.6853 129.545 34.5013 129.545 32C129.545 29.536 129.937 27.4267 130.721 25.672C131.542 23.88 132.606 22.424 133.913 21.304C135.219 20.1467 136.713 19.3067 138.393 18.784C140.073 18.224 141.79 17.944 143.545 17.944C145.523 17.944 147.315 18.2427 148.921 18.84C150.563 19.4373 151.963 20.2587 153.121 21.304C154.315 22.3493 155.23 23.6 155.865 25.056C156.537 26.512 156.873 28.0987 156.873 29.816C156.873 31.0853 156.518 32.056 155.809 32.728C155.099 33.4 154.11 33.8293 152.841 34.016L139.009 36.088C139.419 37.32 140.259 38.2533 141.529 38.888C142.798 39.4853 144.254 39.784 145.897 39.784C147.427 39.784 148.865 39.5973 150.209 39.224C151.59 38.8133 152.71 38.3467 153.569 37.824C154.166 38.1973 154.67 38.72 155.081 39.392C155.491 40.064 155.697 40.7733 155.697 41.52C155.697 43.2 154.913 44.4507 153.345 45.272C152.15 45.9067 150.806 46.336 149.313 46.56C147.819 46.784 146.419 46.896 145.113 46.896ZM143.545 24.888C142.649 24.888 141.865 25.0373 141.193 25.336C140.558 25.6347 140.035 26.0267 139.625 26.512C139.214 26.96 138.897 27.4827 138.673 28.08C138.486 28.64 138.374 29.2187 138.337 29.816L147.913 28.248C147.801 27.5013 147.39 26.7547 146.681 26.008C145.971 25.2613 144.926 24.888 143.545 24.888ZM171.714 28.976C171.714 26.064 172.162 23.488 173.058 21.248C173.991 19.008 175.242 17.1413 176.81 15.648C178.415 14.1173 180.282 12.96 182.41 12.176C184.575 11.392 186.909 11 189.41 11C191.911 11 194.226 11.392 196.354 12.176C198.519 12.96 200.405 14.1173 202.01 15.648C203.615 17.1413 204.866 19.008 205.762 21.248C206.695 23.488 207.162 26.064 207.162 28.976C207.162 31.888 206.714 34.4827 205.818 36.76C204.922 39 203.671 40.8853 202.066 42.416C200.498 43.9093 198.631 45.048 196.466 45.832C194.301 46.616 191.949 47.008 189.41 47.008C186.871 47.008 184.519 46.616 182.354 45.832C180.189 45.0107 178.322 43.8347 176.754 42.304C175.186 40.7733 173.954 38.888 173.058 36.648C172.162 34.408 171.714 31.8507 171.714 28.976ZM181.794 28.976C181.794 32.3733 182.485 34.912 183.866 36.592C185.247 38.272 187.095 39.112 189.41 39.112C191.762 39.112 193.629 38.272 195.01 36.592C196.391 34.912 197.082 32.3733 197.082 28.976C197.082 25.616 196.391 23.096 195.01 21.416C193.666 19.736 191.818 18.896 189.466 18.896C187.151 18.896 185.285 19.736 183.866 21.416C182.485 23.0587 181.794 25.5787 181.794 28.976ZM229.585 45.272C229.062 45.6827 228.297 46.0187 227.289 46.28C226.281 46.5413 225.142 46.672 223.873 46.672C222.417 46.672 221.147 46.4853 220.065 46.112C219.019 45.7387 218.291 45.1413 217.881 44.32C217.545 43.6853 217.134 42.808 216.649 41.688C216.201 40.5307 215.715 39.2613 215.193 37.88C214.67 36.4613 214.129 34.9493 213.569 33.344C213.009 31.7387 212.467 30.152 211.945 28.584C211.459 27.016 211.011 25.504 210.601 24.048C210.19 22.592 209.854 21.304 209.593 20.184C210.115 19.6613 210.806 19.2133 211.665 18.84C212.561 18.4293 213.531 18.224 214.577 18.224C215.883 18.224 216.947 18.504 217.769 19.064C218.627 19.5867 219.262 20.5947 219.673 22.088L221.857 30.656C222.267 32.336 222.659 33.8667 223.033 35.248C223.406 36.592 223.686 37.6373 223.873 38.384H224.153C224.862 35.6213 225.609 32.56 226.393 29.2C227.177 25.84 227.886 22.536 228.521 19.288C229.155 18.952 229.865 18.6907 230.649 18.504C231.47 18.3173 232.254 18.224 233.001 18.224C234.307 18.224 235.409 18.504 236.305 19.064C237.201 19.624 237.649 20.5947 237.649 21.976C237.649 22.5733 237.499 23.4507 237.201 24.608C236.939 25.728 236.585 27.016 236.137 28.472C235.726 29.8907 235.222 31.4027 234.625 33.008C234.065 34.6133 233.486 36.1813 232.889 37.712C232.291 39.2427 231.694 40.68 231.097 42.024C230.537 43.3307 230.033 44.4133 229.585 45.272ZM256.019 46.896C253.816 46.896 251.763 46.5973 249.859 46C247.992 45.3653 246.35 44.432 244.931 43.2C243.55 41.968 242.448 40.4187 241.627 38.552C240.843 36.6853 240.451 34.5013 240.451 32C240.451 29.536 240.843 27.4267 241.627 25.672C242.448 23.88 243.512 22.424 244.819 21.304C246.126 20.1467 247.619 19.3067 249.299 18.784C250.979 18.224 252.696 17.944 254.451 17.944C256.43 17.944 258.222 18.2427 259.827 18.84C261.47 19.4373 262.87 20.2587 264.027 21.304C265.222 22.3493 266.136 23.6 266.771 25.056C267.443 26.512 267.779 28.0987 267.779 29.816C267.779 31.0853 267.424 32.056 266.715 32.728C266.006 33.4 265.016 33.8293 263.747 34.016L249.915 36.088C250.326 37.32 251.166 38.2533 252.435 38.888C253.704 39.4853 255.16 39.784 256.803 39.784C258.334 39.784 259.771 39.5973 261.115 39.224C262.496 38.8133 263.616 38.3467 264.475 37.824C265.072 38.1973 265.576 38.72 265.987 39.392C266.398 40.064 266.603 40.7733 266.603 41.52C266.603 43.2 265.819 44.4507 264.251 45.272C263.056 45.9067 261.712 46.336 260.219 46.56C258.726 46.784 257.326 46.896 256.019 46.896ZM254.451 24.888C253.555 24.888 252.771 25.0373 252.099 25.336C251.464 25.6347 250.942 26.0267 250.531 26.512C250.12 26.96 249.803 27.4827 249.579 28.08C249.392 28.64 249.28 29.2187 249.243 29.816L258.819 28.248C258.707 27.5013 258.296 26.7547 257.587 26.008C256.878 25.2613 255.832 24.888 254.451 24.888ZM281.881 45.944C281.508 46.056 280.911 46.168 280.089 46.28C279.305 46.392 278.484 46.448 277.625 46.448C276.804 46.448 276.057 46.392 275.385 46.28C274.751 46.168 274.209 45.944 273.761 45.608C273.313 45.272 272.959 44.824 272.697 44.264C272.473 43.6667 272.361 42.9013 272.361 41.968V25.168C272.361 24.3093 272.511 23.5813 272.809 22.984C273.145 22.3493 273.612 21.7893 274.209 21.304C274.807 20.8187 275.535 20.3893 276.393 20.016C277.289 19.6053 278.241 19.2507 279.249 18.952C280.257 18.6533 281.303 18.4293 282.385 18.28C283.468 18.0933 284.551 18 285.633 18C287.425 18 288.844 18.3547 289.889 19.064C290.935 19.736 291.457 20.856 291.457 22.424C291.457 22.9467 291.383 23.4693 291.233 23.992C291.084 24.4773 290.897 24.9253 290.673 25.336C289.889 25.336 289.087 25.3733 288.265 25.448C287.444 25.5227 286.641 25.6347 285.857 25.784C285.073 25.9333 284.327 26.1013 283.617 26.288C282.945 26.4373 282.367 26.624 281.881 26.848V45.944Z" fill="#617E84"/>
    </g>
    <defs>
    <filter id="filter0_dii_231_5505" x="10.4873" y="8" width="284.97" height="44.0078" filterUnits="userSpaceOnUse" color-interpolation-filters="sRGB">
    <feFlood flood-opacity="0" result="BackgroundImageFix"/>
    <feColorMatrix in="SourceAlpha" type="matrix" values="0 0 0 0 0 0 0 0 0 0 0 0 0 0 0 0 0 0 127 0" result="hardAlpha"/>
    <feOffset dy="1"/>
    <feGaussianBlur stdDeviation="2"/>
    <feComposite in2="hardAlpha" operator="out"/>
    <feColorMatrix type="matrix" values="0 0 0 0 0 0 0 0 0 0 0 0 0 0 0 0 0 0 0.22 0"/>
    <feBlend mode="normal" in2="BackgroundImageFix" result="effect1_dropShadow_231_5505"/>
    <feBlend mode="normal" in="SourceGraphic" in2="effect1_dropShadow_231_5505" result="shape"/>
    <feColorMatrix in="SourceAlpha" type="matrix" values="0 0 0 0 0 0 0 0 0 0 0 0 0 0 0 0 0 0 127 0" result="hardAlpha"/>
    <feOffset dy="5.04"/>
    <feGaussianBlur stdDeviation="0.879924"/>
    <feComposite in2="hardAlpha" operator="arithmetic" k2="-1" k3="1"/>
    <feColorMatrix type="matrix" values="0 0 0 0 1 0 0 0 0 1 0 0 0 0 1 0 0 0 0.17 0"/>
    <feBlend mode="normal" in2="shape" result="effect2_innerShadow_231_5505"/>
    <feColorMatrix in="SourceAlpha" type="matrix" values="0 0 0 0 0 0 0 0 0 0 0 0 0 0 0 0 0 0 127 0" result="hardAlpha"/>
    <feOffset dy="-4.28"/>
    <feGaussianBlur stdDeviation="0.879924"/>
    <feComposite in2="hardAlpha" operator="arithmetic" k2="-1" k3="1"/>
    <feColorMatrix type="matrix" values="0 0 0 0 0 0 0 0 0 0 0 0 0 0 0 0 0 0 0.21 0"/>
    <feBlend mode="normal" in2="effect2_innerShadow_231_5505" result="effect3_innerShadow_231_5505"/>
    </filter>
    <linearGradient id="paint0_linear_231_5505" x1="282.909" y1="8" x2="282.909" y2="56.448" gradientUnits="userSpaceOnUse">
    <stop stop-color="white"/>
    <stop offset="1" stop-color="#E8F3F6"/>
    </linearGradient>
    <linearGradient id="paint1_linear_231_5505" x1="254.756" y1="7.94385" x2="254.756" y2="56.8959" gradientUnits="userSpaceOnUse">
    <stop stop-color="white"/>
    <stop offset="1" stop-color="#E8F3F6"/>
    </linearGradient>
    <linearGradient id="paint2_linear_231_5505" x1="225.187" y1="8.22412" x2="225.187" y2="56.6721" gradientUnits="userSpaceOnUse">
    <stop stop-color="white"/>
    <stop offset="1" stop-color="#E8F3F6"/>
    </linearGradient>
    <linearGradient id="paint3_linear_231_5505" x1="189.671" y1="1" x2="189.671" y2="57.008" gradientUnits="userSpaceOnUse">
    <stop stop-color="white"/>
    <stop offset="1" stop-color="#E8F3F6"/>
    </linearGradient>
    <linearGradient id="paint4_linear_231_5505" x1="145.426" y1="7.94385" x2="145.426" y2="56.8959" gradientUnits="userSpaceOnUse">
    <stop stop-color="white"/>
    <stop offset="1" stop-color="#E8F3F6"/>
    </linearGradient>
    <linearGradient id="paint5_linear_231_5505" x1="105.284" y1="7.94385" x2="105.284" y2="56.4479" gradientUnits="userSpaceOnUse">
    <stop stop-color="white"/>
    <stop offset="1" stop-color="#E8F3F6"/>
    </linearGradient>
    <linearGradient id="paint6_linear_231_5505" x1="65.7282" y1="7.94385" x2="65.7282" y2="56.8959" gradientUnits="userSpaceOnUse">
    <stop stop-color="white"/>
    <stop offset="1" stop-color="#E8F3F6"/>
    </linearGradient>
    <linearGradient id="paint7_linear_231_5505" x1="31.6993" y1="1.11182" x2="31.6993" y2="56.8958" gradientUnits="userSpaceOnUse">
    <stop stop-color="white"/>
    <stop offset="1" stop-color="#E8F3F6"/>
    </linearGradient>
    </defs>
</svg>