<svg width="249" height="64" viewBox="0 0 249 64" fill="none" xmlns="http://www.w3.org/2000/svg">
    <path d="M231.34 44.264C230.817 44.7867 230.052 45.1787 229.044 45.44C228.073 45.7387 226.897 45.888 225.516 45.888C224.134 45.888 222.828 45.6827 221.596 45.272C220.364 44.8613 219.356 43.872 218.572 42.304L213.028 30.992C212.468 29.8347 211.964 28.752 211.516 27.744C211.068 26.6987 210.582 25.504 210.06 24.16L209.724 24.216C209.873 26.232 209.948 28.2853 209.948 30.376C209.985 32.4667 210.004 34.52 210.004 36.536V45.216C209.593 45.328 208.958 45.44 208.1 45.552C207.278 45.664 206.457 45.72 205.636 45.72C204.814 45.72 204.086 45.664 203.452 45.552C202.817 45.44 202.294 45.216 201.884 44.88C201.473 44.544 201.156 44.096 200.932 43.536C200.708 42.9387 200.596 42.1733 200.596 41.24V13.24C201.118 12.4933 201.921 11.9333 203.004 11.56C204.086 11.1867 205.244 11 206.476 11C207.857 11 209.164 11.224 210.396 11.672C211.665 12.0827 212.673 13.0533 213.42 14.584L219.02 25.896C219.58 27.0533 220.084 28.1547 220.532 29.2C220.98 30.208 221.465 31.384 221.988 32.728L222.268 32.672C222.118 30.656 222.025 28.64 221.988 26.624C221.95 24.608 221.932 22.592 221.932 20.576V11.504C222.342 11.392 222.958 11.28 223.78 11.168C224.638 11.056 225.478 11 226.3 11C227.942 11 229.193 11.2987 230.052 11.896C230.91 12.456 231.34 13.6507 231.34 15.48V44.264Z" fill="url(#paint0_linear_282_287)"/>
    <path fill-rule="evenodd" clip-rule="evenodd" d="M241.34 48.4061L238.411 51.3351C236.29 53.4561 233.795 54.5114 231.767 55.0632C229.641 55.6875 227.494 55.888 225.516 55.888C223.128 55.888 220.748 55.5305 218.433 54.7588C217.68 54.5076 216.976 54.2043 216.318 53.859L212.635 54.8636C211.546 55.1606 210.365 55.3408 209.42 55.4644C208.165 55.6342 206.903 55.72 205.636 55.72C204.382 55.72 203.053 55.6362 201.714 55.3998C199.752 55.0537 197.544 54.2503 195.551 52.6196C193.662 51.0737 192.412 49.1623 191.647 47.2499L191.607 47.149L191.568 47.0472C190.776 44.9355 190.596 42.8674 190.596 41.24V10.0878L192.403 7.50537C194.416 4.62988 197.182 2.98949 199.744 2.10627C201.952 1.34481 204.218 1 206.476 1C208.908 1 211.325 1.39001 213.665 2.22066C214.266 2.42432 214.837 2.66103 215.378 2.92613L219.301 1.85637C220.359 1.5676 221.499 1.38651 222.429 1.2597L222.457 1.25576L222.486 1.25199C223.751 1.08706 225.023 1 226.3 1C228.875 1 232.432 1.42057 235.644 3.60526C240.859 7.09599 241.34 12.9007 241.34 15.48V48.4061ZM229.334 11.504C228.543 11.168 227.532 11 226.3 11C225.478 11 224.638 11.056 223.78 11.168C223.474 11.2096 223.197 11.2513 222.949 11.2929C222.529 11.3633 222.19 11.4336 221.932 11.504V20.576C221.932 21.865 221.939 23.1541 221.955 24.4431C221.955 24.454 221.955 24.4648 221.955 24.4757C221.963 25.1663 221.974 25.8568 221.986 26.5474C221.987 26.5653 221.987 26.5831 221.987 26.6009C221.987 26.6086 221.988 26.6163 221.988 26.624C221.988 26.6347 221.988 26.6455 221.988 26.6562C222 27.2808 222.017 27.9053 222.04 28.5298C222.04 28.5376 222.04 28.5455 222.041 28.5534C222.09 29.9091 222.164 31.2648 222.264 32.6206C222.265 32.6377 222.266 32.6549 222.268 32.672L221.988 32.728C221.983 32.7166 221.979 32.7051 221.974 32.6937C221.756 32.1335 221.545 31.6026 221.34 31.101C221.058 30.412 220.789 29.7783 220.532 29.2C220.336 28.7439 220.13 28.2772 219.913 27.7999C219.896 27.7618 219.879 27.7236 219.861 27.6854C219.856 27.6738 219.851 27.6622 219.845 27.6506C219.699 27.3292 219.547 27.0031 219.391 26.6721C219.27 26.4163 219.146 26.1576 219.02 25.896L213.42 14.584C213.237 14.2096 213.039 13.8686 212.825 13.5612C212.552 13.1698 212.255 12.8328 211.932 12.55C211.471 12.147 210.959 11.8543 210.396 11.672C209.164 11.224 207.857 11 206.476 11C205.244 11 204.086 11.1867 203.004 11.56C201.921 11.9333 201.118 12.4933 200.596 13.24V41.24C200.596 42.1733 200.708 42.9387 200.932 43.536C201.156 44.096 201.473 44.544 201.884 44.88C202.041 45.0083 202.214 45.1203 202.403 45.216C202.71 45.3708 203.059 45.4828 203.452 45.552C204.086 45.664 204.814 45.72 205.636 45.72C206.457 45.72 207.278 45.664 208.1 45.552C208.419 45.5103 208.708 45.4686 208.966 45.4269C209.4 45.3566 209.746 45.2863 210.004 45.216V36.536C210.004 35.2024 209.996 33.8524 209.979 32.4861C209.979 32.4798 209.979 32.4735 209.979 32.4672C209.971 31.7743 209.96 31.0773 209.948 30.376C209.948 30.2871 209.948 30.1983 209.947 30.1095C209.946 29.5538 209.939 29.0008 209.926 28.4504C209.926 28.442 209.926 28.4337 209.926 28.4254C209.894 27.0294 209.829 25.6505 209.729 24.2886C209.727 24.2644 209.726 24.2402 209.724 24.216L210.06 24.16C210.064 24.1701 210.068 24.1802 210.071 24.1902C210.251 24.6506 210.425 25.0934 210.596 25.5186C210.918 26.3234 211.225 27.0652 211.516 27.744C211.685 28.1246 211.862 28.5159 212.047 28.9178C212.091 29.0131 212.135 29.109 212.18 29.2054C212.19 29.2261 212.199 29.2469 212.209 29.2676C212.37 29.613 212.536 29.966 212.708 30.3267C212.716 30.3431 212.724 30.3596 212.732 30.376C212.828 30.5789 212.927 30.7843 213.028 30.992L218.572 42.304C218.788 42.7364 219.021 43.1249 219.271 43.4693C219.501 43.7854 219.745 44.0644 220.004 44.3064C220.485 44.7567 221.015 45.0785 221.596 45.272C222.828 45.6827 224.134 45.888 225.516 45.888C226.897 45.888 228.073 45.7387 229.044 45.44C230.052 45.1787 230.817 44.7867 231.34 44.264V15.48C231.34 13.6507 230.91 12.456 230.052 11.896C229.837 11.7467 229.598 11.616 229.334 11.504Z" fill="url(#paint1_linear_282_287)"/>
    <path d="M198.333 45.216V49.035L194.649 50.0398C193.878 50.2499 192.933 50.3957 192.006 50.5118C190.939 50.6503 189.869 50.72 188.797 50.72C187.694 50.72 186.59 50.628 185.518 50.3991C184.265 50.1627 183.008 49.6717 181.877 48.824C180.564 47.839 179.699 46.5425 179.188 45.1796L183.869 43.424L179.188 45.1796C178.673 43.8077 178.533 42.362 178.533 41.072V11.504V7.33113L182.639 6.58465C183.175 6.48709 183.911 6.38371 184.777 6.27468C185.881 6.09591 186.98 6 188.069 6C189.146 6 190.24 6.08765 191.298 6.32119C192.54 6.54934 193.828 7.02507 194.989 7.896C196.303 8.88099 197.168 10.1774 197.679 11.5404M198.333 45.216L197.679 11.5404M198.333 45.216V15.648C198.333 14.358 198.193 12.9123 197.679 11.5404M198.333 45.216L192.997 13.296L197.679 11.5404" fill="url(#paint2_linear_282_287)" stroke="#FFFDEC" stroke-width="10"/>
    <path d="M148.8 15.24L148.441 15.4035C148.396 15.1204 148.351 14.8337 148.306 14.5434C147.943 12.1962 146.86 9.69313 144.426 8.0865C142.491 6.74986 140.276 6.27979 138.157 6.27979C136.425 6.27979 134.726 6.61229 133.12 7.31921L133.12 7.31921C131.876 7.86624 130.613 8.58606 129.547 9.57581L127.738 11.2559L127.972 13.7138C128.132 15.4017 128.371 17.2399 128.682 19.2226L128.683 19.2302L128.684 19.2377C128.985 21.121 129.305 23.0594 129.644 25.0529L129.651 25.0979L129.66 25.1428C130.039 27.1513 130.437 29.1597 130.854 31.1679L130.863 31.212L130.873 31.2559C131.324 33.2514 131.758 35.1192 132.174 36.8587L132.177 36.8709L132.18 36.8831C132.6 38.6022 133.006 40.1657 133.396 41.57L133.418 41.6509L133.443 41.7309C133.876 43.1065 134.337 44.3811 134.845 45.4039C136.057 47.8962 138.31 49.2119 140.267 49.9186L140.344 49.9465L140.423 49.9719C142.373 50.6046 144.434 50.8878 146.557 50.8878C148.317 50.8878 150.04 50.6678 151.69 50.1729C153.194 49.7216 154.844 49.0023 156.185 47.7511L156.265 47.676C157.26 48.7072 158.464 49.3984 159.571 49.8481L159.657 49.883L159.745 49.9147C161.675 50.6166 163.781 50.8878 165.933 50.8878C167.699 50.8878 169.436 50.6664 171.133 50.2173C172.703 49.8016 174.558 49.1049 176.009 47.7511L176.737 47.0715L177.149 46.1648C177.677 45.0024 178.148 43.5687 178.583 41.9893C179.065 40.3413 179.517 38.5435 179.944 36.6021C180.369 34.6706 180.773 32.6503 181.157 30.5422C181.538 28.4465 181.864 26.4353 182.134 24.5093C182.437 22.6096 182.671 20.8641 182.831 19.2795C183.021 17.7113 183.141 16.3156 183.141 15.1998C183.141 12.4511 182.047 9.5741 179.178 7.87433L176.629 12.1758L179.178 7.87433C177.27 6.7437 175.162 6.27979 173.045 6.27979C170.6 6.27979 168.277 6.90209 166.153 8.10735L163.934 9.3671L163.652 11.9036C163.5 13.267 163.349 14.6218 163.197 15.968C162.636 15.5541 162.035 15.2153 161.421 14.9465C159.541 14.0885 157.485 13.7838 155.461 13.7838C154.097 13.7838 152.755 13.98 151.446 14.3547C150.541 14.5925 149.595 14.8787 148.8 15.24Z" fill="url(#paint3_linear_282_287)" stroke="#FFFDEC" stroke-width="10"/>
    <mask id="path-5-outside-1_282_287" maskUnits="userSpaceOnUse" x="76.623" y="1" width="51" height="56" fill="black">
    <rect fill="white" x="76.623" y="1" width="51" height="56"/>
    <path d="M116.863 32.896C116.863 34.912 116.508 36.76 115.799 38.44C115.127 40.0827 114.138 41.5013 112.831 42.696C111.524 43.8533 109.938 44.7493 108.071 45.384C106.204 46.0187 104.095 46.336 101.743 46.336C99.3911 46.336 97.2817 46.0187 95.415 45.384C93.5484 44.7493 91.9617 43.8533 90.655 42.696C89.3484 41.5013 88.3404 40.0827 87.6311 38.44C86.959 36.76 86.623 34.912 86.623 32.896V11.504C87.0337 11.4293 87.687 11.336 88.583 11.224C89.479 11.0747 90.3377 11 91.159 11C92.0177 11 92.7644 11.0747 93.399 11.224C94.071 11.336 94.631 11.56 95.079 11.896C95.527 12.232 95.863 12.6987 96.087 13.296C96.311 13.8933 96.423 14.6773 96.423 15.648V32.728C96.423 34.52 96.9084 35.92 97.879 36.928C98.887 37.936 100.175 38.44 101.743 38.44C103.348 38.44 104.636 37.936 105.607 36.928C106.578 35.92 107.063 34.52 107.063 32.728V11.504C107.474 11.4293 108.127 11.336 109.023 11.224C109.919 11.0747 110.778 11 111.599 11C112.458 11 113.204 11.0747 113.839 11.224C114.511 11.336 115.071 11.56 115.519 11.896C115.967 12.232 116.303 12.6987 116.527 13.296C116.751 13.8933 116.863 14.6773 116.863 15.648V32.896Z"/>
    </mask>
    <path d="M116.863 32.896C116.863 34.912 116.508 36.76 115.799 38.44C115.127 40.0827 114.138 41.5013 112.831 42.696C111.524 43.8533 109.938 44.7493 108.071 45.384C106.204 46.0187 104.095 46.336 101.743 46.336C99.3911 46.336 97.2817 46.0187 95.415 45.384C93.5484 44.7493 91.9617 43.8533 90.655 42.696C89.3484 41.5013 88.3404 40.0827 87.6311 38.44C86.959 36.76 86.623 34.912 86.623 32.896V11.504C87.0337 11.4293 87.687 11.336 88.583 11.224C89.479 11.0747 90.3377 11 91.159 11C92.0177 11 92.7644 11.0747 93.399 11.224C94.071 11.336 94.631 11.56 95.079 11.896C95.527 12.232 95.863 12.6987 96.087 13.296C96.311 13.8933 96.423 14.6773 96.423 15.648V32.728C96.423 34.52 96.9084 35.92 97.879 36.928C98.887 37.936 100.175 38.44 101.743 38.44C103.348 38.44 104.636 37.936 105.607 36.928C106.578 35.92 107.063 34.52 107.063 32.728V11.504C107.474 11.4293 108.127 11.336 109.023 11.224C109.919 11.0747 110.778 11 111.599 11C112.458 11 113.204 11.0747 113.839 11.224C114.511 11.336 115.071 11.56 115.519 11.896C115.967 12.232 116.303 12.6987 116.527 13.296C116.751 13.8933 116.863 14.6773 116.863 15.648V32.896Z" fill="url(#paint4_linear_282_287)"/>
    <path d="M115.799 38.44L106.587 34.5503L106.565 34.6019L106.544 34.6537L115.799 38.44ZM112.831 42.696L119.461 50.1819L119.52 50.1295L119.579 50.0763L112.831 42.696ZM95.415 45.384L92.196 54.8517H92.196L95.415 45.384ZM90.655 42.696L83.9074 50.0763L83.9656 50.1296L84.0247 50.1819L90.655 42.696ZM87.6311 38.44L78.3463 42.1539L78.3967 42.2798L78.4504 42.4044L87.6311 38.44ZM86.623 11.504L84.8342 1.66531L76.623 3.15826V11.504H86.623ZM88.583 11.224L89.8234 21.1468L90.0258 21.1215L90.227 21.0879L88.583 11.224ZM93.399 11.224L91.1087 20.9582L91.4297 21.0337L91.7551 21.0879L93.399 11.224ZM95.079 11.896L101.079 3.896L101.079 3.896L95.079 11.896ZM96.087 13.296L86.7237 16.8072L86.7238 16.8072L96.087 13.296ZM97.879 36.928L90.6758 43.8644L90.7413 43.9324L90.808 43.9991L97.879 36.928ZM105.607 36.928L98.4038 29.9916L98.4038 29.9916L105.607 36.928ZM107.063 11.504L105.274 1.66531L97.063 3.15826V11.504H107.063ZM109.023 11.224L110.263 21.1468L110.466 21.1215L110.667 21.0879L109.023 11.224ZM113.839 11.224L111.549 20.9582L111.87 21.0337L112.195 21.0879L113.839 11.224ZM115.519 11.896L109.519 19.896L109.519 19.896L115.519 11.896ZM116.527 13.296L107.164 16.8072L107.164 16.8073L116.527 13.296ZM106.863 32.896C106.863 33.7173 106.724 34.2252 106.587 34.5503L125.012 42.3297C126.293 39.2948 126.863 36.1067 126.863 32.896H106.863ZM106.544 34.6537C106.43 34.9311 106.296 35.1214 106.083 35.3157L119.579 50.0763C121.98 47.8813 123.824 45.2342 125.055 42.2263L106.544 34.6537ZM106.201 35.2101C106.009 35.3799 105.624 35.6539 104.852 35.9163L111.29 54.8517C114.252 53.8447 117.04 52.3268 119.461 50.1819L106.201 35.2101ZM104.852 35.9163C104.2 36.138 103.205 36.336 101.743 36.336V56.336C104.985 56.336 108.209 55.8994 111.29 54.8517L104.852 35.9163ZM101.743 36.336C100.281 36.336 99.2862 36.138 98.6341 35.9163L92.196 54.8517C95.2773 55.8994 98.5014 56.336 101.743 56.336V36.336ZM98.6341 35.9163C97.8625 35.6539 97.477 35.3799 97.2854 35.2101L84.0247 50.1819C86.4464 52.3268 89.2343 53.8447 92.196 54.8517L98.6341 35.9163ZM97.4027 35.3157C97.1508 35.0853 96.9667 34.8347 96.8117 34.4756L78.4504 42.4044C79.714 45.3306 81.546 47.9173 83.9074 50.0763L97.4027 35.3157ZM96.9158 34.7261C96.7673 34.3549 96.623 33.7848 96.623 32.896H76.623C76.623 36.0392 77.1508 39.1651 78.3463 42.1539L96.9158 34.7261ZM96.623 32.896V11.504H76.623V32.896H96.623ZM88.4119 21.3427C88.5312 21.321 88.951 21.2558 89.8234 21.1468L87.3427 1.30122C86.4231 1.41617 85.5362 1.53766 84.8342 1.66531L88.4119 21.3427ZM90.227 21.0879C90.6361 21.0198 90.9428 21 91.159 21V1C89.7326 1 88.322 1.12957 86.9391 1.36006L90.227 21.0879ZM91.159 21C91.2292 21 91.2816 21.0015 91.3174 21.0032C91.3533 21.0049 91.3696 21.0065 91.368 21.0064C91.3664 21.0062 91.3435 21.0039 91.3013 20.9971C91.2592 20.9902 91.194 20.9783 91.1087 20.9582L95.6894 1.48983C94.1109 1.1184 92.5612 1 91.159 1V21ZM91.7551 21.0879C91.1849 20.9929 90.1615 20.7078 89.079 19.896L101.079 3.896C99.1006 2.41216 96.9572 1.67909 95.043 1.36006L91.7551 21.0879ZM89.079 19.896C87.7963 18.9339 87.0739 17.741 86.7237 16.8072L105.45 9.78477C104.652 7.65629 103.258 5.53007 101.079 3.896L89.079 19.896ZM86.7238 16.8072C86.5294 16.2891 86.4625 15.9066 86.4396 15.7462C86.4157 15.5793 86.423 15.5347 86.423 15.648H106.423C106.423 14.0385 106.255 11.9312 105.45 9.78475L86.7238 16.8072ZM86.423 15.648V32.728H106.423V15.648H86.423ZM86.423 32.728C86.423 36.3508 87.4471 40.5115 90.6758 43.8644L105.082 29.9916C105.66 30.5918 106.032 31.2603 106.235 31.8466C106.331 32.1213 106.378 32.3445 106.4 32.4953C106.423 32.6446 106.423 32.7269 106.423 32.728H86.423ZM90.808 43.9991C93.8877 47.0788 97.8141 48.44 101.743 48.44V28.44C102.041 28.44 102.583 28.4906 103.245 28.7496C103.926 29.0159 104.509 29.4161 104.95 29.8569L90.808 43.9991ZM101.743 48.44C105.629 48.44 109.672 47.1237 112.81 43.8644L98.4038 29.9916C98.9074 29.4687 99.5529 29.0298 100.269 28.7496C100.957 28.4804 101.496 28.44 101.743 28.44V48.44ZM112.81 43.8644C116.039 40.5115 117.063 36.3508 117.063 32.728H97.063C97.063 32.7269 97.063 32.6446 97.0857 32.4953C97.1086 32.3445 97.1554 32.1213 97.2507 31.8466C97.4539 31.2603 97.8258 30.5918 98.4038 29.9916L112.81 43.8644ZM117.063 32.728V11.504H97.063V32.728H117.063ZM108.852 21.3427C108.971 21.321 109.391 21.2558 110.263 21.1468L107.783 1.30122C106.863 1.41617 105.976 1.53766 105.274 1.66531L108.852 21.3427ZM110.667 21.0879C111.076 21.0198 111.383 21 111.599 21V1C110.173 1 108.762 1.12957 107.379 1.36006L110.667 21.0879ZM111.599 21C111.669 21 111.722 21.0015 111.757 21.0032C111.793 21.0049 111.81 21.0065 111.808 21.0064C111.806 21.0062 111.784 21.0039 111.741 20.9971C111.699 20.9902 111.634 20.9783 111.549 20.9582L116.129 1.48983C114.551 1.1184 113.001 1 111.599 1V21ZM112.195 21.0879C111.625 20.9929 110.601 20.7078 109.519 19.896L121.519 3.89601C119.541 2.41216 117.397 1.67908 115.483 1.36006L112.195 21.0879ZM109.519 19.896C108.236 18.9339 107.514 17.741 107.164 16.8072L125.89 9.78478C125.092 7.6563 123.698 5.53007 121.519 3.89599L109.519 19.896ZM107.164 16.8073C106.969 16.2891 106.902 15.9066 106.88 15.7462C106.856 15.5793 106.863 15.5347 106.863 15.648H126.863C126.863 14.0386 126.695 11.9312 125.89 9.78474L107.164 16.8073ZM106.863 15.648V32.896H126.863V15.648H106.863Z" fill="#FFFDEC" mask="url(#path-5-outside-1_282_287)"/>
    <path d="M42.4507 18.7978L42.4645 18.7649C43.6321 15.9625 45.2544 13.4956 47.3815 11.4692L42.4507 18.7978ZM42.4507 18.7978L42.4375 18.831M42.4507 18.7978L42.4375 18.831M42.4375 18.831C41.2618 21.7701 40.7358 24.9962 40.7358 28.4159C40.7358 31.8075 41.2646 35.0128 42.4375 37.9449C43.5661 40.7666 45.1677 43.2567 47.2832 45.3218L50.7758 41.7439M42.4375 18.831L50.7758 41.7439M50.7758 41.7439L47.2832 45.3218C49.3705 47.3595 51.832 48.896 54.6026 49.9469L54.638 49.9604L54.6736 49.9733C57.4378 50.9741 60.372 51.4479 63.4318 51.4479C66.4917 51.4479 69.4259 50.9741 72.19 49.9733C74.9639 48.9689 77.4358 47.477 79.5361 45.4766L79.5382 45.4746C81.7068 43.4069 83.3435 40.9037 84.4822 38.0569L84.4875 38.0437L84.4927 38.0306C85.6572 35.0708 86.1838 31.8381 86.1838 28.4159C86.1838 24.986 85.636 21.7475 84.4131 18.7982C83.2753 15.966 81.6383 13.4811 79.4601 11.4481C77.3423 9.43482 74.8676 7.92656 72.0914 6.91943C69.3595 5.91486 66.4576 5.43994 63.4318 5.43994C60.4001 5.43994 57.4859 5.91665 54.7296 6.91461L54.7165 6.91938L54.7033 6.92423C51.9497 7.9387 49.4943 9.45527 47.3836 11.4672L50.7758 41.7439ZM65.1275 23.9794L65.1484 24.0056L65.1697 24.0315C65.5081 24.443 66.1038 25.6147 66.1038 28.4159C66.1038 31.2706 65.5015 32.4529 65.1697 32.8564C64.8229 33.2782 64.4273 33.5519 63.4318 33.5519C62.5026 33.5519 62.1138 33.2989 61.75 32.8564C61.4182 32.4529 60.8158 31.2706 60.8158 28.4159C60.8158 25.5571 61.4197 24.4271 61.712 24.0771C62.1237 23.5912 62.56 23.3359 63.4878 23.3359C64.4827 23.3359 64.829 23.6063 65.1275 23.9794Z" fill="url(#paint5_linear_282_287)" stroke="#FFFDEC" stroke-width="10"/>
    <path d="M35.2036 50.0398L38.888 49.0349V45.2159V35.271C40.7467 32.262 42.2576 29.7507 43.4124 27.7478C44.7261 25.5326 45.7578 23.7252 46.4829 22.3554L46.4968 22.3291L46.5104 22.3027C47.1958 20.97 47.8183 19.6387 48.1488 18.5148C48.4125 17.6182 48.632 16.5742 48.632 15.4799C48.632 12.8901 47.6876 10.2183 45.249 8.41196C43.364 6.95344 41.1573 6.33594 38.928 6.33594C37.7646 6.33594 36.6073 6.48132 35.4679 6.74027C34.3021 7.00522 33.1706 7.39248 32.0999 7.9278L30.375 8.79028L29.676 10.5877C29.3068 11.5369 28.9661 12.4104 28.6537 13.2084C27.6774 11.2906 26.3269 9.32039 24.3591 8.04625C22.4082 6.75937 20.1865 6.33594 18.096 6.33594C16.0922 6.33594 14.0511 6.79932 12.2287 7.98788L12.1857 8.0159L12.1433 8.0448C10.9359 8.86807 9.83133 9.87148 8.9466 11.0965L7.34458 13.3147L8.34922 15.8598C8.98785 17.4776 9.7946 19.2075 10.7511 21.0408L10.7616 21.0609L10.7722 21.0809C11.7079 22.8353 12.7177 24.6214 13.8005 26.439C14.8752 28.2429 15.97 30.0101 17.0851 31.7404C17.8628 32.9471 18.6051 34.0821 19.312 35.1446V41.1839C19.312 43.4382 19.7691 46.9145 22.7447 48.9845L22.806 49.0272L22.8687 49.068C24.9207 50.4063 27.3627 50.7199 29.464 50.7199C30.5129 50.7199 31.5691 50.6484 32.6307 50.5099C33.5344 50.3921 34.4486 50.2457 35.2036 50.0398Z" fill="url(#paint6_linear_282_287)" stroke="#FFFDEC" stroke-width="10"/>
    <g filter="url(#filter0_dii_282_287)">
    <path d="M34.6863 46.776C34.2756 46.888 33.6409 47 32.7823 47.112C31.9236 47.224 31.0836 47.28 30.2623 47.28C28.5449 47.28 27.2569 47 26.3983 46.44C25.5396 45.8427 25.1103 44.6107 25.1103 42.744V35.184C24.1769 33.8027 23.1689 32.272 22.0863 30.592C21.0036 28.912 19.9396 27.1947 18.8943 25.44C17.8489 23.6853 16.8783 21.968 15.9823 20.288C15.0863 18.5707 14.3583 17.0027 13.7983 15.584C14.2836 14.912 14.9369 14.296 15.7583 13.736C16.6169 13.176 17.6623 12.896 18.8943 12.896C20.3503 12.896 21.5263 13.1947 22.4223 13.792C23.3556 14.3893 24.2329 15.5093 25.0543 17.152L29.7023 26.504H30.0383C30.5609 25.3467 31.0089 24.3013 31.3823 23.368C31.7929 22.3973 32.1849 21.4453 32.5583 20.512C32.9316 19.5413 33.3236 18.552 33.7343 17.544C34.1449 16.4987 34.6116 15.304 35.1343 13.96C35.8063 13.624 36.5529 13.3627 37.3743 13.176C38.1956 12.9893 38.9796 12.896 39.7263 12.896C41.0329 12.896 42.1343 13.2507 43.0303 13.96C43.9636 14.632 44.4303 15.6587 44.4303 17.04C44.4303 17.488 44.337 18.0293 44.1503 18.664C43.9636 19.2987 43.5343 20.2693 42.8623 21.576C42.1903 22.8453 41.2009 24.5813 39.8943 26.784C38.6249 28.9867 36.8889 31.8613 34.6863 35.408V46.776ZM46.5342 29.976C46.5342 27.064 46.9822 24.488 47.8782 22.248C48.8116 20.008 50.0622 18.1413 51.6302 16.648C53.2356 15.1173 55.1022 13.96 57.2302 13.176C59.3956 12.392 61.7289 12 64.2302 12C66.7316 12 69.0462 12.392 71.1742 13.176C73.3396 13.96 75.2249 15.1173 76.8302 16.648C78.4356 18.1413 79.6862 20.008 80.5822 22.248C81.5156 24.488 81.9822 27.064 81.9822 29.976C81.9822 32.888 81.5342 35.4827 80.6382 37.76C79.7422 40 78.4916 41.8853 76.8862 43.416C75.3182 44.9093 73.4516 46.048 71.2862 46.832C69.1209 47.616 66.7689 48.008 64.2302 48.008C61.6916 48.008 59.3396 47.616 57.1742 46.832C55.0089 46.0107 53.1422 44.8347 51.5742 43.304C50.0062 41.7733 48.7742 39.888 47.8782 37.648C46.9822 35.408 46.5342 32.8507 46.5342 29.976ZM56.6142 29.976C56.6142 33.3733 57.3049 35.912 58.6862 37.592C60.0676 39.272 61.9156 40.112 64.2302 40.112C66.5822 40.112 68.4489 39.272 69.8302 37.592C71.2116 35.912 71.9022 33.3733 71.9022 29.976C71.9022 26.616 71.2116 24.096 69.8302 22.416C68.4862 20.736 66.6382 19.896 64.2862 19.896C61.9716 19.896 60.1049 20.736 58.6862 22.416C57.3049 24.0587 56.6142 26.5787 56.6142 29.976ZM117.661 34.456C117.661 36.472 117.307 38.32 116.597 40C115.925 41.6427 114.936 43.0613 113.629 44.256C112.323 45.4133 110.736 46.3093 108.869 46.944C107.003 47.5787 104.893 47.896 102.541 47.896C100.189 47.896 98.0799 47.5787 96.2132 46.944C94.3466 46.3093 92.7599 45.4133 91.4532 44.256C90.1466 43.0613 89.1386 41.6427 88.4292 40C87.7572 38.32 87.4212 36.472 87.4212 34.456V13.064C87.8319 12.9893 88.4852 12.896 89.3812 12.784C90.2772 12.6347 91.1359 12.56 91.9572 12.56C92.8159 12.56 93.5626 12.6347 94.1972 12.784C94.8692 12.896 95.4292 13.12 95.8772 13.456C96.3252 13.792 96.6612 14.2587 96.8852 14.856C97.1092 15.4533 97.2212 16.2373 97.2212 17.208V34.288C97.2212 36.08 97.7066 37.48 98.6772 38.488C99.6852 39.496 100.973 40 102.541 40C104.147 40 105.435 39.496 106.405 38.488C107.376 37.48 107.861 36.08 107.861 34.288V13.064C108.272 12.9893 108.925 12.896 109.821 12.784C110.717 12.6347 111.576 12.56 112.397 12.56C113.256 12.56 114.003 12.6347 114.637 12.784C115.309 12.896 115.869 13.12 116.317 13.456C116.765 13.792 117.101 14.2587 117.325 14.856C117.549 15.4533 117.661 16.2373 117.661 17.208V34.456ZM151.668 21.352C152.078 21.1653 152.713 20.96 153.572 20.736C154.468 20.4747 155.364 20.344 156.26 20.344C157.828 20.344 159.134 20.5867 160.18 21.072C161.225 21.52 161.86 22.192 162.084 23.088C162.494 24.6187 162.868 26.056 163.204 27.4C163.577 28.7067 163.932 29.976 164.268 31.208C164.604 32.4027 164.921 33.5973 165.22 34.792C165.556 35.9867 165.873 37.2373 166.172 38.544H166.452C166.788 36.2667 167.086 34.1013 167.348 32.048C167.609 29.9573 167.852 27.9227 168.076 25.944C168.3 23.928 168.524 21.9493 168.748 20.008C168.972 18.0293 169.196 16.032 169.42 14.016C170.801 13.232 172.276 12.84 173.844 12.84C175.225 12.84 176.42 13.1387 177.428 13.736C178.436 14.3333 178.94 15.3413 178.94 16.76C178.94 17.5813 178.846 18.7573 178.66 20.288C178.51 21.7813 178.286 23.4613 177.988 25.328C177.726 27.1947 177.409 29.1547 177.036 31.208C176.662 33.2613 176.27 35.2213 175.86 37.088C175.449 38.9547 175.02 40.6533 174.572 42.184C174.161 43.6773 173.769 44.8347 173.396 45.656C172.836 46.1787 171.921 46.608 170.652 46.944C169.382 47.28 168.076 47.448 166.732 47.448C164.977 47.448 163.484 47.224 162.252 46.776C161.057 46.2907 160.329 45.6187 160.068 44.76C159.582 43.2667 159.06 41.4933 158.5 39.44C157.94 37.3867 157.342 35.128 156.708 32.664C156.185 35.0907 155.644 37.4613 155.084 39.776C154.524 42.0907 154.02 44.0507 153.572 45.656C153.012 46.1787 152.172 46.608 151.052 46.944C149.932 47.28 148.7 47.448 147.356 47.448C145.676 47.448 144.145 47.224 142.764 46.776C141.42 46.2907 140.542 45.6187 140.132 44.76C139.796 44.088 139.422 43.0987 139.012 41.792C138.638 40.448 138.246 38.936 137.836 37.256C137.425 35.5387 136.996 33.6907 136.548 31.712C136.137 29.7333 135.745 27.7547 135.372 25.776C135.036 23.7973 134.718 21.8747 134.42 20.008C134.121 18.104 133.897 16.368 133.748 14.8C134.27 14.3147 134.998 13.8667 135.932 13.456C136.865 13.0453 137.873 12.84 138.956 12.84C140.374 12.84 141.532 13.1573 142.428 13.792C143.361 14.3893 143.94 15.416 144.164 16.872C144.761 20.68 145.246 23.8533 145.62 26.392C146.03 28.9307 146.348 31.0213 146.572 32.664C146.833 34.2693 147.02 35.52 147.132 36.416C147.244 37.312 147.356 38.0213 147.468 38.544H147.748C148.084 37.0507 148.401 35.6693 148.7 34.4C148.998 33.1307 149.297 31.8613 149.596 30.592C149.932 29.2853 150.268 27.904 150.604 26.448C150.94 24.9547 151.294 23.256 151.668 21.352ZM194.131 46.776C193.721 46.888 193.067 47 192.171 47.112C191.313 47.224 190.454 47.28 189.595 47.28C188.737 47.28 187.971 47.2053 187.299 47.056C186.665 46.944 186.123 46.72 185.675 46.384C185.227 46.048 184.891 45.5813 184.667 44.984C184.443 44.3867 184.331 43.6027 184.331 42.632V13.064C184.742 12.9893 185.395 12.896 186.291 12.784C187.187 12.6347 188.046 12.56 188.867 12.56C189.726 12.56 190.473 12.6347 191.107 12.784C191.779 12.896 192.339 13.12 192.787 13.456C193.235 13.792 193.571 14.2587 193.795 14.856C194.019 15.4533 194.131 16.2373 194.131 17.208V46.776ZM232.138 45.824C231.615 46.3467 230.85 46.7387 229.842 47C228.871 47.2987 227.695 47.448 226.314 47.448C224.933 47.448 223.626 47.2427 222.394 46.832C221.162 46.4213 220.154 45.432 219.37 43.864L213.826 32.552C213.266 31.3947 212.762 30.312 212.314 29.304C211.866 28.2587 211.381 27.064 210.858 25.72L210.522 25.776C210.671 27.792 210.746 29.8453 210.746 31.936C210.783 34.0267 210.802 36.08 210.802 38.096V46.776C210.391 46.888 209.757 47 208.898 47.112C208.077 47.224 207.255 47.28 206.434 47.28C205.613 47.28 204.885 47.224 204.25 47.112C203.615 47 203.093 46.776 202.682 46.44C202.271 46.104 201.954 45.656 201.73 45.096C201.506 44.4987 201.394 43.7333 201.394 42.8V14.8C201.917 14.0533 202.719 13.4933 203.802 13.12C204.885 12.7467 206.042 12.56 207.274 12.56C208.655 12.56 209.962 12.784 211.194 13.232C212.463 13.6427 213.471 14.6133 214.218 16.144L219.818 27.456C220.378 28.6133 220.882 29.7147 221.33 30.76C221.778 31.768 222.263 32.944 222.786 34.288L223.066 34.232C222.917 32.216 222.823 30.2 222.786 28.184C222.749 26.168 222.73 24.152 222.73 22.136V13.064C223.141 12.952 223.757 12.84 224.578 12.728C225.437 12.616 226.277 12.56 227.098 12.56C228.741 12.56 229.991 12.8587 230.85 13.456C231.709 14.016 232.138 15.2107 232.138 17.04V45.824Z" fill="#FFAE35"/>
    </g>
    <defs>
    <filter id="filter0_dii_282_287" x="9.79834" y="9" width="226.339" height="44.0078" filterUnits="userSpaceOnUse" color-interpolation-filters="sRGB">
    <feFlood flood-opacity="0" result="BackgroundImageFix"/>
    <feColorMatrix in="SourceAlpha" type="matrix" values="0 0 0 0 0 0 0 0 0 0 0 0 0 0 0 0 0 0 127 0" result="hardAlpha"/>
    <feOffset dy="1"/>
    <feGaussianBlur stdDeviation="2"/>
    <feComposite in2="hardAlpha" operator="out"/>
    <feColorMatrix type="matrix" values="0 0 0 0 0 0 0 0 0 0 0 0 0 0 0 0 0 0 0.22 0"/>
    <feBlend mode="normal" in2="BackgroundImageFix" result="effect1_dropShadow_282_287"/>
    <feBlend mode="normal" in="SourceGraphic" in2="effect1_dropShadow_282_287" result="shape"/>
    <feColorMatrix in="SourceAlpha" type="matrix" values="0 0 0 0 0 0 0 0 0 0 0 0 0 0 0 0 0 0 127 0" result="hardAlpha"/>
    <feOffset dy="7.03939"/>
    <feGaussianBlur stdDeviation="0.879924"/>
    <feComposite in2="hardAlpha" operator="arithmetic" k2="-1" k3="1"/>
    <feColorMatrix type="matrix" values="0 0 0 0 1 0 0 0 0 1 0 0 0 0 1 0 0 0 0.17 0"/>
    <feBlend mode="normal" in2="shape" result="effect2_innerShadow_282_287"/>
    <feColorMatrix in="SourceAlpha" type="matrix" values="0 0 0 0 0 0 0 0 0 0 0 0 0 0 0 0 0 0 127 0" result="hardAlpha"/>
    <feOffset dy="-5.27954"/>
    <feGaussianBlur stdDeviation="0.879924"/>
    <feComposite in2="hardAlpha" operator="arithmetic" k2="-1" k3="1"/>
    <feColorMatrix type="matrix" values="0 0 0 0 0 0 0 0 0 0 0 0 0 0 0 0 0 0 0.21 0"/>
    <feBlend mode="normal" in2="effect2_innerShadow_282_287" result="effect3_innerShadow_282_287"/>
    </filter>
    <linearGradient id="paint0_linear_282_287" x1="216.202" y1="12.4399" x2="215.968" y2="45.888" gradientUnits="userSpaceOnUse">
    <stop stop-color="#FFFDEC"/>
    <stop offset="1" stop-color="#FFFDEC"/>
    </linearGradient>
    <linearGradient id="paint1_linear_282_287" x1="216.354" y1="3.26541" x2="216.003" y2="55.8882" gradientUnits="userSpaceOnUse">
    <stop stop-color="#FFFDEC"/>
    <stop offset="1" stop-color="#FFFDEC"/>
    </linearGradient>
    <linearGradient id="paint2_linear_282_287" x1="188.433" y1="11" x2="188.433" y2="45.72" gradientUnits="userSpaceOnUse">
    <stop stop-color="#FFFDEC"/>
    <stop offset="1" stop-color="#FFFDEC"/>
    </linearGradient>
    <linearGradient id="paint3_linear_282_287" x1="155.545" y1="11.2798" x2="155.545" y2="45.8878" gradientUnits="userSpaceOnUse">
    <stop stop-color="#FFFDEC"/>
    <stop offset="1" stop-color="#FFFDEC"/>
    </linearGradient>
    <linearGradient id="paint4_linear_282_287" x1="101.743" y1="11" x2="101.743" y2="46.336" gradientUnits="userSpaceOnUse">
    <stop stop-color="#FFFDEC"/>
    <stop offset="1" stop-color="#FFFDEC"/>
    </linearGradient>
    <linearGradient id="paint5_linear_282_287" x1="63.4598" y1="10.4399" x2="63.4598" y2="46.4479" gradientUnits="userSpaceOnUse">
    <stop stop-color="#FFFDEC"/>
    <stop offset="1" stop-color="#FFFDEC"/>
    </linearGradient>
    <linearGradient id="paint6_linear_282_287" x1="28.316" y1="11.3359" x2="28.316" y2="45.7199" gradientUnits="userSpaceOnUse">
    <stop stop-color="#FFFDEC"/>
    <stop offset="1" stop-color="#FFFDEC"/>
    </linearGradient>
    </defs>
</svg>